<svg
    width="24"
    height="24"
    viewBox="0 0 24 24"
    fill="none"
    xmlns="http://www.w3.org/2000/svg"
>
    <path
        d="M12 22C17.5228 22 22 17.5228 22 12C22 6.47715 17.5228 2 12 2C6.47715 2 2 6.47715 2 12C2 17.5228 6.47715 22 12 22Z"
        stroke="currentColor"
        stroke-width="2"
        stroke-linecap="round"
        stroke-linejoin="round"
    />
    <path
        d="M12.8516 15.6602C13.0931 15.6602 13.3255 15.6442 13.5488 15.6123C13.7721 15.5758 13.9863 15.5212 14.1914 15.4482L14.4102 16.9248C14.1413 16.9886 13.861 17.0387 13.5693 17.0752C13.2777 17.1117 12.9837 17.1299 12.6875 17.1299C12.1178 17.1299 11.596 17.0501 11.1221 16.8906C10.6481 16.7311 10.2357 16.4896 9.88477 16.166C9.53841 15.8424 9.26953 15.4391 9.07812 14.9561C8.88672 14.473 8.79102 13.9124 8.79102 13.2744V10.9365C8.79102 10.2712 8.88672 9.68783 9.07812 9.18652C9.26953 8.68522 9.54297 8.26595 9.89844 7.92871C10.2585 7.59147 10.6823 7.33854 11.1699 7.16992C11.6621 7.0013 12.2044 6.91699 12.7969 6.91699C13.0703 6.91699 13.3392 6.9375 13.6035 6.97852C13.8724 7.01497 14.1413 7.0651 14.4102 7.12891L14.1914 8.6123C14 8.5485 13.7904 8.49609 13.5625 8.45508C13.3346 8.41406 13.1068 8.39355 12.8789 8.39355C12.5371 8.39355 12.2295 8.44368 11.9561 8.54395C11.6826 8.63965 11.4502 8.79004 11.2588 8.99512C11.0674 9.19564 10.9215 9.4554 10.8213 9.77441C10.7256 10.0934 10.6777 10.4762 10.6777 10.9229V13.2744C10.6777 13.7119 10.7279 14.0833 10.8281 14.3887C10.9329 14.6895 11.0811 14.9355 11.2725 15.127C11.4639 15.3138 11.694 15.4505 11.9629 15.5371C12.2318 15.6191 12.528 15.6602 12.8516 15.6602ZM13.0361 10.5879V11.5586H7.61523V10.5879H13.0361ZM13.0361 12.4404V13.418H7.61523V12.4404H13.0361Z"
        fill="currentColor"
    />
</svg>