<svg
    xmlns="http://www.w3.org/2000/svg"
    width="99.438"
    height="55.385"
    fill="none"
    version="1.1"
    viewBox="0 0 99.438 55.385"
>
    <g transform="translate(-53.802 15.193) scale(1.59768)">
        <path
            fill="#3c4043"
            d="M80.009 18.741v3.483h-1.095v-8.601h2.903c.735 0 1.363.248 1.876.743.524.495.787 1.1.787 1.813 0 .731-.263 1.336-.787 1.825-.508.49-1.135.732-1.876.732h-1.808zm0-4.059v3h1.83c.434 0 .799-.15 1.084-.443.29-.294.439-.65.439-1.054a1.44 1.44 0 00-.44-1.042c-.284-.305-.643-.455-1.083-.455h-1.83z"
        ></path>
        <path
            fill="#3c4043"
            d="M87.344 16.145c.81 0 1.449.218 1.916.656.468.437.701 1.036.701 1.796v3.627h-1.043v-.817h-.046c-.45.673-1.055 1.007-1.807 1.007-.645 0-1.18-.19-1.614-.575a1.846 1.846 0 01-.65-1.44c0-.61.228-1.094.684-1.45.456-.363 1.066-.542 1.825-.542.65 0 1.186.121 1.602.363v-.253c0-.386-.148-.709-.45-.98a1.537 1.537 0 00-1.06-.402c-.611 0-1.096.259-1.45.783l-.963-.61c.53-.778 1.317-1.163 2.355-1.163zm-1.414 4.272c0 .287.12.53.365.72.24.19.524.287.85.287.461 0 .872-.173 1.231-.518.36-.346.542-.749.542-1.215-.342-.27-.815-.409-1.426-.409-.444 0-.815.11-1.112.323-.302.224-.45.495-.45.812z"
        ></path>
        <path
            fill="#3c4043"
            d="M95.914 16.334l-3.65 8.475h-1.129l1.357-2.965-2.406-5.51h1.192l1.733 4.226h.023l1.688-4.226z"
        ></path>
        <path
            fill="#4285f4"
            d="M75.655 18.037c0-.36-.032-.705-.091-1.037h-4.59v1.9h2.644a2.288 2.288 0 01-.981 1.53v1.233h1.573c.919-.858 1.445-2.127 1.445-3.626z"
        ></path>
        <path
            fill="#34a853"
            d="M72.637 20.432c-.438.299-1.002.473-1.662.473-1.274 0-2.355-.867-2.743-2.036H66.61v1.271a4.881 4.881 0 004.366 2.717c1.32 0 2.428-.438 3.235-1.193z"
        ></path>
        <path
            fill="#fabb05"
            d="M68.08 17.926c0-.328.054-.646.152-.944v-1.271H66.61a4.946 4.946 0 00-.52 2.215c0 .797.189 1.549.52 2.215l1.623-1.272a3.001 3.001 0 01-.153-.943z"
        ></path>
        <path
            fill="#e94235"
            d="M70.975 14.946c.72 0 1.365.25 1.875.74l1.394-1.407a4.669 4.669 0 00-3.269-1.285 4.882 4.882 0 00-4.366 2.717l1.623 1.27c.387-1.168 1.469-2.035 2.743-2.035z"
        ></path>
    </g>
    <g
        fill="#000"
        clip-path="url(#clip0_1303_3306)"
        transform="matrix(1.91897 0 0 1.91897 -27.386 9.665)"
    >
        <path d="M19.284 14.16c.306-.386.513-.903.459-1.432-.448.023-.995.298-1.311.683-.284.33-.536.87-.47 1.376.503.044 1.005-.253 1.322-.627z"></path>
        <path d="M19.738 14.886c-.73-.044-1.351.417-1.7.417s-.883-.395-1.46-.385c-.752.012-1.45.44-1.83 1.12-.785 1.361-.208 3.38.555 4.49.37.548.817 1.152 1.406 1.13.555-.022.773-.363 1.45-.363.674 0 .87.363 1.46.352.61-.011.99-.549 1.361-1.098.425-.625.6-1.229.61-1.262-.01-.011-1.176-.461-1.187-1.811-.011-1.13.915-1.668.959-1.702-.523-.778-1.34-.866-1.624-.888z"></path>
        <path d="M26.096 13.355c1.587 0 2.692 1.102 2.692 2.705 0 1.609-1.128 2.716-2.732 2.716h-1.757v2.813h-1.27v-8.233zm-1.797 4.348h1.457c1.105 0 1.734-.599 1.734-1.637 0-1.039-.63-1.632-1.729-1.632H24.3z"></path>
        <path d="M29.12 19.883c0-1.05.798-1.694 2.215-1.774l1.633-.097v-.462c0-.668-.448-1.067-1.196-1.067-.709 0-1.15.342-1.259.879h-1.156c.068-1.085.986-1.883 2.46-1.883 1.445 0 2.37.77 2.37 1.974v4.136h-1.174v-.987h-.028c-.346.668-1.1 1.09-1.882 1.09-1.168 0-1.984-.73-1.984-1.809zm3.848-.542v-.473l-1.468.091c-.732.051-1.145.377-1.145.89 0 .525.43.867 1.088.867.856 0 1.525-.593 1.525-1.375z"></path>
        <path d="M35.293 23.797v-.999c.09.023.294.023.396.023.567 0 .873-.24 1.06-.856 0-.011.108-.365.108-.37l-2.154-6.01h1.326l1.508 4.885h.023l1.508-4.884h1.292l-2.233 6.316c-.51 1.455-1.1 1.923-2.336 1.923-.102 0-.408-.011-.498-.028z"></path>
    </g>
    <g
        clip-path="url(#clip1_1303_3306)"
        transform="translate(22.705 -78.555) scale(1.74641)"
    >
        <path
            fill="#1434cb"
            d="M23.481 47.09l-4.262 9.986h-2.781l-2.098-7.969c-.127-.49-.238-.67-.626-.877-.632-.337-1.676-.653-2.595-.85l.062-.29h4.477c.57 0 1.084.374 1.213 1.019l1.108 5.777 2.738-6.796h2.764zm10.897 6.726c.011-2.636-3.712-2.78-3.686-3.958.008-.358.355-.74 1.116-.837.377-.048 1.415-.085 2.593.447l.463-2.117a7.185 7.185 0 00-2.461-.443c-2.6 0-4.43 1.357-4.446 3.3-.017 1.438 1.306 2.24 2.303 2.718 1.025.49 1.37.803 1.365 1.241-.007.67-.818.965-1.575.977-1.322.02-2.09-.351-2.701-.63l-.477 2.187c.615.277 1.75.519 2.926.53 2.763 0 4.571-1.34 4.58-3.415m6.867 3.26h2.433l-2.124-9.985h-2.246a1.214 1.214 0 00-.674.197c-.2.13-.355.317-.445.535l-3.948 9.253h2.762l.549-1.492h3.375zm-2.936-3.538l1.385-3.75.797 3.75zM27.24 47.09l-2.175 9.985h-2.631l2.176-9.985z"
        ></path>
    </g>
    <defs>
        <clipPath id="clip0_1303_3306">
            <path
                fill="#fff"
                d="M0 0H35.735V23.029H0z"
                transform="translate(9.53 6.41)"
            ></path>
        </clipPath>
        <clipPath id="clip1_1303_3306">
            <path
                fill="#fff"
                d="M0 0H32.559V10.323H0z"
                transform="translate(11.117 46.91)"
            ></path>
        </clipPath>
        <clipPath>
            <path
                fill="#fff"
                d="M0 0H17.471V13.5H0z"
                transform="translate(72.266 45.322)"
            ></path>
        </clipPath>
    </defs>
    <g transform="matrix(.36493 0 0 .36493 1.456 -.1)">
        <path fill="#ff5f00" d="M36.934 7.974H71.594V64.584H36.934z"></path>
        <path
            fill="#eb001b"
            d="M40.504 36.284a35.94 35.94 0 0113.75-28.3 36 36 0 100 56.61 35.94 35.94 0 01-13.75-28.31z"
        ></path>
        <path
            fill="#f79e1b"
            d="M109.064 58.594v-1.16h.5v-.24h-1.19v.24h.47v1.16zm2.31 0v-1.4h-.36l-.42 1-.42-1h-.36v1.4h.26v-1.06l.39.91h.27l.39-.91v1.06z"
        ></path>
        <path
            fill="#f79e1b"
            d="M112.504 36.284a36 36 0 01-58.25 28.3 36 36 0 000-56.61 36 36 0 0158.25 28.3z"
        ></path>
    </g>
</svg>