<svg
    viewBox="0 0 28 28"
    height="28"
    width="28"
    xmlns="http://www.w3.org/2000/svg"
    fill="black"
>
    <defs>
        <clipPath
            id="a68ad0fbca"
        >
            <path
                d="m 604.5,289.5 h 231 v 230.89453 h -231 z m 0,0"
                clip-rule="nonzero"
            />
        </clipPath>
    </defs>
    <g
        fill-opacity="1"
        transform="matrix(0.1042217,0,0,0.1042217,-60.911521,-28.352354)"
        clip-path="url(#a68ad0fbca)"
    >
        <path
            d="m 827.03906,376.67969 -73.00781,-73.01172 c -0.55469,-0.55469 -1.125,-1.09766 -1.71094,-1.62891 -0.58203,-0.52734 -1.17969,-1.03906 -1.78906,-1.53906 -0.60938,-0.5 -1.23047,-0.98047 -1.86328,-1.44922 -0.63281,-0.46875 -1.27735,-0.92187 -1.9336,-1.35937 -0.65234,-0.4375 -1.32031,-0.85547 -1.99609,-1.26172 -0.67578,-0.40235 -1.35937,-0.78907 -2.05469,-1.16016 -0.69531,-0.37109 -1.39843,-0.72266 -2.10937,-1.0625 -0.71485,-0.33203 -1.4336,-0.65234 -2.16016,-0.95312 -0.73047,-0.30079 -1.46094,-0.58204 -2.20703,-0.84766 -0.73828,-0.26563 -1.48437,-0.51172 -2.24219,-0.74219 -0.7539,-0.22656 -1.51172,-0.4375 -2.27343,-0.625 -0.76563,-0.1914 -1.53125,-0.36328 -2.30469,-0.51953 -0.77344,-0.15234 -1.54688,-0.28516 -2.32813,-0.39844 -0.77734,-0.11718 -1.55859,-0.21093 -2.34375,-0.28906 -0.78125,-0.0781 -1.5664,-0.13672 -2.35156,-0.17578 -0.78906,-0.0391 -1.57422,-0.0586 -2.36328,-0.0586 -0.78906,0 -1.57422,0.0195 -2.36328,0.0586 -0.78516,0.0391 -1.57031,0.0977 -2.35156,0.17578 -0.78516,0.0781 -1.56641,0.17188 -2.34375,0.28906 -0.78125,0.11328 -1.55469,0.2461 -2.32813,0.39844 -0.77344,0.15625 -1.53906,0.32813 -2.30469,0.51953 -0.76172,0.1875 -1.51953,0.39844 -2.27734,0.625 -0.75391,0.23047 -1.5,0.47656 -2.23828,0.74219 -0.7461,0.26562 -1.47656,0.54687 -2.20703,0.84766 -0.72657,0.30078 -1.44532,0.62109 -2.16016,0.95312 -0.71094,0.33984 -1.41406,0.69141 -2.10937,1.0625 -0.69532,0.37109 -1.37891,0.75781 -2.05469,1.16016 -0.67969,0.40625 -1.34375,0.82422 -1.9961,1.26172 -0.65625,0.4375 -1.30078,0.89062 -1.93359,1.35937 -0.63281,0.46875 -1.25391,0.94922 -1.86328,1.44922 -0.60938,0.5 -1.20703,1.01172 -1.78906,1.53906 -0.58594,0.53125 -1.15625,1.07422 -1.71094,1.62891 l -73.00781,73.01172 c -1.34375,1.33984 -2.54688,2.79297 -3.60547,4.37109 -1.05469,1.57422 -1.94531,3.23828 -2.67188,4.99219 -0.72656,1.75 -1.27343,3.55859 -1.64062,5.41797 -0.36719,1.85937 -0.54688,3.74218 -0.54297,5.63672 v 94.48828 c 0,0.94531 0.0469,1.89062 0.14062,2.82812 0.0898,0.94141 0.23047,1.87891 0.41407,2.80469 0.18359,0.92578 0.41406,1.84375 0.6875,2.75 0.27734,0.90234 0.59375,1.79297 0.95703,2.66797 0.35937,0.875 0.76562,1.72656 1.21094,2.5625 0.44531,0.83203 0.92968,1.64062 1.45703,2.42578 0.52343,0.78906 1.08593,1.54687 1.6875,2.28125 0.60156,0.72656 1.23437,1.42578 1.90234,2.09375 0.66797,0.67187 1.36719,1.30469 2.10156,1.90625 0.73047,0.59766 1.48828,1.16016 2.27344,1.6875 0.78516,0.52734 1.59766,1.01172 2.43359,1.45703 0.83204,0.44531 1.6875,0.85156 2.5586,1.21094 0.875,0.36328 1.76172,0.67969 2.66797,0.95703 0.90625,0.27344 1.82031,0.50391 2.75,0.6875 0.92578,0.18359 1.86328,0.32422 2.80468,0.41406 0.94141,0.0937 1.88282,0.14063 2.82813,0.14063 h 173.25 c 0.94531,0 1.88672,-0.0469 2.82812,-0.14063 0.94141,-0.0898 1.87891,-0.23047 2.80469,-0.41406 0.92969,-0.18359 1.84375,-0.41406 2.75,-0.6875 0.90625,-0.27734 1.79297,-0.59375 2.66797,-0.95703 0.87109,-0.35938 1.72656,-0.76563 2.55859,-1.21094 0.83594,-0.44531 1.64844,-0.92969 2.4336,-1.45703 0.78515,-0.52734 1.54297,-1.08984 2.27344,-1.6875 0.73437,-0.60156 1.43359,-1.23438 2.10156,-1.90625 0.66797,-0.66797 1.30078,-1.36719 1.90234,-2.09375 0.60156,-0.73438 1.16406,-1.49219 1.6875,-2.28125 0.52344,-0.78516 1.01172,-1.59375 1.45703,-2.42578 0.44532,-0.83594 0.85157,-1.6875 1.21094,-2.5625 0.36328,-0.875 0.67969,-1.76563 0.95703,-2.66797 0.27344,-0.90625 0.50391,-1.82422 0.6875,-2.75 0.1836,-0.92578 0.32422,-1.86328 0.41406,-2.80469 0.0937,-0.9375 0.14063,-1.88281 0.14063,-2.82812 v -94.48828 c 0.004,-1.89454 -0.17578,-3.77735 -0.54297,-5.63672 -0.36719,-1.85938 -0.91406,-3.66797 -1.64062,-5.41797 -0.72657,-1.75391 -1.61719,-3.41797 -2.67188,-4.99219 -1.05859,-1.57812 -2.26172,-3.03125 -3.60547,-4.37109 z M 748.875,501.21094 h -57.75 v -37.86719 c 0,-0.94141 0.0469,-1.88672 0.14062,-2.82813 0.0898,-0.9414 0.23047,-1.875 0.41407,-2.80078 0.18359,-0.92968 0.41406,-1.84375 0.6875,-2.75 0.27734,-0.90625 0.59375,-1.79687 0.95703,-2.66797 0.35937,-0.875 0.76562,-1.73046 1.21094,-2.5625 0.44531,-0.83593 0.92968,-1.64453 1.45703,-2.42968 0.52343,-0.78516 1.08593,-1.54688 1.6875,-2.27735 0.60156,-0.73047 1.23437,-1.42968 1.90234,-2.09765 0.66797,-0.67188 1.36719,-1.30469 2.10156,-1.90235 0.73047,-0.60156 1.48828,-1.16406 2.27344,-1.6875 0.78516,-0.52734 1.59766,-1.01172 2.43359,-1.45703 0.83204,-0.44922 1.6875,-0.85547 2.5586,-1.21484 0.875,-0.35938 1.76172,-0.67969 2.66797,-0.95313 0.90625,-0.27734 1.82031,-0.5039 2.75,-0.6875 0.92578,-0.1875 1.86328,-0.32422 2.80468,-0.41797 0.94141,-0.0937 1.88282,-0.14062 2.82813,-0.14062 0.94531,0 1.88672,0.0469 2.82812,0.14062 0.94141,0.0937 1.87891,0.23047 2.80469,0.41797 0.92969,0.1836 1.84375,0.41016 2.75,0.6875 0.90625,0.27344 1.79297,0.59375 2.66797,0.95313 0.87109,0.35937 1.72656,0.76562 2.55859,1.21484 0.83594,0.44531 1.64844,0.92969 2.4336,1.45703 0.78515,0.52344 1.54297,1.08594 2.27344,1.6875 0.73437,0.59766 1.43359,1.23047 2.10156,1.90235 0.66797,0.66797 1.30078,1.36718 1.90234,2.09765 0.60156,0.73047 1.16406,1.49219 1.6875,2.27735 0.52344,0.78515 1.01172,1.59375 1.45703,2.42968 0.44532,0.83204 0.85157,1.6875 1.21094,2.5625 0.36328,0.8711 0.67969,1.76172 0.95703,2.66797 0.27344,0.90625 0.50391,1.82032 0.6875,2.75 0.1836,0.92578 0.32422,1.85938 0.41406,2.80078 0.0937,0.94141 0.14063,1.88672 0.14063,2.82813 z m 67.375,-9.625 c 0,0.63281 -0.0625,1.25781 -0.18359,1.875 -0.125,0.62109 -0.30469,1.22265 -0.55079,1.80859 -0.24218,0.58203 -0.53515,1.14063 -0.88671,1.66406 -0.35547,0.52344 -0.75,1.00782 -1.19922,1.45703 -0.44532,0.44532 -0.92969,0.84766 -1.45703,1.19922 -0.52735,0.35157 -1.08204,0.64453 -1.66407,0.88672 -0.58203,0.24219 -1.18359,0.42578 -1.80468,0.55078 -0.6211,0.1211 -1.2461,0.1836 -1.87891,0.1836 h -38.5 v -37.86719 c 0,-0.78516 -0.0195,-1.57422 -0.0586,-2.35938 -0.0391,-0.78515 -0.0937,-1.57031 -0.17188,-2.35546 -0.0781,-0.78516 -0.17578,-1.5625 -0.28906,-2.34375 -0.11719,-0.78125 -0.25391,-1.5586 -0.40625,-2.32813 -0.15235,-0.77344 -0.32422,-1.53906 -0.51563,-2.30469 -0.19531,-0.76562 -0.40234,-1.52343 -0.6289,-2.27734 -0.23047,-0.75 -0.47657,-1.5 -0.74219,-2.24219 -0.26563,-0.74219 -0.55078,-1.47656 -0.85156,-2.20312 -0.30078,-0.73047 -0.6211,-1.44922 -0.95703,-2.16016 -0.33594,-0.71484 -0.69141,-1.41406 -1.0586,-2.10937 -0.375,-0.69532 -0.76172,-1.37891 -1.16406,-2.05469 -0.41016,-0.67578 -0.82813,-1.34375 -1.26563,-1.9961 -0.4375,-0.65625 -0.89062,-1.29687 -1.36328,-1.92968 -0.46875,-0.63672 -0.95312,-1.25391 -1.44922,-1.86328 -0.5039,-0.60938 -1.01562,-1.20704 -1.54296,-1.78907 -0.53125,-0.58593 -1.07422,-1.15625 -1.62891,-1.71093 -0.55859,-0.55469 -1.12891,-1.09766 -1.71094,-1.62891 -0.58594,-0.52734 -1.17969,-1.04297 -1.79297,-1.54297 -0.60547,-0.5 -1.22656,-0.98437 -1.85937,-1.45312 -0.63281,-0.46875 -1.27735,-0.92188 -1.9336,-1.36329 -0.65234,-0.4375 -1.32031,-0.85546 -1.99218,-1.26171 -0.67578,-0.40625 -1.36328,-0.79297 -2.05469,-1.16407 -0.69531,-0.37109 -1.39844,-0.72656 -2.11328,-1.0625 -0.71094,-0.33593 -1.42969,-0.65234 -2.15625,-0.95312 -0.73047,-0.30469 -1.46094,-0.58594 -2.20703,-0.85547 -0.74219,-0.26172 -1.48828,-0.51172 -2.24219,-0.73828 -0.75391,-0.23047 -1.51172,-0.4375 -2.27344,-0.62891 -0.76562,-0.19531 -1.53125,-0.36719 -2.30859,-0.51953 -0.76953,-0.15234 -1.54688,-0.28516 -2.32813,-0.40234 -0.77734,-0.11719 -1.55859,-0.21485 -2.33984,-0.29297 -0.78516,-0.0742 -1.57031,-0.13281 -2.35547,-0.17188 -0.78906,-0.0391 -1.57422,-0.0586 -2.36328,-0.0586 -0.78906,0 -1.57422,0.0195 -2.36328,0.0586 -0.78516,0.0391 -1.57031,0.0977 -2.35547,0.17578 -0.78125,0.0742 -1.5625,0.17188 -2.34375,0.28907 -0.77734,0.11718 -1.55469,0.25 -2.32422,0.40234 -0.77734,0.15234 -1.54297,0.32422 -2.30859,0.51953 -0.76172,0.19141 -1.51953,0.39844 -2.27344,0.62891 -0.75391,0.22656 -1.50391,0.47656 -2.24219,0.73828 -0.74609,0.26953 -1.48047,0.55078 -2.20703,0.85547 -0.72656,0.30078 -1.44922,0.61719 -2.15625,0.95312 -0.71484,0.33594 -1.41797,0.69141 -2.11328,1.0625 -0.69141,0.3711 -1.37891,0.75782 -2.05469,1.16407 -0.67578,0.40625 -1.33984,0.82421 -1.99219,1.26171 -0.65625,0.44141 -1.30078,0.89454 -1.93359,1.36329 -0.63281,0.46875 -1.25391,0.95312 -1.86328,1.45312 -0.60938,0.5 -1.20313,1.01563 -1.78906,1.54297 -0.58203,0.53125 -1.15235,1.07422 -1.71094,1.62891 -0.55469,0.55468 -1.09766,1.125 -1.62891,1.71093 -0.52734,0.58203 -1.03906,1.17969 -1.54297,1.78907 -0.49609,0.60937 -0.98046,1.22656 -1.44921,1.86328 -0.47266,0.63281 -0.92579,1.27343 -1.36329,1.92968 -0.4375,0.65235 -0.85546,1.32032 -1.26562,1.9961 -0.40234,0.67578 -0.78906,1.35937 -1.16406,2.05469 -0.36719,0.69531 -0.72266,1.39453 -1.0586,2.10937 -0.33593,0.71094 -0.65625,1.42969 -0.95703,2.16016 -0.30078,0.72656 -0.58594,1.46093 -0.85156,2.20312 -0.26563,0.74219 -0.51172,1.49219 -0.74219,2.24219 -0.22656,0.75391 -0.4375,1.51172 -0.6289,2.27734 -0.19141,0.76563 -0.36329,1.53125 -0.51563,2.30469 -0.15625,0.76953 -0.28906,1.54688 -0.40625,2.32813 -0.11328,0.78125 -0.21094,1.55859 -0.28906,2.34375 -0.0781,0.78515 -0.13281,1.57031 -0.17188,2.35546 -0.0391,0.78516 -0.0586,1.57422 -0.0586,2.35938 v 37.86719 h -38.5 c -0.63281,0 -1.25781,-0.0625 -1.87891,-0.1836 -0.62109,-0.125 -1.22265,-0.30859 -1.80468,-0.55078 -0.58204,-0.24219 -1.13672,-0.53515 -1.66407,-0.88672 -0.52734,-0.35156 -1.01172,-0.7539 -1.45703,-1.19922 -0.44922,-0.44921 -0.84765,-0.93359 -1.19922,-1.45703 -0.35156,-0.52343 -0.64453,-1.08203 -0.89062,-1.66406 -0.24219,-0.58594 -0.42188,-1.1875 -0.54688,-1.80859 -0.12109,-0.61719 -0.18359,-1.24219 -0.18359,-1.875 v -94.48828 c 0.004,-1.27735 0.25,-2.50391 0.73828,-3.6836 0.48828,-1.17578 1.18359,-2.21875 2.08203,-3.12109 l 73.00391,-72.98828 c 0.67187,-0.66407 1.375,-1.29688 2.10547,-1.89844 0.73047,-0.59766 1.49218,-1.15625 2.27734,-1.67969 0.78516,-0.52344 1.59766,-1.00781 2.43359,-1.45312 0.83594,-0.44532 1.6875,-0.84766 2.5625,-1.21094 0.875,-0.35938 1.76172,-0.67578 2.66797,-0.94922 0.90235,-0.27734 1.82032,-0.50391 2.7461,-0.6875 0.92968,-0.18359 1.86328,-0.32031 2.80468,-0.41406 0.94141,-0.0937 1.88282,-0.13672 2.82813,-0.13672 0.94531,0 1.88672,0.043 2.82812,0.13672 0.94141,0.0937 1.875,0.23047 2.80469,0.41406 0.92578,0.18359 1.84375,0.41016 2.7461,0.6875 0.90625,0.27344 1.79296,0.58984 2.66796,0.94922 0.875,0.36328 1.72657,0.76562 2.5625,1.21094 0.83594,0.44531 1.64844,0.92968 2.4336,1.45312 0.78515,0.52344 1.54687,1.08203 2.27734,1.67969 0.73047,0.60156 1.4336,1.23437 2.10547,1.89844 l 73.00391,73.01562 c 0.89453,0.90235 1.58593,1.94141 2.07812,3.11328 0.48438,1.17188 0.73438,2.39063 0.74219,3.66407 z m 0,0"
            fill-rule="nonzero"
        />
    </g>
</svg>