<svg
    width="426"
    height="207"
    viewBox="0 0 426 207"
    fill="none"
    xmlns="http://www.w3.org/2000/svg"
>
    <path
        d="M16.5421 180.14L15.8121 185.7C15.4821 188.44 17.6421 190.85 20.4421 190.85H201.282C204.092 190.85 206.252 188.44 205.932 185.7L205.182 180.14C204.732 175.81 207.892 171.85 212.212 171.4C216.562 170.93 220.402 174.1 220.852 178.42L221.552 183.83C222.962 195.92 216.102 206.54 203.882 206.54H17.8521C5.63214 206.54 -1.22786 195.93 0.182144 183.83L0.882141 178.42C1.34214 174.1 5.17214 170.93 9.50214 171.4C13.8321 171.86 16.9821 175.81 16.5421 180.14Z"
        fill="#D60510"
    />
    <path
        d="M183.712 138.22C192.512 138.24 199.522 131.83 199.342 123.39C199.162 114.75 191.302 109.17 182.532 109.16H164.832C160.912 109.16 157.692 105.9 157.692 101.82C157.692 97.73 160.902 94.46 164.832 94.46H176.662C184.632 94.14 190.782 89.31 191.162 81.77C191.562 73.7 184.622 67.64 176.132 67.64H147.432L147.312 138.23H183.712V138.22ZM205.472 81.72C205.472 89.08 202.862 93.25 198.542 98.38L198.112 98.9L198.712 99.27C207.262 104.48 213.232 112.36 213.672 123.42C214.332 139.9 200.372 153.53 183.792 153.5H140.092C135.842 153.5 132.402 149.96 132.402 145.61V60.85C132.402 56.48 135.842 52.96 140.072 52.96L176.152 53.06C191.882 53.07 205.472 64.63 205.472 81.72Z"
        fill="black"
    />
    <path
        d="M64.6221 124.44L64.8221 125.04L65.0421 124.44C67.0721 118.86 69.5121 112.68 72.1021 105.94C74.7721 98.85 77.4321 92.07 80.0921 85.61C82.7821 79.05 85.3221 73.2001 87.7521 68.1001C90.1721 62.8901 92.1821 59.3101 93.7321 57.3501C96.1221 54.4901 99.2821 53.05 103.212 53.05H105.022C107.432 53.05 109.312 53.6801 110.722 54.8801C112.012 56.0101 112.782 57.31 113.002 58.8L124.292 146.38C124.292 148.64 123.642 150.38 122.362 151.68C121.082 152.89 119.252 153.49 116.862 153.49C114.472 153.49 112.572 152.92 111.182 151.81C109.642 150.7 108.762 149.24 108.542 147.43C108.162 144.52 107.812 141.28 107.462 137.73C106.962 134.19 105.202 118.91 104.702 115.06C104.242 111.09 101.062 86.35 99.9821 77.36L99.8821 76.6001L96.2621 84.19C95.0321 86.8 93.7021 89.9401 92.2421 93.5901C90.8021 97.2401 89.3221 101.1 87.8721 105.17C86.2921 109.12 79.3021 129.1 79.3021 129.1C78.6521 130.91 77.4221 134.56 76.3121 137.92C75.1821 141.26 74.1521 144.28 73.8721 144.86C72.2121 148.16 68.9721 150.34 64.8521 150.37C60.6821 150.35 57.4421 148.16 55.8021 144.86C55.5021 144.28 54.4721 141.25 53.3421 137.92C52.2121 134.56 51.0121 130.91 50.3321 129.1C50.3321 129.1 43.3421 109.12 41.7821 105.17C40.3221 101.1 38.8621 97.2501 37.4021 93.5901C35.9421 89.9401 34.6121 86.8 33.4121 84.19L29.7721 76.6001L29.6921 77.36C28.5921 86.35 25.4421 111.09 24.9621 115.06C24.4621 118.91 22.7021 134.19 22.2221 137.73C21.8521 141.28 21.4921 144.52 21.1121 147.43C20.8921 149.24 20.0121 150.7 18.4921 151.81C17.0821 152.92 15.1921 153.49 12.7921 153.49C10.4021 153.49 8.59207 152.89 7.31207 151.68C6.03207 150.38 5.38207 148.62 5.37207 146.38L16.6621 58.8C16.9121 57.31 17.6621 56.0101 18.9521 54.8801C20.3521 53.6801 22.2621 53.05 24.6321 53.05H26.4621C30.4021 53.05 33.5521 54.5001 35.9321 57.3501C37.4921 59.3101 39.4821 62.8801 41.9121 68.1001C44.3521 73.2001 46.8921 79.05 49.5721 85.61C52.2321 92.07 54.9021 98.85 57.5821 105.94C60.1521 112.68 62.5921 118.86 64.6221 124.44Z"
        fill="black"
    />
    <path
        d="M42.4622 0H179.822C192.762 0 199.202 9.72 200.712 22.53L201.292 26.63C201.752 31.03 198.522 34.97 194.202 35.43C189.872 35.89 185.982 32.71 185.532 28.31L184.982 24.39C184.402 19.52 182.342 15.77 177.392 15.77H44.8922C39.9422 15.77 37.8822 19.52 37.3022 24.39L36.7722 28.31C36.3222 32.71 32.4422 35.9 28.0822 35.43C23.7522 34.97 20.5222 31.03 20.9922 26.63L21.5722 22.53C23.1022 9.71 29.5322 0 42.4622 0Z"
        fill="#D60510"
    />
    <path
        d="M289.532 92.3C288.582 95.97 287.602 99.89 286.572 104.06C285.542 108.21 284.512 112.2 283.502 116C282.502 119.8 281.562 123.12 280.642 126C279.742 128.87 278.982 130.83 278.382 131.89C277.322 133.77 275.442 134.7 272.772 134.7C272.022 134.7 271.062 134.55 269.852 134.24C268.652 133.94 267.662 133.09 266.842 131.7C266.242 130.64 265.492 128.58 264.582 125.5C263.682 122.43 262.742 118.91 261.722 114.9C260.722 110.9 259.732 106.66 258.712 102.19C257.712 97.72 256.802 93.59 256.002 89.73C255.202 85.91 254.522 82.62 253.992 79.93C253.462 77.22 253.162 75.63 253.092 75.08C253.022 74.75 252.992 74.52 252.992 74.38V73.98C252.992 72.85 253.412 71.92 254.292 71.22C255.152 70.52 256.232 70.17 257.502 70.17C258.712 70.17 259.682 70.44 260.422 70.93C261.152 71.41 261.682 72.31 262.012 73.57C262.012 73.7 262.212 74.68 262.562 76.48C262.942 78.27 263.412 80.58 263.972 83.37C264.552 86.18 265.182 89.3 265.882 92.77C266.582 96.24 267.312 99.76 268.092 103.33C268.852 106.88 269.632 110.32 270.402 113.68C271.162 117 271.882 119.88 272.562 122.27C273.222 120.01 273.952 117.42 274.772 114.51C275.572 111.62 276.382 108.61 277.182 105.53C277.982 102.42 278.742 99.33 279.492 96.23C280.222 93.12 280.902 90.24 281.552 87.58C282.182 84.91 282.732 82.55 283.192 80.49C283.652 78.41 284.022 76.88 284.302 75.87C284.632 74.61 285.262 73.61 286.192 72.88C287.152 72.15 288.272 71.77 289.612 71.77C291.072 71.77 292.282 72.17 293.232 72.93C294.142 73.7 294.762 74.69 295.022 75.87C295.772 79.14 296.562 82.8 297.432 86.83C298.292 90.85 299.212 94.94 300.142 99.07C301.092 103.2 302.072 107.26 303.052 111.23C304.062 115.2 305.032 118.72 305.972 121.78C306.632 119.39 307.362 116.51 308.132 113.19C308.892 109.83 309.672 106.41 310.472 102.88C311.282 99.36 312.052 95.85 312.782 92.38C313.532 88.92 314.192 85.8 314.812 83.03C315.412 80.27 315.892 78.01 316.262 76.29C316.632 74.55 316.812 73.65 316.812 73.58C317.142 72.32 317.672 71.42 318.422 70.94C319.152 70.44 320.132 70.18 321.332 70.18C322.592 70.18 323.672 70.53 324.532 71.23C325.412 71.93 325.842 72.86 325.842 73.99V74.39C325.842 74.52 325.812 74.76 325.742 75.09C325.692 75.64 325.362 77.23 324.782 79.94C324.232 82.63 323.542 85.92 322.742 89.74C321.932 93.59 321.032 97.71 320.022 102.15C319.042 106.58 318.042 110.8 317.082 114.79C316.102 118.79 315.172 122.32 314.262 125.35C313.362 128.37 312.602 130.43 312.002 131.49C311.202 132.89 310.192 133.78 308.952 134.15C307.702 134.52 306.722 134.7 305.992 134.7C305.712 134.7 305.332 134.67 304.782 134.6C304.252 134.52 303.682 134.4 303.072 134.19C302.472 134 301.872 133.68 301.282 133.25C300.662 132.8 300.202 132.22 299.872 131.49C299.272 130.23 298.542 128.12 297.712 125.2C296.882 122.26 295.972 118.96 295.002 115.25C294.042 111.54 293.072 107.68 292.142 103.64C291.202 99.61 290.322 95.82 289.532 92.3Z"
        fill="black"
    />
    <path
        d="M342.012 116.2C341.002 119.41 340.122 122.36 339.352 125.09C338.572 127.82 337.862 130.07 337.192 131.8C336.442 133.74 334.982 134.71 332.772 134.71C331.232 134.71 330.112 134.33 329.402 133.56C328.702 132.78 328.352 131.8 328.352 130.6C328.352 130.14 328.422 129.7 328.552 129.29C328.682 128.91 329.102 127.53 329.812 125.2C330.512 122.88 331.422 119.97 332.572 116.5C333.702 113.03 334.962 109.23 336.322 105.11C337.702 100.98 339.112 96.8899 340.592 92.8499C342.052 88.8099 343.502 85.04 344.912 81.56C346.312 78.06 347.622 75.2299 348.812 73.1099C349.362 71.9799 350.072 71.1999 350.972 70.7999C351.882 70.3999 353.102 70.2 354.652 70.2C356.132 70.2 357.372 70.4499 358.402 70.8999C359.452 71.3799 360.162 72.18 360.562 73.31C361.512 75.3 362.642 77.9899 363.932 81.3499C365.232 84.7199 366.612 88.3599 368.032 92.2599C369.482 96.1599 370.892 100.15 372.302 104.2C373.712 108.27 375.012 112.06 376.172 115.56C377.332 119.05 378.352 122.04 379.182 124.51C380.012 126.98 380.542 128.58 380.742 129.29C380.862 129.71 380.942 130.14 380.942 130.6C380.942 131.8 380.542 132.78 379.732 133.56C378.932 134.32 377.752 134.71 376.222 134.71C375.082 134.71 374.232 134.46 373.652 133.94C373.102 133.46 372.642 132.73 372.302 131.8C371.642 130.07 370.842 127.82 369.942 125.09C369.042 122.37 368.082 119.41 367.082 116.2H342.012V116.2ZM364.292 107.49C362.882 103.16 361.552 99.1699 360.272 95.5499C358.992 91.9099 357.702 88.4599 356.352 85.1899C356.022 84.4599 355.672 83.6299 355.302 82.6299C354.932 81.6799 354.722 81.0999 354.652 80.8999C354.582 80.9499 354.352 81.5099 354.002 82.5399C353.622 83.5699 353.272 84.4499 352.942 85.1799C351.612 88.4499 350.312 91.9099 349.062 95.5399C347.832 99.1599 346.502 103.15 345.112 107.48H364.292V107.49Z"
        fill="black"
    />
    <path
        d="M398.302 109.49C397.972 109.17 397.652 108.79 397.352 108.39C397.042 108.01 396.722 107.53 396.392 107C395.442 105.67 394.452 104.06 393.332 102.15C392.222 100.26 391.122 98.2299 390.012 96.1099C388.912 93.9699 387.852 91.8099 386.822 89.6499C385.772 87.4899 384.832 85.4799 384.012 83.6199C383.162 81.7399 382.452 80.1199 381.852 78.7699C381.232 77.3899 380.852 76.4299 380.742 75.8999C380.612 75.5699 380.532 75.3199 380.492 75.1499C380.472 74.9799 380.442 74.7299 380.442 74.3999C380.442 73.1999 380.862 72.1899 381.692 71.4099C382.542 70.5999 383.682 70.2 385.162 70.2C386.492 70.2 387.442 70.53 388.022 71.2C388.582 71.88 389.022 72.5499 389.272 73.2099C389.402 73.5599 389.732 74.2699 390.232 75.3999C390.732 76.5499 391.342 77.9399 392.072 79.5999C392.802 81.2599 393.652 83.0999 394.582 85.0999C395.542 87.1099 396.472 89.0699 397.452 91.0099C398.412 92.9399 399.362 94.78 400.262 96.56C401.162 98.32 402.022 99.7699 402.822 100.91C404.102 98.9699 405.462 96.5399 406.942 93.5999C408.402 90.6599 409.812 87.7699 411.142 84.9099C412.482 82.0399 413.632 79.4999 414.612 77.2999C415.572 75.0899 416.152 73.73 416.372 73.2C416.642 72.54 417.052 71.8699 417.622 71.1899C418.182 70.5299 419.152 70.1899 420.482 70.1899C421.962 70.1899 423.102 70.5899 423.952 71.3999C424.782 72.1799 425.202 73.1899 425.202 74.3899C425.202 74.7199 425.182 74.9699 425.152 75.1399C425.122 75.3099 425.032 75.5599 424.922 75.8899C424.712 76.4199 424.322 77.3799 423.762 78.7999C423.202 80.1899 422.482 81.84 421.642 83.7C420.812 85.56 419.882 87.5899 418.852 89.7499C417.802 91.9299 416.742 94.0699 415.642 96.2099C414.532 98.3299 413.432 100.38 412.322 102.31C411.222 104.24 410.192 105.88 409.262 107.21C408.662 108.07 408.012 108.85 407.352 109.5V130.21C407.352 131.54 406.942 132.62 406.092 133.47C405.262 134.28 404.182 134.72 402.832 134.72C401.482 134.72 400.412 134.29 399.572 133.47C398.722 132.62 398.312 131.54 398.312 130.21V109.49H398.302Z"
        fill="black"
    />
</svg>