<svg
    width="452"
    height="62"
    viewBox="0 0 452 62"
    fill="none"
    xmlns="http://www.w3.org/2000/svg"
>
    <g clip-path="url(#clip0_1129_3028)">
    <g clip-path="url(#clip1_1129_3028)">
        <path
        d="M199.978 15.7795C199.485 16.2321 198.986 16.6797 198.499 17.1401C196.774 18.7707 195.478 20.6696 195.022 23.0348C194.694 24.5886 194.705 26.1951 195.055 27.7443C195.405 29.2935 196.085 30.7488 197.05 32.0106C198.043 33.3579 199.229 34.4765 200.806 35.1194C200.99 35.1943 201.177 35.261 201.404 35.3472C201.199 35.9059 201.017 36.4559 200.796 36.9899C199.511 40.1036 197.84 42.9835 195.561 45.4827C195.129 45.945 194.663 46.3742 194.167 46.7665C192.501 48.1144 190.635 48.6333 188.532 48.0205C187.483 47.7147 186.444 47.3706 185.4 47.0476C184.334 46.6866 183.223 46.4755 182.098 46.4205C180.693 46.387 179.391 46.8083 178.094 47.2864C177.116 47.6732 176.115 48.0013 175.097 48.2687C173.493 48.6499 172.043 48.1555 170.711 47.255C169.369 46.3467 168.307 45.1544 167.388 43.8415C165.073 40.5847 163.336 36.9545 162.251 33.1093C161.277 29.6981 161.042 26.1181 161.563 22.6089C162.038 19.4809 163.204 16.6588 165.406 14.3265C167.687 11.9104 170.494 10.9175 173.786 11.2438C175.425 11.4062 176.991 11.8814 178.562 12.3384C179.217 12.5289 179.885 12.6721 180.547 12.8398C181.474 13.0492 182.44 13.0016 183.342 12.7024C184.632 12.3239 185.907 11.8948 187.195 11.5121C189.083 10.9216 191.087 10.8017 193.031 11.163C195.589 11.6582 197.609 13.0354 199.302 14.9572C199.514 15.1983 199.722 15.4433 199.93 15.6876C199.949 15.7165 199.965 15.7473 199.978 15.7795V15.7795Z"
        fill="#13130A" />
        <path
        d="M190.364 0.0292969C190.418 0.565129 190.441 1.10362 190.434 1.64212C190.258 4.40697 189.094 7.01638 187.153 8.99388C186.266 9.92415 185.289 10.7411 184.078 11.2192C183.048 11.6258 181.953 11.7139 180.861 11.7936C180.844 11.7948 180.826 11.7762 180.809 11.7667C180.96 5.41512 184.167 1.30645 190.364 0.0292969Z"
        fill="#13130A" />
        <path
        d="M213.631 7.5806C216.964 7.03988 220.336 6.77739 223.712 6.79583C228.904 6.79583 232.707 8.00312 235.122 10.1764C237.356 12.1082 238.684 15.0662 238.684 18.6883C238.684 22.3709 237.597 25.2684 235.545 27.3815C232.767 30.3395 228.24 31.8486 223.109 31.8486C221.539 31.8486 220.09 31.7883 218.883 31.4863V47.7859H213.631V7.5806ZM218.883 27.2002C220.03 27.5022 221.479 27.6227 223.229 27.6227C229.568 27.6227 233.432 24.5442 233.432 18.9298C233.432 13.557 229.628 10.9612 223.833 10.9612C221.539 10.9612 219.788 11.1422 218.883 11.3837V27.2002Z"
        fill="#13130A" />
        <path
        d="M257.637 47.7857L257.214 44.1031H257.033C255.403 46.3971 252.264 48.4497 248.099 48.4497C242.183 48.4497 239.164 44.2843 239.164 40.0585C239.164 32.9954 245.442 29.1318 256.731 29.1923V28.5885C256.731 26.1738 256.067 21.8272 250.091 21.8272C247.374 21.8272 244.537 22.6724 242.484 24.0005L241.277 20.4991C243.692 18.9296 247.193 17.9033 250.876 17.9033C259.81 17.9033 261.983 24.0004 261.983 29.8563V40.783C261.983 43.3183 262.104 45.7936 262.466 47.7856L257.637 47.7857ZM256.852 32.8746C251.057 32.7539 244.477 33.7801 244.477 39.4548C244.477 42.8958 246.77 44.5258 249.487 44.5258C253.29 44.5258 255.705 42.111 256.55 39.636C256.738 39.0917 256.84 38.5214 256.852 37.9457V32.8746Z"
        fill="#13130A" />
        <path
        d="M269.038 18.5674L275.436 35.8327C276.1 37.7645 276.825 40.0585 277.308 41.8093H277.428C277.972 40.0585 278.576 37.825 279.3 35.712L285.095 18.5674H290.71L282.741 39.3945C278.938 49.4157 276.342 54.547 272.72 57.6861C270.124 59.9802 267.528 60.8857 266.2 61.1272L264.872 56.6599C266.573 56.0988 268.15 55.2177 269.52 54.064C271.449 52.4662 272.979 50.4405 273.988 48.1479C274.229 47.6047 274.41 47.1819 274.41 46.8802C274.41 46.5784 274.289 46.1557 274.048 45.4916L263.242 18.5674H269.038Z"
        fill="#13130A" />
    </g>
    </g>
    <g clip-path="url(#clip2_1129_3028)">
    <g clip-path="url(#clip3_1129_3028)">
        <path
        d="M383.788 12.7721V25.7456H391.789C392.668 25.7715 393.542 25.6141 394.356 25.2834C395.17 24.9527 395.907 24.4559 396.518 23.8248C397.126 23.2348 397.609 22.5288 397.939 21.7486C398.269 20.9685 398.439 20.13 398.439 19.2829C398.439 18.4359 398.269 17.5974 397.939 16.8173C397.609 16.0371 397.126 15.3311 396.518 14.7411C395.914 14.0965 395.18 13.5875 394.365 13.2476C393.55 12.9076 392.672 12.7445 391.789 12.7691H383.788V12.7721ZM383.788 30.3132V45.3626H379.01V8.20467H391.687C393.199 8.17295 394.703 8.44097 396.111 8.99326C397.519 9.54555 398.804 10.3712 399.891 11.4225C400.99 12.4075 401.864 13.6165 402.456 14.968C403.048 16.3194 403.344 17.7821 403.323 19.2574C403.355 20.742 403.064 22.2159 402.472 23.5776C401.879 24.9392 400.999 26.1564 399.891 27.1451C397.675 29.2567 394.941 30.3117 391.687 30.3102H383.788V30.3132Z"
        fill="#5F6368" />
        <path
        d="M408.15 37.5768C408.146 38.185 408.288 38.7851 408.564 39.3271C408.84 39.8691 409.242 40.3372 409.735 40.6922C410.793 41.5219 412.105 41.9614 413.45 41.9366C415.466 41.9334 417.398 41.1311 418.824 39.7056C419.567 39.0502 420.162 38.2442 420.57 37.3411C420.978 36.438 421.188 35.4585 421.188 34.4677C419.699 33.2887 417.621 32.7002 414.955 32.7022C413.015 32.7022 411.397 33.1697 410.098 34.1046C408.801 35.0386 408.15 36.1929 408.15 37.5768M414.334 19.1035C417.868 19.1035 420.657 20.0462 422.7 21.9317C424.745 23.8184 425.765 26.4042 425.762 29.6891V45.3623H421.192V41.8342H420.984C419.01 44.7386 416.379 46.1907 413.09 46.1906C410.285 46.1906 407.938 45.3611 406.049 43.7021C405.143 42.94 404.418 41.9851 403.928 40.9072C403.438 39.8292 403.195 38.6554 403.216 37.4714C403.216 34.8432 404.211 32.7513 406.201 31.1956C408.193 29.6395 410.851 28.8607 414.176 28.8592C417.015 28.8592 419.353 29.3779 421.188 30.4151V29.3244C421.194 28.5174 421.02 27.7192 420.679 26.9878C420.338 26.2565 419.837 25.6105 419.215 25.0967C417.948 23.9557 416.297 23.3351 414.592 23.3591C411.923 23.3591 409.811 24.4839 408.255 26.7335L404.045 24.0851C406.369 20.7635 409.799 19.103 414.334 19.1035"
        fill="#5F6368" />
        <path
        d="M452 19.9336L436.047 56.5702H431.114L437.037 43.7519L426.543 19.9336H431.74L439.324 38.2009H439.426L446.802 19.9336H452Z"
        fill="#5F6368" />
        <path
        d="M364.478 27.0692C364.48 25.6138 364.356 24.1609 364.11 22.7266H343.953V30.9494H355.498C355.262 32.2632 354.762 33.5155 354.028 34.6306C353.294 35.7458 352.342 36.7007 351.23 37.4377V42.7778H358.12C362.154 39.0605 364.478 33.5652 364.478 27.0692"
        fill="#434343" />
        <path
        d="M343.953 47.9343C349.721 47.9343 354.577 46.0415 358.119 42.7772L351.229 37.4372C349.312 38.7279 346.841 39.482 343.953 39.482C338.378 39.482 333.646 35.7274 331.954 30.668H324.855V36.1679C326.636 39.7059 329.365 42.6795 332.737 44.7571C336.109 46.8348 339.992 47.9347 343.953 47.9343"
        fill="#888888" />
        <path
        d="M331.952 30.6674C331.059 28.0163 331.059 25.1454 331.952 22.4943V16.9941H324.854C323.358 19.9682 322.578 23.2514 322.578 26.5808C322.578 29.9102 323.358 33.1933 324.854 36.1674L331.952 30.6674Z"
        fill="#A5A5A5" />
        <path
        d="M343.953 13.6829C347 13.6323 349.946 14.7825 352.152 16.8851V16.8882L358.253 10.7939C354.383 7.163 349.259 5.1699 343.953 5.23187C339.992 5.23085 336.109 6.33021 332.737 8.40731C329.365 10.4844 326.636 13.4575 324.855 16.995L331.954 22.4952C333.646 17.4358 338.378 13.6829 343.953 13.6829Z"
        fill="#5E5E5E" />
    </g>
    </g>
    <g clip-path="url(#clip4_1129_3028)">
    <g clip-path="url(#clip5_1129_3028)">
        <path
        d="M6.84748 53.3491L6.63141 54.9948C6.60932 55.1873 6.62838 55.3824 6.68731 55.567C6.74625 55.7516 6.84372 55.9216 6.97328 56.0657C7.10284 56.2098 7.26153 56.3247 7.43885 56.4029C7.61617 56.4811 7.80807 56.5207 8.00185 56.5192H61.5287C61.7228 56.5208 61.915 56.4814 62.0927 56.4033C62.2704 56.3253 62.4295 56.2104 62.5596 56.0664C62.6896 55.9223 62.7877 55.7524 62.8472 55.5676C62.9068 55.3829 62.9265 55.1877 62.9051 54.9948L62.6831 53.3491C62.6193 52.7308 62.8021 52.1122 63.1917 51.6279C63.5813 51.1435 64.1463 50.8324 64.7639 50.7621C65.0684 50.7296 65.3764 50.7577 65.67 50.8447C65.9637 50.9316 66.2372 51.0758 66.4749 51.269C66.7126 51.4621 66.9097 51.7003 67.055 51.9699C67.2002 52.2396 67.2907 52.5353 67.3212 52.84L67.5284 54.4413C67.9458 58.0198 65.9153 61.1632 62.2983 61.1632H7.23523C3.61823 61.1632 1.58774 58.0228 2.00508 54.4413L2.21228 52.84C2.24275 52.5358 2.33301 52.2406 2.47786 51.9714C2.62271 51.7021 2.81931 51.4641 3.05638 51.2711C3.29344 51.078 3.5663 50.9337 3.85929 50.8463C4.15228 50.759 4.45964 50.7304 4.76371 50.7621C5.38145 50.8327 5.94653 51.1437 6.33656 51.6279C6.72658 52.1122 6.91015 52.7305 6.84748 53.3491"
        fill="#616161" />
        <path
        d="M56.3281 40.9422C58.9328 40.9481 61.0077 39.0508 60.9544 36.5526C60.9012 33.9953 58.5747 32.3437 55.9789 32.3407H50.7398C50.1738 32.3243 49.6364 32.0879 49.2418 31.6817C48.8472 31.2755 48.6265 30.7315 48.6265 30.1652C48.6265 29.5989 48.8472 29.0549 49.2418 28.6487C49.6364 28.2425 50.1738 28.0061 50.7398 27.9896H54.2414C56.6004 27.8949 58.4208 26.4653 58.5332 24.2335C58.6516 21.8449 56.5975 20.0512 54.0845 20.0512H45.5896L45.5541 40.9451H56.3281V40.9422ZM62.7689 24.2187C62.7689 26.3972 61.9963 27.6315 60.7177 29.1499L60.5904 29.3038L60.768 29.4134C63.2987 30.9555 65.0658 33.2879 65.196 36.5615C65.3913 41.4394 61.2593 45.4738 56.3518 45.4649H43.417C42.8056 45.4567 42.2224 45.2062 41.7956 44.7683C41.3688 44.3304 41.1333 43.741 41.1409 43.1295V18.0414C41.1365 17.739 41.1918 17.4387 41.3035 17.1576C41.4152 16.8765 41.5813 16.6202 41.7921 16.4033C42.0029 16.1865 42.2544 16.0133 42.5322 15.8936C42.81 15.774 43.1087 15.7102 43.4111 15.7061L54.0904 15.7357C58.7464 15.7386 62.7689 19.1603 62.7689 24.2187"
        fill="black" />
        <path
        d="M21.079 36.8624L21.1381 37.04L21.2033 36.8624C21.8041 35.2108 22.5263 33.3816 23.293 31.3866C24.0833 29.288 24.8716 27.2822 25.6579 25.3691C26.4541 23.4274 27.2099 21.6998 27.9252 20.1863C28.4033 19.0672 28.9965 18.0008 29.6952 17.0044C30.0337 16.591 30.463 16.2611 30.9496 16.0404C31.4362 15.8197 31.9672 15.714 32.5012 15.7317H33.037C33.6465 15.7011 34.2463 15.8936 34.7241 16.2733C35.0832 16.5647 35.3232 16.9774 35.399 17.4336L38.7407 43.3564C38.7561 43.6429 38.7135 43.9296 38.6153 44.1992C38.5172 44.4688 38.3655 44.7157 38.1694 44.9252C37.7172 45.3089 37.1332 45.5011 36.5415 45.4609C35.9407 45.4926 35.3472 45.3171 34.8603 44.9637C34.6442 44.8167 34.4626 44.6247 34.3277 44.4009C34.1928 44.1772 34.1079 43.9269 34.0788 43.6672C33.9664 42.8059 33.8628 41.8469 33.7592 40.7961C33.6112 39.7483 33.0902 35.2256 32.9422 34.086C32.8061 32.9109 31.8648 25.5881 31.5452 22.9272L31.5156 22.7022L30.4441 24.9488C30.08 25.7213 29.6863 26.6508 29.2542 27.7311C28.828 28.8115 28.3899 29.954 27.9607 31.1587C27.4931 32.3278 25.4241 38.2417 25.4241 38.2417C25.2317 38.7775 24.8676 39.8578 24.5391 40.8524C24.2046 41.841 23.8997 42.7349 23.8169 42.9065C23.5639 43.3978 23.1805 43.8099 22.7088 44.0975C22.237 44.3852 21.6951 44.5374 21.1426 44.5374C20.59 44.5374 20.0482 44.3852 19.5764 44.0975C19.1047 43.8099 18.7213 43.3978 18.4683 42.9065C18.3795 42.7349 18.0747 41.838 17.7402 40.8524C17.4057 39.8578 17.0505 38.7775 16.8493 38.2417C16.8493 38.2417 14.7803 32.3278 14.3185 31.1587C13.8864 29.954 13.4542 28.8144 13.0221 27.7311C12.59 26.6508 12.1963 25.7233 11.8411 24.9488L10.7637 22.7022L10.74 22.9272C10.4144 25.5881 9.48206 32.9109 9.33998 34.086C9.19199 35.2256 8.67104 39.7483 8.52897 40.7961C8.41945 41.8469 8.3129 42.8059 8.20042 43.6672C8.17126 43.9262 8.08695 44.1759 7.95318 44.3995C7.81942 44.6231 7.63929 44.8155 7.42492 44.9637C6.93556 45.3167 6.34037 45.4921 5.73778 45.4609C5.14787 45.5012 4.56565 45.3089 4.11575 44.9252C3.92025 44.7152 3.76874 44.4683 3.67012 44.1988C3.57151 43.9294 3.52779 43.643 3.54153 43.3564L6.88326 17.4336C6.96387 16.9785 7.20422 16.5671 7.56108 16.2733C8.03732 15.895 8.63477 15.7025 9.2423 15.7317H9.78397C10.3176 15.7141 10.8481 15.8198 11.3342 16.0405C11.8203 16.2612 12.249 16.5911 12.587 17.0044C13.0487 17.5846 13.6378 18.6413 14.357 20.1863C15.0792 21.6959 15.835 23.4235 16.6243 25.3691C17.4116 27.2812 18.2019 29.287 18.9952 31.3866C19.7559 33.3816 20.4781 35.2108 21.079 36.8624Z"
        fill="black" />
        <path
        d="M14.52 0.0292969H55.1772C59.0073 0.0292969 60.9135 2.90632 61.3605 6.69796L61.5321 7.91151C61.5958 8.53454 61.4112 9.15754 61.0182 9.64523C60.6253 10.1329 60.0559 10.4459 59.4336 10.5162C59.1265 10.5472 58.8164 10.5171 58.5211 10.4278C58.2257 10.3385 57.9509 10.1917 57.7124 9.99591C57.4739 9.80007 57.2765 9.55904 57.1315 9.28667C56.9865 9.0143 56.8967 8.71595 56.8673 8.40878L56.7045 7.2485C56.5329 5.80702 55.9231 4.69706 54.458 4.69706H15.2393C13.7741 4.69706 13.1644 5.80702 12.9927 7.2485L12.8358 8.40878C12.8067 8.71659 12.7169 9.01557 12.5715 9.28846C12.4262 9.56136 12.2282 9.80275 11.9891 9.9987C11.7499 10.1947 11.4743 10.3413 11.1781 10.4301C10.882 10.5189 10.5712 10.5482 10.2637 10.5162C9.64089 10.447 9.07077 10.1343 8.67764 9.64631C8.28451 9.15836 8.10027 8.53476 8.16509 7.91151L8.33676 6.69796C8.78963 2.90336 10.6928 0.0292969 14.52 0.0292969"
        fill="#616161" />
        <path
        d="M87.65 27.3493C87.3688 28.4356 87.0768 29.5959 86.7739 30.8302C86.469 32.0585 86.1641 33.2395 85.8652 34.3643C85.5692 35.4891 85.2909 36.4718 85.0186 37.3242C84.8494 37.9246 84.6255 38.5081 84.3497 39.0676C84.0359 39.624 83.4795 39.8993 82.6892 39.8993C82.3966 39.889 82.1064 39.8433 81.8249 39.7632C81.633 39.7052 81.455 39.6085 81.3018 39.4793C81.1486 39.35 81.0234 39.1907 80.934 39.0113C80.6528 38.4225 80.4288 37.8079 80.265 37.1762C79.9986 36.2675 79.7204 35.2256 79.4185 34.0387C79.1225 32.8548 78.8295 31.5998 78.5276 30.2767C78.2316 28.9536 77.9622 27.7312 77.7254 26.5886C77.4886 25.458 77.2874 24.4841 77.1305 23.6879C76.9736 22.8858 76.8848 22.4152 76.8641 22.2524C76.8478 22.1844 76.8378 22.115 76.8345 22.0452V21.9268C76.8294 21.7699 76.8617 21.614 76.9286 21.472C76.9955 21.33 77.0951 21.2059 77.2193 21.1099C77.4896 20.8978 77.826 20.7878 78.1694 20.7991C78.4734 20.787 78.7742 20.8653 79.0337 21.024C79.2809 21.2181 79.4484 21.4961 79.5043 21.8054C79.5043 21.8439 79.5635 22.134 79.6671 22.6668C79.7796 23.1966 79.9187 23.8803 80.0845 24.7061C80.2561 25.5379 80.4426 26.4614 80.6498 27.4884C80.857 28.5155 81.0731 29.5574 81.304 30.6141C81.5289 31.6649 81.7598 32.6831 81.9877 33.6776C82.2126 34.6603 82.4258 35.5127 82.627 36.2202C82.8224 35.5512 83.0385 34.7846 83.2812 33.9233C83.518 33.0679 83.7577 32.1769 83.9945 31.2653C84.2313 30.3448 84.4562 29.4301 84.6782 28.5126C84.8943 27.592 85.0956 26.7396 85.288 25.9523C85.4745 25.162 85.6363 24.4624 85.7734 23.8537C85.9096 23.238 86.0191 22.7852 86.102 22.4862C86.1811 22.1323 86.3816 21.8172 86.6686 21.5956C86.9557 21.3739 87.3112 21.2597 87.6737 21.2727C88.0598 21.2594 88.4386 21.3808 88.7451 21.616C89.0139 21.8388 89.2004 22.1451 89.275 22.4862C89.497 23.4541 89.7308 24.5374 89.9883 25.7303C90.2429 26.9201 90.5152 28.1307 90.7904 29.3532C91.0716 30.5756 91.3617 31.7773 91.6518 32.9524C91.9507 34.1275 92.2388 35.1684 92.5161 36.0751C92.7114 35.3677 92.9275 34.5153 93.1554 33.5326C93.3804 32.538 93.6112 31.5258 93.848 30.4809C94.0878 29.439 94.3157 28.4001 94.5318 27.373C94.7537 26.3489 94.9491 25.4254 95.1326 24.6055C95.3102 23.7886 95.4523 23.1196 95.5618 22.6105C95.6713 22.0955 95.7246 21.8291 95.7246 21.8084C95.7801 21.4975 95.9502 21.2187 96.2011 21.027C96.459 20.8669 96.7593 20.7885 97.0625 20.802C97.4049 20.7912 97.7402 20.9012 98.0096 21.1128C98.1342 21.2087 98.2343 21.3327 98.3017 21.4747C98.3691 21.6167 98.4019 21.7726 98.3974 21.9298V22.0481C98.3939 22.118 98.3839 22.1873 98.3678 22.2553C98.353 22.4181 98.2553 22.8888 98.0836 23.6909C97.9208 24.4871 97.7166 25.4609 97.4798 26.5916C97.2401 27.7312 96.9737 28.9506 96.6747 30.2648C96.3846 31.5761 96.0887 32.8252 95.8045 34.0062C95.5144 35.1901 95.2392 36.235 94.9698 37.1318C94.8051 37.7575 94.5811 38.366 94.3009 38.9492C94.1158 39.3206 93.7913 39.6037 93.3981 39.7365C93.1149 39.8305 92.8201 39.8852 92.522 39.8993C92.4021 39.8967 92.2825 39.8868 92.1638 39.8697C91.9917 39.8449 91.8223 39.8043 91.6577 39.7484C91.4673 39.6847 91.2884 39.5908 91.1279 39.4701C90.9449 39.3367 90.8008 39.1569 90.7105 38.9492C90.4511 38.3455 90.2374 37.7231 90.0712 37.0874C89.8255 36.2172 89.5562 35.2404 89.269 34.1423C88.9849 33.0442 88.6978 31.9017 88.4225 30.7059C88.1443 29.513 87.8838 28.3912 87.65 27.3493"
        fill="black" />
        <path
        d="M103.183 34.4233C102.884 35.3734 102.623 36.2466 102.395 37.0547C102.165 37.8627 101.954 38.5287 101.756 39.0408C101.665 39.3095 101.487 39.5401 101.25 39.6962C101.013 39.8522 100.731 39.9247 100.448 39.9021C100.267 39.9184 100.085 39.8965 99.9129 39.8379C99.7411 39.7793 99.5835 39.6852 99.4503 39.5617C99.2388 39.32 99.1276 39.0066 99.1395 38.6856C99.1392 38.554 99.1592 38.4233 99.1987 38.2978C99.2372 38.1853 99.3615 37.7769 99.5717 37.0872C99.7789 36.4005 100.048 35.5392 100.389 34.5121C100.723 33.485 101.096 32.3603 101.499 31.1408C101.907 29.9183 102.324 28.7077 102.762 27.5119C103.195 26.3161 103.624 25.2003 104.041 24.1702C104.373 23.313 104.758 22.4776 105.196 21.6691C105.32 21.3719 105.547 21.1293 105.835 20.9854C106.549 20.7386 107.327 20.7491 108.034 21.015C108.185 21.0824 108.319 21.1807 108.43 21.3036C108.54 21.4265 108.623 21.5712 108.673 21.7283C108.955 22.3173 109.289 23.1135 109.671 24.1081C110.056 25.1055 110.464 26.1829 110.884 27.3373C111.314 28.4917 111.731 29.6727 112.148 30.8714C112.566 32.0761 112.95 33.1979 113.294 34.2339C113.637 35.2669 113.939 36.1519 114.185 36.883C114.43 37.6141 114.587 38.0877 114.646 38.2978C114.684 38.4236 114.704 38.5542 114.706 38.6856C114.711 38.8486 114.682 39.0108 114.62 39.1618C114.558 39.3128 114.465 39.449 114.348 39.5617C114.058 39.8055 113.686 39.9276 113.309 39.9021C113.036 39.9232 112.764 39.842 112.548 39.6742C112.364 39.4995 112.227 39.2818 112.148 39.0408C111.953 38.5287 111.716 37.8627 111.45 37.0547C111.183 36.2496 110.899 35.3734 110.603 34.4233H103.183V34.4233ZM109.777 31.8452C109.36 30.5636 108.966 29.3826 108.588 28.3111C108.209 27.2337 107.827 26.2125 107.427 25.2447C107.33 25.0286 107.226 24.7829 107.116 24.4869C107.007 24.2057 106.945 24.0341 106.924 23.9749C106.843 24.1295 106.779 24.2922 106.732 24.4603C106.619 24.7652 106.516 25.0256 106.418 25.2417C106.024 26.2096 105.641 27.2317 105.27 28.3082C104.905 29.3796 104.512 30.5606 104.1 31.8423H109.777V31.8452Z"
        fill="black" />
        <path
        d="M119.845 32.4363C119.743 32.3352 119.649 32.2264 119.564 32.1107C119.461 31.9795 119.366 31.8421 119.28 31.6993C118.999 31.3056 118.706 30.8291 118.374 30.2638C118.046 29.7043 117.72 29.1035 117.392 28.476C117.066 27.8426 116.752 27.2032 116.447 26.5639C116.137 25.9245 115.859 25.3296 115.616 24.7791C115.364 24.2226 115.154 23.7431 114.976 23.3435C114.842 23.0704 114.732 22.7862 114.648 22.494C114.618 22.4218 114.593 22.3476 114.574 22.272C114.564 22.1984 114.559 22.1243 114.559 22.05C114.555 21.8847 114.585 21.7204 114.649 21.5678C114.713 21.4152 114.808 21.2779 114.929 21.165C115.068 21.0407 115.231 20.9451 115.407 20.8836C115.583 20.8221 115.77 20.7961 115.956 20.8069C116.11 20.7916 116.266 20.8102 116.412 20.8614C116.558 20.9125 116.692 20.9949 116.803 21.1029C116.957 21.2801 117.082 21.481 117.173 21.6978C117.211 21.8014 117.309 22.0115 117.457 22.346C117.605 22.6864 117.785 23.0978 118.001 23.5892C118.217 24.0805 118.469 24.6251 118.744 25.2171C119.028 25.8121 119.304 26.3922 119.594 26.9664C119.878 27.5377 120.159 28.0823 120.426 28.6092C120.648 29.0551 120.902 29.4853 121.183 29.8967C121.631 29.1993 122.038 28.4769 122.403 27.733C122.835 26.8628 123.252 26.0074 123.646 25.1609C124.043 24.3114 124.383 23.5596 124.673 22.9084C124.957 22.2543 125.129 21.8517 125.194 21.6948C125.286 21.4786 125.411 21.2779 125.564 21.0999C125.675 20.992 125.808 20.9097 125.955 20.8586C126.101 20.8075 126.256 20.7888 126.41 20.8039C126.597 20.7931 126.783 20.8192 126.96 20.8806C127.136 20.9421 127.298 21.0377 127.438 21.1621C127.558 21.275 127.654 21.4123 127.718 21.5648C127.781 21.7174 127.812 21.8818 127.808 22.0471C127.809 22.1213 127.804 22.1956 127.793 22.2691C127.774 22.3443 127.752 22.4184 127.725 22.4911C127.663 22.6479 127.547 22.9321 127.381 23.3524C127.216 23.7638 127.002 24.2522 126.754 24.8027C126.508 25.3533 126.233 25.9541 125.928 26.5935C125.617 27.2387 125.303 27.8722 124.978 28.5056C124.649 29.1331 124.324 29.7398 123.995 30.3111C123.67 30.8824 123.365 31.3678 123.089 31.7615C122.922 32.0041 122.733 32.2309 122.524 32.4393V38.5692C122.531 38.747 122.502 38.9244 122.438 39.0904C122.374 39.2564 122.276 39.4074 122.151 39.5342C121.886 39.7724 121.543 39.9041 121.186 39.9041C120.83 39.9041 120.486 39.7724 120.221 39.5342C120.096 39.4074 119.999 39.2564 119.935 39.0904C119.871 38.9244 119.841 38.747 119.848 38.5692V32.4363H119.845Z"
        fill="black" />
    </g>
    </g>
    <defs>
    <clip-path id="clip0_1129_3028">
        <rect
        width="129.422"
        height="61.1338"
        fill="white"
        transform="translate(161.289 0.0292969)" />
    </clip-path>
    <clip-path id="clip1_1129_3028">
        <rect
        width="129.422"
        height="61.0982"
        fill="white"
        transform="translate(161.289 0.0283203)" />
    </clip-path>
    <clip-path id="clip2_1129_3028">
        <rect
        width="129.422"
        height="61.1338"
        fill="white"
        transform="translate(322.578 0.0292969)" />
    </clip-path>
    <clip-path id="clip3_1129_3028">
        <rect
        width="129.422"
        height="51.3384"
        fill="white"
        transform="translate(322.578 5.23145)" />
    </clip-path>
    <clip-path id="clip4_1129_3028">
        <rect
        width="129.422"
        height="61.1338"
        fill="white"
        transform="translate(0 0.0292969)" />
    </clip-path>
    <clip-path id="clip5_1129_3028">
        <rect
        width="125.856"
        height="61.1338"
        fill="white"
        transform="translate(1.95117 0.0283203)" />
    </clip-path>
    </defs>
</svg>