<svg width="1080" height="1920" viewBox="0 0 1080 1920" fill="none"
    xmlns="http://www.w3.org/2000/svg">
    <g clip-path="url(#clip0_76_30827)">
        <rect width="1080" height="1920" fill="#D5ED3E" />
        <path
            d="M2111.83 939.872C2105 905.118 2109.95 867.37 2097.89 830.683C2090.86 806.056 2085.25 777.077 2078.93 753.468C2076.87 744.615 2075.43 735.698 2071.59 727.228C2067.91 719.139 2062.73 711.029 2059.31 702.494C2054.76 691.39 2052.71 680.245 2048.87 668.801C2030.57 616.999 2033.36 557.341 1996.35 511.441C1981.09 494.266 1963.8 477.77 1940.55 467.813C1924.33 460.955 1907.85 453.121 1892.14 447.707C1866.42 439.512 1843.85 431.403 1820.72 419.471C1792.21 403.315 1766.45 384.972 1737.2 369.091C1726.54 362.234 1713.87 354.187 1706.64 346.481C1700.9 340.473 1695.42 333.466 1688.92 328.966C1678.46 321.896 1663.38 324.422 1649.82 322.703C1631.75 321.641 1614.53 317.99 1595.95 314.465C1578.87 311.366 1562.59 306.758 1546.27 302.045C1526.24 296.249 1504.97 294.275 1484.25 290.878C1461.78 286.717 1439.01 286.484 1415.83 285.762C1390.45 283.936 1365.19 284.148 1339.78 285.783C1303.12 285.953 1264.96 290.687 1229.75 297.417C1200.43 303.065 1174.69 316.355 1146.33 320.176C1130.49 322.384 1116.12 315.081 1100.61 313.85C1087.41 313.106 1075.15 317.501 1063.01 322.639C1048.72 328.201 1032.04 335.738 1016.76 341.916C940.725 370.79 965.527 346.651 928.514 413.081C913.815 443.398 886.905 468.726 856.264 488.597C839.839 497.981 823.591 507.492 807.877 517.641C795.184 525.56 780.866 533.309 771.6 542.862C758.83 555.707 747.025 573.264 726.97 577.617C716.866 579.782 704.325 575.154 699.096 585.132C693.105 599.463 694.704 619.377 678.279 629.61C663.91 638.251 641.697 630.65 629.562 642.433C624.434 645.66 620.854 649.97 614.533 651.265C607.78 653.112 601.992 651.605 598.692 657.868C594.452 670.351 593.843 686.72 596.661 701.241C599.555 712.366 602.652 723.47 603.795 734.892C606.181 753.405 609.304 775.293 614.305 794.592C622.682 819.516 637.153 844.186 643.322 870.024C646.774 882.358 649.363 894.948 653.933 907.007C662.818 927.919 675.004 948.725 682.696 969.637C686.936 979.743 691.302 989.466 693.841 998.256C697.167 1011.42 702.244 1024.37 718.694 1028.21C766.725 1038.47 822.55 1034.52 871.927 1037.4C896.324 1037.91 916.912 1040.25 940.141 1042.01C970.173 1043.33 996.067 1045.54 1025.24 1050.82C1049.66 1055.45 1076.64 1061.31 1102.03 1067.32C1126.55 1070.88 1152.07 1074.3 1176.74 1071.25C1251.08 1061.73 1315.86 1002.01 1394.2 1026.75C1439.95 1045.41 1477.88 1044.84 1527.86 1039.51C1558.86 1036.98 1592.32 1034.11 1623.88 1030.14C1646.04 1026.53 1667.87 1021.61 1690.26 1018.11C1718.42 1012.88 1743.85 1009.44 1771.57 1006.71C1797.65 1002.27 1820.72 1000.4 1848.52 999.338C1890.51 997.385 1928.97 992.566 1969.51 987.386C2006.73 983.946 2049.1 978.766 2081.24 966.983C2084.97 965.646 2088.42 964.393 2091.72 963.332C2100.81 959.828 2107.67 960.295 2112.36 955.519C2114.65 952.568 2112.29 944.903 2111.88 940.02V939.808L2111.83 939.872Z"
            fill="#8DA54A" />
        <path
            d="M2222.82 1143.28C2222.04 1096.07 2218.22 1043.94 2214.65 995.925C2209.52 957.742 2203.95 921.019 2200.79 883.09C2193.51 828.311 2202.44 765.709 2172.16 715.56C2144.43 671.881 2080.94 702.896 2084.68 638.603C2085.85 597.398 2094.93 557.439 2096.27 515.937C2095.38 473.104 2101.03 426.147 2098.7 383.567C2096.85 361.897 2096.17 340.163 2095.97 318.386C2094.88 285.997 2089.97 262.466 2080.84 234.495C2078.94 217.877 2069.58 203.162 2059.47 190.097C2043.98 176.016 2021.47 173.416 1999.92 180.9C1912.3 210.034 1929.85 343.271 1928.23 408.473C1926.16 444.393 1932.81 481.645 1903.34 510.779C1888.42 526.699 1868.89 540.209 1855.86 557.651C1837.62 582.323 1834.71 609.618 1834.31 639.555C1833.75 699.429 1831.7 747.675 1746.66 754.863C1676.95 761.904 1605.26 757.844 1535.19 759.324C1484.98 760.339 1433.55 760.445 1382.69 761.481C1350.18 761.269 1316.74 765.794 1284.92 763.68C1222.51 759.113 1228.41 698.034 1215.99 659.555C1205.36 626.299 1160.41 643.064 1139.37 600.802C1123.43 570.864 1128.57 537.08 1128.82 505.155C1128.67 468.093 1130.31 432.744 1134.08 397.014C1135.35 372.447 1128.79 342.446 1119.06 321.008C1116.37 315.3 1113.47 306.061 1107.9 303.545C1098.47 303.354 1089.28 298.83 1083.69 291.874C1066.52 263.798 1080.13 226.249 1035.4 210.985C1026.47 207.095 1016.94 205.911 1007.22 205.192C987.646 202.888 962.123 199.04 940.925 199.293C921.802 199.674 902.021 197.602 885.68 200.858C883.024 201.513 881.177 202.063 878.951 202.676C875.384 203.712 872.602 203.416 871.135 203.247C862.737 232.994 853.555 277.329 857.88 310.648C856.261 328.915 932.223 315.892 944.669 350.987C951.726 367.394 954.736 385.533 952.637 403.8C952.257 421.031 952.257 441.56 949.677 459.531C949.07 481.983 950.512 503.844 945.706 525.79C942.519 551.921 934.272 579.702 934.702 606.594C934.171 673.319 923.876 748.373 996.676 792.454C1031.66 815.287 1076.79 829.051 1112.86 851.229C1176.98 886.769 1182.37 955.522 1167.24 1013.79C1143.95 1088.44 1124.12 1162.65 1106.48 1237.92C1094.27 1278.34 1083.49 1320.14 1078.89 1361.62C1077.27 1386.54 1070.67 1411.68 1079.09 1435.59C1084.33 1459.13 1100.62 1470.86 1124.75 1482.7C1143.34 1489.1 1165.12 1490.29 1185 1495.11C1218.72 1500.67 1255.63 1503.82 1290.71 1502C1319.02 1500.71 1347.07 1499.65 1374.01 1501.2C1417.64 1497.94 1460.87 1507.27 1504.51 1506.65C1579.99 1510.08 1591.57 1447.37 1607.94 1399.42C1622.16 1357.58 1647.43 1326.71 1699.11 1313.25C1723.31 1308 1749.09 1307.49 1774.03 1305.4C1891.17 1307.54 2010.32 1292.95 2118.81 1255.74C2156.95 1240.11 2201.52 1230.52 2216.85 1193.71C2222.34 1178.17 2220.37 1160.07 2222.72 1143.6V1143.28H2222.82ZM1112.33 307.519C1112.12 307.329 1112.73 307.519 1112.33 307.519V307.519Z"
            fill="#9FDFF2" />
        <path
            d="M-94.924 1066.65C-93.5776 1077.5 -94.1711 1088.33 -91.4205 1099.04C-89.3212 1107.45 -85.3543 1116.02 -82.676 1124.73C-78.3038 1137.3 -77.8984 1150.51 -73.7144 1163.09C-65.2305 1181.97 -54.054 1201.14 -52.2878 1221.8C-50.9559 1243.51 -34.9727 1261.23 -27.8498 1281.66C-18.8014 1312.66 -23.0143 1320.71 -1.8627 1350.73C11.0367 1370.18 10.2983 1393.89 22.9516 1413.26C29.0177 1421.96 36.0248 1430.2 40.9182 1439.46C46.7237 1449.79 50.1983 1461.73 55.4247 1471.82C60.9985 1482.39 69.685 1491.2 75.7655 1501.52C82.5989 1512.26 87.2026 1525.47 95.0639 1534.9C101.926 1542.93 110.149 1549.83 116.766 1558.09C123.092 1565.56 128.275 1574.17 134.863 1581.6C144.91 1592.55 159.807 1598.04 171.389 1607.51C190.167 1623.17 197.84 1629.23 224.985 1633.86C242.995 1637.29 258.312 1647 276.206 1650.49C292.262 1652.69 310.301 1647.81 327.022 1648.12C341.891 1647.7 356.513 1651.26 371.323 1649.47C385.497 1647.3 400.003 1640.11 414.292 1636.44C428.813 1632.13 443.986 1631.74 458.608 1628.09C473.824 1623.79 488.432 1612.94 503.575 1606.81C518.096 1600.16 534.484 1598.01 549.02 1591.44C563.483 1583.74 578.308 1573.57 593.002 1566.96C602.5 1561.89 611.259 1556.61 619.728 1555.84C634.365 1556.06 644.079 1581.17 656.385 1589.86C671.166 1602.14 685.875 1609.65 701.337 1621.01C718.233 1633.87 735.49 1637.94 757.278 1640.05C781.601 1643.2 807.327 1656.13 831.2 1645.34C842.652 1641.01 854.582 1637.33 867.032 1635.46C878.947 1633.42 891.861 1632.53 901.228 1627.34C915.821 1618.92 923.581 1602.87 937.726 1593.37C946.904 1586.2 958.819 1581.23 965.436 1572.04C970.387 1564.77 971.835 1555.61 974.412 1548.06C980.492 1531.59 984.633 1515.51 987.398 1498.14C988.296 1487.81 983.214 1476.36 980.42 1465.89C976.395 1452.68 977.09 1440.42 971.125 1427.23C968.157 1420.85 964.77 1414 961.903 1408.19C961.556 1407.32 962.613 1407.82 963.626 1408.31C964.089 1408.48 964.451 1408.91 964.567 1408.54C984.546 1397.33 988.846 1373.39 991.553 1354.18C992.364 1330.63 990.93 1307.13 986.79 1283.7C977.293 1218.08 949.25 1152.74 897.116 1102.13C856.261 1061.93 801.174 1030.6 739.283 1018.79C714.758 1012.18 731.002 982.856 730.987 966.702C732.131 941.603 735.939 916.735 742.511 892.086C746.565 875.701 745.508 859.789 746.362 843.671C747.144 825.25 751.777 806.32 751.965 787.972C751.849 774.193 747.984 762.813 746.189 749.604C744.061 736.261 743.554 722.494 741.585 709.114C740.21 693.069 729.554 679.593 721.563 665.983C718.073 659.645 715.366 652.931 712.254 646.435C704.783 630.669 691.927 619.943 681.532 606.067C671.963 593.779 658.426 585.829 644.311 577.915C616.442 562.245 581.088 564.948 552.48 577.539C509.178 588.192 506.253 597.16 475.359 623.094C461.909 634.486 446.143 641.903 433.736 654.701C421.488 667.389 410.847 684.683 399.294 698.716C389.522 711.187 377.997 721.779 369.89 735.194C360.755 750.355 354.544 767.418 346.523 783.076C339.314 798.006 330.569 810.489 324.387 826.147C317.93 842.846 313.167 861.328 307 877.834C298.849 898.933 276.713 894.727 257.168 888.523C235.597 882.209 213.852 872.174 192.512 865.884C162.326 857.074 130.259 858.08 98.611 862.394C68.1649 870.95 38.4137 881.821 10.6024 895.2C-17.3536 911.779 -49.5225 927.521 -65.7374 954.183C-78.1301 970.24 -89.6397 986.431 -91.7679 1005.71C-93.7947 1016.5 -97.2403 1027.24 -97.5298 1038.02C-97.9498 1047.53 -95.8216 1056.96 -94.8516 1066.42L-94.8226 1066.63L-94.924 1066.65Z"
            fill="#9FDFF2" />
        <path
            d="M1018.28 697.934C1017.47 649.334 1013.54 595.663 1009.87 546.236C1004.59 506.929 998.861 469.125 995.607 430.079C988.109 373.688 997.299 309.243 966.138 257.618C937.607 212.653 872.265 244.581 876.118 178.396C877.316 135.977 886.661 94.8419 888.041 52.1184C887.13 8.02368 892.935 -40.315 890.54 -84.1486C888.64 -106.457 887.937 -128.831 887.729 -151.248C886.61 -184.591 881.559 -208.815 872.162 -237.61C870.209 -254.716 860.577 -269.864 850.164 -283.315C834.232 -297.81 811.063 -300.487 788.884 -292.782C698.708 -262.791 716.775 -125.632 715.108 -58.5101C712.974 -21.5323 719.82 16.8165 689.492 46.8079C674.133 63.1965 654.036 77.104 640.63 95.0596C621.86 120.459 618.867 148.557 618.45 179.375C617.877 241.012 615.769 290.678 528.248 298.078C456.503 305.326 382.727 301.147 310.618 302.67C258.943 303.715 206.02 303.824 153.669 304.89C120.217 304.673 85.8025 309.33 53.0538 307.154C-11.1679 302.453 -5.10239 239.575 -17.8843 199.964C-28.8179 165.729 -75.0771 182.988 -96.736 139.481C-113.136 108.662 -107.852 73.8829 -107.592 41.0186C-107.748 2.86557 -106.056 -33.5246 -102.177 -70.3064C-100.875 -95.5967 -107.618 -126.48 -117.64 -148.549C-120.399 -154.426 -123.393 -163.937 -129.12 -166.527C-138.83 -166.723 -148.28 -171.38 -154.033 -178.541C-171.709 -207.444 -157.704 -246.098 -203.729 -261.812C-212.919 -265.816 -222.733 -267.035 -232.729 -267.775C-252.878 -270.147 -279.145 -274.108 -300.96 -273.847C-320.64 -273.455 -340.998 -275.588 -357.814 -272.237C-360.548 -271.562 -362.448 -270.996 -364.739 -270.365C-368.41 -269.298 -371.273 -269.603 -372.783 -269.777C-381.426 -239.155 -390.875 -193.515 -386.424 -159.214C-388.09 -140.41 -309.915 -153.816 -297.107 -117.688C-289.844 -100.798 -286.746 -82.1245 -288.907 -63.32C-289.297 -45.582 -289.298 -24.4488 -291.953 -5.94904C-292.578 17.1648 -291.094 39.6692 -296.04 62.2606C-299.32 89.1614 -307.806 117.76 -307.364 145.444C-307.91 214.133 -318.506 291.396 -243.585 336.775C-207.582 360.281 -161.14 374.449 -124.018 397.28C-58.0262 433.866 -52.4813 504.644 -68.0486 564.627C-92.0244 641.477 -112.434 717.87 -130.578 795.351C-143.152 836.965 -154.242 879.993 -158.979 922.695C-160.645 948.355 -167.44 974.233 -158.771 998.849C-153.383 1023.07 -136.618 1035.15 -111.783 1047.34C-92.649 1053.93 -70.2353 1055.15 -49.7739 1060.12C-15.0728 1065.84 22.9085 1069.08 59.0154 1067.21C88.1455 1065.88 117.015 1064.8 144.74 1066.38C189.645 1063.03 234.135 1072.63 279.041 1072C356.721 1075.52 368.644 1010.97 385.487 961.61C400.117 918.538 426.123 886.762 479.307 872.898C504.22 867.5 530.747 866.978 556.415 864.824C676.971 867.022 799.583 852.004 911.236 813.699C950.492 797.615 996.361 787.734 1012.14 749.842C1017.79 733.845 1015.76 715.215 1018.18 698.26V697.934H1018.28ZM-124.565 -162.435C-124.773 -162.631 -124.148 -162.435 -124.565 -162.435V-162.435Z"
            fill="#2B7830" />
        <path
            d="M720.417 2293.18C740.627 2289.03 763.902 2275.96 782.065 2265.08C809.932 2247.25 836.026 2226.24 870.15 2217.51C897.207 2213.09 929.169 2218.73 951.458 2232.7C962.961 2240.19 973.775 2248.41 984.769 2256.35C1001.56 2268.57 1012.47 2286.04 1035.68 2278.05C1055.88 2270.69 1078.4 2259.05 1097.68 2246.59C1119.34 2231.3 1138.39 2213.08 1160.74 2198.41C1179.17 2185.77 1199.53 2175.83 1218.17 2163.84C1230.38 2155.93 1241.46 2146.63 1253.13 2138.15C1293.22 2108.82 1340.17 2088.97 1380.98 2060.82C1396.49 2050.52 1413.64 2041.73 1428.28 2030.79C1442.97 2019.09 1460.74 2008.55 1475.51 1997.65C1505.14 1971.4 1547.83 1947.68 1591.89 1947.92C1598.3 1947.79 1606.76 1949.49 1611.13 1950.18C1615.99 1950.43 1616.14 1947.95 1617.7 1942.95C1623.61 1921.55 1619.45 1895.83 1616.11 1873.64C1612.55 1853.47 1605.85 1837.16 1603.38 1818C1599.22 1795.14 1596.09 1768.92 1586.21 1746.25C1579.6 1731.71 1571.87 1717.43 1565.81 1702.7C1558.83 1686.45 1554.2 1670.09 1546.82 1654.63C1534.11 1630.08 1518.63 1605.21 1504.95 1581.47C1497.21 1569.3 1491.41 1554.94 1479.1 1546.61C1465.32 1536.8 1454.09 1564.99 1431 1560.95C1399.56 1554.21 1370.29 1531.22 1335.8 1534.64C1300.18 1538.93 1257.3 1565.17 1224.45 1541.6C1207.52 1529.23 1194.85 1511.01 1180.48 1495.58C1156.95 1468.95 1131 1442.89 1110.79 1414.7C1099.54 1398.87 1084.54 1379.38 1059.77 1382.29C1022.32 1389.04 992.337 1411.08 961.16 1431.36C915.378 1464.53 872.87 1494.76 826.157 1527.81C799.434 1544.42 770.516 1569.59 736.1 1571.05C688.531 1568.68 633.082 1512.09 602.23 1485.18C593.164 1477.82 585.432 1466.98 573.684 1463.68C555.597 1461.57 534.678 1474.4 518.429 1482.63C498.953 1493.17 482.984 1503.29 466.786 1514.38C451.792 1524.49 434.94 1529.49 426.139 1543.26C423.074 1546.88 422.208 1552.29 421.674 1557C419.323 1565.52 418.496 1576.77 416.601 1586C414.691 1593.5 415.344 1599.16 413.298 1605.24C412.104 1608.46 413.199 1610.52 412.118 1612.84C411.354 1613.81 411.861 1614.44 411.335 1615.25C410.788 1615.79 410.992 1616.57 410.51 1617.12C409.944 1617.6 410.153 1618.21 409.729 1618.66C409.362 1618.94 409.363 1619.08 409.345 1619.44C408.862 1619.71 408.965 1619.7 408.805 1620.03C408.212 1620.26 408.289 1620.36 408.078 1620.69C407.555 1620.91 407.588 1620.92 407.589 1621.13C407.234 1621.21 407.26 1621.17 407.377 1621.32C407.067 1621.35 406.969 1621.34 406.97 1621.55C406.5 1621.77 406.145 1621.78 406.068 1622.03C406.023 1622.08 405.978 1622.13 405.901 1622.17C405.082 1622.44 405.036 1622.42 404.87 1622.7C393.2 1626.65 378.668 1629 366.293 1632.66C361.614 1633.65 356.14 1634.73 352.687 1636.93C338.35 1645.17 356.387 1674.11 361.141 1686.48C371.981 1703.1 383.114 1720.04 391.624 1737.08C406.263 1764.91 414.172 1792.88 427.123 1821.61C442.047 1849.66 455.891 1878.59 474.267 1905.52C497.987 1946.59 530.18 1984.1 555.312 2024.66C565.788 2042.19 573.14 2061.65 583.711 2078.63C598.368 2101.81 616.756 2123.03 628.273 2147.57C639.703 2170.12 647.447 2196.29 659.521 2216.95C669.002 2232.92 682.707 2251.64 691.555 2266.23C696.284 2273.26 700.759 2283.74 704.933 2289.56C707.86 2293.83 714.335 2294.13 720.204 2293.23L720.411 2293.21L720.417 2293.18Z"
            fill="#2B7830" />
        <g clip-path="url(#clip1_76_30827)">
            <path
                d="M275.633 1520.56C300.892 1569.25 340.355 1631.23 408.149 1630.91C424.771 1630.56 441.969 1631.01 456.71 1638.54C471.375 1645.55 483.237 1656.12 495.482 1665.89C537.748 1700.1 567.921 1695.46 608.574 1675.66C629.995 1667.02 652.721 1673.97 673.259 1681.24C703.125 1691.2 729.306 1683.61 749.92 1658.24C760.131 1645.78 768.884 1630.59 781.706 1620.25C792.109 1611.12 806.082 1608.01 819.979 1605.19C847.618 1599.2 868.348 1576.68 880.632 1538.98C885.738 1523.93 889.001 1506.69 891.573 1491.6C893.608 1482.6 895.373 1469.98 904.817 1467.29C907.619 1466.49 910.767 1465.85 912.84 1464.31C915.911 1461.08 911.497 1452.94 908.694 1449.83C908.425 1449.61 908.118 1449.71 908.042 1449.74C907.351 1450.12 906.928 1452.04 903.972 1451.15C898.521 1449.61 893.07 1445.09 887.005 1445.61C882.206 1445.99 879.058 1450.47 871.189 1447.69C862.091 1444.42 853.876 1437.85 843.971 1436.86C837.445 1436.22 831.303 1437.34 821.361 1429.97C813.299 1424.08 805.314 1416.04 797.406 1411.27C790.765 1407.81 786.734 1405.21 780.362 1399.06C757.406 1377.54 728.461 1354.38 728.653 1323.56C728.384 1317.41 732.837 1312.64 735.486 1307.19C737.329 1302.68 741.321 1303.25 745.16 1301.59C747.617 1300.31 748.999 1297.65 751.34 1296.33C753.03 1295.34 755.333 1295.12 757.713 1294.76C761.705 1294.32 764.508 1291.69 767.387 1289.54C769.767 1287.81 773.222 1287.53 776.754 1286.88C781.091 1286.18 784.316 1283.68 787.541 1281.38C790.305 1279.42 794.22 1278.84 798.213 1277.79C802.934 1276.57 806.696 1273.78 810.382 1271.12C813.683 1268.72 818.328 1267.76 822.551 1265.94C830.727 1262 835.257 1254.69 844.048 1251.55C850.19 1248.38 852.724 1241.91 858.06 1238.36C864.01 1235.02 868.655 1230.57 871.611 1225.06C873.876 1221.41 877.907 1218.72 882.129 1214.97C888.348 1209.3 892.302 1202.73 897.446 1195.62C913.416 1176.92 926.813 1156.35 942.553 1137.36C966.737 1103.66 995.375 1071.82 1024.47 1041.39C1041.25 1021.49 1060.1 1003.04 1070.27 979.372C1075.22 968.705 1083.98 958.519 1084.44 946.506C1085.09 940.452 1086.16 934.462 1088.16 928.6C1093.53 915.659 1089.39 903.551 1089.46 890.61C1093.42 873.312 1083.63 859.186 1081.94 842.561C1081.9 829.652 1072.19 820.522 1068.08 809.183C1063.21 796.786 1031.5 733.618 1018.25 733.266C1015.41 734.387 1012.57 738.006 1011.54 740.345C1010 743.516 1005.05 748.001 1003.21 750.659C1002.21 752.229 1000.56 753.542 998.254 755.112C984.511 764.305 965.662 764.625 949.271 760.301C940.672 758.699 932.457 757.034 925.931 752.453C918.637 747.296 907.734 743.997 901.17 738.455C893.876 729.934 883.051 723.496 876.602 714.655C872.648 707.607 868.655 700.08 863.741 693.321C857.791 684.128 854.951 672.019 851.227 661.673C840.094 630.281 841.515 595.974 838.098 564.005C836.563 558.336 835.488 554.62 835.948 547.765C836.946 533.767 843.242 513.618 841.937 498.339C841.016 485.205 836.179 478.062 835.065 468.676C833.031 450.642 842.474 429.757 842.09 410.601C842.167 393.24 829.653 386.961 832.609 369.632C833.53 356.306 838.328 338.784 835.219 324.818C832.532 313.927 824.086 313.479 820.094 307.425C819.518 306.56 818.981 305.535 818.558 304.381C813.453 291.889 820.708 262.002 809.537 249.157C803.702 242.847 794.182 245.281 789.767 242.462C786.389 240.284 785.89 237.273 786.005 232.821C786.159 228.56 787.541 223.98 787.963 221.737C788.232 219.623 783.203 233.045 782.013 235.736C781.245 237.337 781.475 236.44 781.936 234.743C783.049 230.482 785.045 224.748 785.928 220.36C785.928 219.463 783.433 226.03 781.552 230.931C781.015 232.276 780.592 233.429 780.247 234.262C779.863 235.191 779.633 235.704 779.556 235.672C779.479 235.672 779.594 235.159 779.863 234.198C780.093 233.365 780.439 232.18 780.823 230.803C782.281 225.838 784.316 219.239 783.817 220.072C781.898 224.3 780.093 230.034 778.404 234.294C777.79 235.864 777.368 236.985 777.867 235.255C778.75 232.116 782.089 221.898 782.205 221.065C782.013 221.289 777.944 233.205 776.754 236.504C776.523 237.209 776.37 237.626 776.293 237.754C777.022 235.255 780.439 225.261 780.516 225.325C780.324 226.286 778.443 232.084 776.869 237.241C776.139 239.58 775.525 241.63 775.103 243.039C774.796 244.064 774.642 244.737 774.604 245.057C774.604 245.281 774.604 245.313 774.719 245.121C774.872 244.897 775.141 244.288 775.448 243.487C783.625 223.403 773.874 252.777 773.068 257.966C773.068 258.703 773.375 258.094 773.644 257.582C774.719 255.564 776.754 250.951 776.6 252.745C776.216 256.653 770.842 271.452 770.266 276.897C771.034 276.193 773.337 270.715 771.302 277.826C769.345 284.585 765.89 294.419 764.277 300.505C764.815 299.448 766.657 294.483 763.855 302.684C758.826 317.226 755.793 327.125 750.534 340.258C718.135 428.155 675.869 513.042 646.08 603.021C620.091 671.058 610.417 793.327 549.341 842.817C520.243 866.393 475.636 855.822 449.493 834.937C413.408 807.549 368.187 752.261 329.338 810.977C322.735 823.694 315.441 836.186 308.915 848.999C296.247 877.54 282.619 906.946 255.095 927.383C205.958 961.562 137.703 950.19 79.6984 960.409C55.8977 965.79 35.8206 976.041 17.3558 989.302C7.64355 997.502 4.68762 1006.92 -1.22412 1015.73C-5.63879 1022.71 -12.8558 1030.14 -16.1957 1036.87C-19.2284 1043.08 -17.6158 1048.88 -17.1936 1054.97C-16.7329 1060.06 -17.3088 1065.57 -15.7349 1070.44C-13.5083 1078.67 -5.90735 1085.85 -3.37378 1094.21C-0.533081 1105.52 10.5995 1114.42 13.9009 1125.79C15.7819 1139.18 22.5382 1152.35 22.2695 1165.9C20.734 1178.77 25.3406 1188.38 21.9624 1200.59C19.16 1209.14 19.6591 1216.61 20.3501 1224.97C20.4269 1231.21 15.59 1239.6 14.5919 1245.88C13.5171 1251.33 15.7052 1255.08 15.5516 1259.82C14.7455 1272.53 3.38245 1279.55 13.7089 1293.58C17.2789 1310.94 -0.80188 1329.94 0.464966 1348.1C3.95825 1378.98 28.4116 1364.18 16.0122 1410.5C5.53223 1455.41 41.4253 1436.86 49.6404 1465.5C52.7882 1476.29 50.0626 1489.17 57.8555 1498.75C64.1511 1506.18 78.2012 1504.9 89.3723 1507.56C135.285 1519.09 104.382 1571.37 199.47 1520.5H275.709L275.633 1520.56Z"
                fill="#A4CC44" />
        </g>
        <path
            d="M1943.69 2049.41C1942.35 2038.56 1942.94 2027.73 1940.19 2017.02C1938.09 2008.61 1934.12 2000.04 1931.45 1991.33C1927.07 1978.76 1926.67 1965.55 1922.48 1952.97C1914 1934.09 1902.82 1914.92 1901.06 1894.26C1899.73 1872.55 1883.74 1854.83 1876.62 1834.4C1867.57 1803.4 1871.78 1795.35 1850.63 1765.34C1837.73 1745.88 1838.47 1722.17 1825.82 1702.8C1819.75 1694.1 1812.75 1685.86 1807.85 1676.6C1802.05 1666.28 1798.57 1654.33 1793.35 1644.24C1787.77 1633.68 1779.09 1624.86 1773 1614.54C1766.17 1603.8 1761.57 1590.59 1753.71 1581.16C1746.84 1573.13 1738.62 1566.23 1732 1557.97C1725.68 1550.5 1720.49 1541.89 1713.91 1534.46C1703.86 1523.51 1688.96 1518.02 1677.38 1508.55C1658.6 1492.89 1650.93 1486.83 1623.79 1482.2C1605.78 1478.77 1590.46 1469.06 1572.56 1465.57C1556.51 1463.37 1538.47 1468.25 1521.75 1467.94C1506.88 1468.36 1492.26 1464.8 1477.45 1466.59C1463.27 1468.76 1448.77 1475.95 1434.48 1479.62C1419.96 1483.93 1404.78 1484.32 1390.16 1487.97C1374.95 1492.27 1360.34 1503.12 1345.2 1509.25C1330.67 1515.9 1314.29 1518.05 1299.75 1524.62C1285.29 1532.32 1270.46 1542.49 1255.77 1549.1C1246.27 1554.18 1237.51 1559.45 1229.04 1560.22C1214.41 1560 1204.69 1534.89 1192.39 1526.2C1177.6 1513.92 1162.89 1506.41 1147.43 1495.05C1130.54 1482.19 1113.28 1478.12 1091.49 1476.01C1067.17 1472.86 1041.44 1459.93 1017.57 1470.72C1006.12 1475.05 994.188 1478.74 981.738 1480.6C969.823 1482.64 956.909 1483.53 947.542 1488.72C932.949 1497.14 925.189 1513.19 911.044 1522.69C901.866 1529.86 889.951 1534.83 883.334 1544.02C878.383 1551.29 876.935 1560.45 874.358 1568C868.278 1584.47 864.137 1600.55 861.372 1617.92C860.474 1628.25 865.556 1639.7 868.35 1650.17C872.375 1663.38 871.68 1675.64 877.645 1688.83C880.613 1695.22 884 1702.06 886.867 1707.87C887.214 1708.74 886.158 1708.24 885.144 1707.75C884.681 1707.58 884.319 1707.15 884.203 1707.52C864.224 1718.73 859.924 1742.67 857.217 1761.88C856.406 1785.43 857.84 1808.93 861.98 1832.36C871.477 1897.98 899.52 1963.32 951.654 2013.93C992.509 2054.13 1047.6 2085.46 1109.49 2097.27C1134.01 2103.88 1117.77 2133.2 1117.78 2149.36C1116.64 2174.46 1112.83 2199.33 1106.26 2223.98C1102.2 2240.36 1103.26 2256.27 1102.41 2272.39C1101.63 2290.81 1096.99 2309.74 1096.8 2328.09C1096.92 2341.87 1100.79 2353.25 1102.58 2366.46C1104.71 2379.8 1105.22 2393.57 1107.19 2406.95C1108.56 2422.99 1119.22 2436.47 1127.21 2450.08C1130.7 2456.42 1133.4 2463.13 1136.52 2469.63C1143.99 2485.39 1156.84 2496.12 1167.24 2509.99C1176.81 2522.28 1190.34 2530.23 1204.46 2538.15C1232.33 2553.82 1267.68 2551.11 1296.29 2538.52C1339.59 2527.87 1342.52 2518.9 1373.41 2492.97C1386.86 2481.57 1402.63 2474.16 1415.03 2461.36C1427.28 2448.67 1437.92 2431.38 1449.48 2417.34C1459.25 2404.87 1470.77 2394.28 1478.88 2380.87C1488.02 2365.71 1494.23 2348.64 1502.25 2332.98C1509.46 2318.05 1518.2 2305.57 1524.38 2289.91C1530.84 2273.21 1535.6 2254.73 1541.77 2238.23C1549.92 2217.13 1572.06 2221.33 1591.6 2227.54C1613.17 2233.85 1634.92 2243.89 1656.26 2250.18C1686.44 2258.99 1718.51 2257.98 1750.16 2253.67C1780.61 2245.11 1810.36 2234.24 1838.17 2220.86C1866.12 2204.28 1898.29 2188.54 1914.51 2161.88C1926.9 2145.82 1938.41 2129.63 1940.54 2110.35C1942.56 2099.56 1946.01 2088.83 1946.3 2078.04C1946.72 2068.53 1944.59 2059.1 1943.62 2049.64L1943.59 2049.43L1943.69 2049.41Z"
            fill="#FAFFE9" />
        <path
            d="M8.39253 1728.19C0.186996 1728.21 -12.8538 1731.81 -22.6033 1731.26C-28.3326 1730.6 -34.1163 1735.67 -38.5113 1736.37C-39.9598 1739.98 -40.2416 1745.78 -41.4753 1750.5C-52.3145 1820.93 -52.33 1897.45 -68.7301 1969.01C-125.029 2253.56 -163.261 2540.92 -196.197 2827.78C-201.492 2871.68 -208.437 2915.25 -215.45 2958.85C-221.459 3001.11 -227.094 3049.37 -250.486 3086.29C-240.234 3111.66 -189.324 3116.72 -164.866 3102.56C-112.901 3076.62 -116.086 2958.2 -100.984 2909.07C-59.796 2679.38 -52.292 2446.37 -30.7049 2215.1C-16.8149 2096.71 -1.089 1976.23 8.93054 1857.71C11.9743 1823.99 16.1324 1786.34 18.3942 1752.98C18.3673 1741.54 25.1362 1729.82 8.54672 1728.22L8.36903 1728.21L8.39253 1728.19Z"
            fill="#2A542D" />
        <path
            d="M-262.462 1371.87C-306.501 1280.27 -289.624 1188.28 -245.798 1126.04C-243.653 1120.37 -242.429 1113.04 -241.438 1106.6C-226.521 1003.65 -156.981 913.751 -60.0757 974.727C-52.9173 978.385 -44.9767 981.005 -37.3592 980.44C19.9172 971.772 82.2892 1018.9 100.505 1095.94C102.969 1104.39 105.645 1112.65 110.135 1119.26C133.258 1147.77 125.171 1204.07 109.775 1261.94C107.032 1272.79 104.989 1282.78 103.059 1293.19C94.8434 1335.41 70.5495 1377.51 42.3369 1427.34C40.3618 1431.03 36.0544 1438.51 37.9843 1441.43C39.1443 1443.52 42.9754 1443.44 48.1878 1442.07C135.046 1416.45 213.034 1351.55 284.279 1361.01C294.485 1362.41 304.79 1364.14 315.212 1365.26C443.113 1375.98 641.424 1535.27 515.828 1648.76C509.733 1654.15 502.707 1660.47 498.562 1666.75C470.035 1741.61 382.832 1777.24 279.92 1773.72C247.919 1772.22 259.032 1793.38 223.429 1789.71C218.009 1789.49 210.976 1788.95 206.127 1790.58C193.141 1794.07 205.453 1816.87 199.277 1827.45C195.257 1834.68 184.415 1828.43 179.314 1838.32C177.132 1841.7 175.671 1846.99 174.389 1851.25C165.231 1883.77 142.185 1897.88 114.647 1891.02C108.069 1889.74 101.348 1889.35 94.9505 1891.72C90.4095 1893.31 85.8534 1896.23 81.6517 1898.97C11.3292 1945.66 -69.1046 1909.69 -122.872 1844.34C-129.029 1839.42 -136.202 1837.95 -143.665 1837.06C-163.627 1834.59 -176.268 1819.3 -181.904 1791.92C-183.745 1782.15 -185.565 1770.85 -195.161 1766.31C-197.637 1764.97 -200.287 1764.03 -202.491 1762.28C-209.323 1756.17 -208.867 1739.86 -221.92 1748.53C-232.141 1754.82 -248.671 1767.73 -258.105 1770.78C-261.259 1771.47 -264.283 1770.3 -267.27 1772.02C-280.867 1779.32 -315.652 1808.82 -329.68 1798.58C-332.087 1796.55 -334.06 1793.81 -337.32 1793.16C-345.552 1792.25 -354.809 1798.04 -363.627 1799.43C-382.629 1804.76 -406.037 1802.13 -408.816 1783.84C-409.483 1781.01 -410.082 1778 -411.51 1775.46C-414.837 1769.11 -422.514 1767.53 -429.924 1766.45C-500.327 1760.86 -553.611 1733.63 -563.129 1685.25C-564.17 1681.98 -565.708 1678.93 -568.302 1676.34C-571.223 1673.37 -575.53 1671.02 -580.805 1669.09C-630.414 1656.6 -667.626 1625.84 -648.337 1587.8C-643.546 1578.92 -641.113 1569.75 -649.802 1562.31C-688.857 1535.66 -677.055 1505.84 -631.121 1480.2C-622.693 1475.14 -614.05 1467.86 -611.362 1458.83C-583.009 1307.6 -455.924 1275.48 -322.17 1329.64C-299.123 1338.64 -256.06 1376.28 -230.317 1396.39"
            fill="#FAFFE9" />
    </g>
    <defs>
        <clipPath id="clip0_76_30827">
            <rect width="1080" height="1920" fill="white" />
        </clipPath>
        <clipPath id="clip1_76_30827">
            <rect width="1109" height="1652" fill="white" transform="matrix(-1 0 0 1 1018 155)" />
        </clipPath>
    </defs>
</svg>