<svg width="1080" height="1920" viewBox="0 0 1080 1920" fill="none" xmlns="http://www.w3.org/2000/svg">
<g clip-path="url(#clip0_54_12112)">
<rect width="1080" height="1920" rx="30" fill="#9FDFF2"/>
<path d="M1000.75 -67.8902C1118.01 -12.5458 1233.82 74.1271 1325.55 180.264C1330.07 183.879 1335.79 186.49 1341.43 188.463C1369.65 196.523 1396.97 211.491 1397.36 241.557C1397.76 248.659 1394.62 258.053 1386.04 255.861C1352.26 249.345 1297.78 224.451 1235.79 229.925C1222.47 230.919 1216.65 235.536 1226.11 246.93C1264.84 296.516 1317.11 341.465 1337.52 391.019C1363.03 415.977 1394.22 441.31 1390.48 473.919C1390.65 476.312 1389.28 479.957 1389.08 481.686C1388.87 482.243 1388.81 481.846 1388.72 480.71C1388.66 480.077 1388.59 479.224 1388.45 478.247C1388.32 461.618 1341.57 444.479 1318.17 433.659C1310.27 430.37 1302.87 427.035 1298.94 419.543C1294.1 411.931 1277.54 398.269 1259.21 391.087C1254.61 389.528 1245.12 385.145 1242.45 390.415C1265.9 454.183 1327.67 510.113 1340.2 554.818C1343.49 564.457 1348.77 570.581 1355.47 579.132C1381.87 611.812 1419.57 669.917 1415.09 691.531C1415.16 697.805 1419.78 703.787 1423.65 708.706C1429.15 715.647 1433.84 721.533 1439.46 729.032C1448.1 741.584 1477.92 777.665 1460.14 782.073C1457.07 783.584 1457.35 786.481 1458.3 789.828C1462.52 801.625 1477.58 830.1 1463.36 827.736C1450.03 825.492 1408.65 782.719 1386.16 762.282C1336.26 730.751 1284.11 689.003 1199.71 625.859C1193.31 621.171 1187.45 616.736 1180.56 613.785C1176.24 611.986 1172.24 611.808 1167.72 609.69C1148.5 600.329 1130.81 585.392 1111.83 573.224C1087.71 555.12 1082.71 599.744 1055.55 609.53C1043.49 612.034 1042.01 616.418 1037.69 626.93C1033.51 633.553 1032.34 620.548 1017.63 623.693C1003.04 623.725 980.303 601.349 969.289 582.315C964.968 574.926 963.328 568.751 958.196 562.921C908.331 528.785 865.723 483.002 837.242 428.095C834.079 422.252 830.527 416.491 825.693 412.201C819.725 406.98 810.9 402.343 804.31 397.002C795.201 390.286 785.59 380.403 779.341 375.536C768.848 369.639 757.266 373.909 745.594 376.289C696.587 388.297 664.46 425.634 646.097 416.962C619.742 411 595.29 388.628 616.866 365.748C622.923 357.163 608.665 350.822 603.635 345.162C548.624 293.467 603.369 289.099 572.744 258.156C517.643 193.305 480.36 133.634 500.351 84.4157C502.277 79.0314 501.662 74.1219 498.006 69.7167C490.88 61.9468 478.153 50.8599 473.186 42.5367C468.835 35.6323 470.503 30.8 482.942 31.92C489.369 32.0304 496.755 34.4928 503.086 34.0324C516.064 30.735 486.455 -2.12607 534.83 -1.87719C541.219 -1.73797 548.177 -0.889053 554.357 0.1235C561.373 0.568577 569.639 5.28455 575.763 1.16126C577.578 -0.156749 578.927 -2.35934 580.024 -5.13149C589.662 -43.5834 622.096 -64.9322 670.963 -65.2735C677.52 -65.4138 685.184 -66.0832 690.187 -69.9939C694.6 -73.1307 697.423 -78.7146 699.665 -83.8109C727.295 -146.343 770.237 -187.018 826.782 -194.588C830.547 -195.367 833.528 -196.606 835.554 -198.746C839.367 -203.006 838.455 -208.6 838.687 -214.751C839.336 -224.811 838.062 -235.133 842.621 -242.896C846.627 -248.325 856.278 -235.368 859.628 -230.858C866.701 -221.934 869.727 -211.292 880.864 -221.817C899.197 -235.997 929.441 -186.093 949.407 -140.83C952.012 -135.869 954.961 -128.879 959.303 -126.861C960.917 -126.087 962.428 -126.184 964.082 -126.265C971.243 -127.938 981.283 -113.297 988.995 -100.571C997.37 -86.7007 1004.92 -72.5615 1012.58 -58.7116" fill="#35CF5C"/>
<path d="M363.361 1360.86C376.971 1362.2 417.336 1346.14 426.241 1336.73C443.526 1313.39 345.78 1313.74 345.101 1295.9C358.148 1281.35 433.483 1284.55 442.115 1273.16C431.29 1258.31 401.702 1257.99 417.902 1231.73C428.539 1216.8 448.095 1196.46 424.886 1184.23C419.242 1180.32 411.024 1176.49 411.695 1170.22C412.757 1162.9 428.843 1154.15 427.661 1144.67C425.924 1133.62 415.365 1125.11 409.604 1115.03C402.263 1102.39 392.347 1086.17 390.275 1074.23C387.671 1059.96 399.241 1050.26 410.69 1037.79C439.757 1009.39 438.131 976.01 410.645 951.41C384.576 927.128 385.464 893.073 385.026 861.719C383.871 815.044 389.55 769.707 396.952 723.372C421.08 555.964 315.757 407.293 312.947 319.447C311.813 313.919 309.09 308.448 303.61 303.135C177.277 220.248 -8.81743 263.413 -128.111 334.276C-136.872 339.167 -147.476 345.198 -156.69 347.621C-182.579 355.346 -198.475 334.314 -215.654 323.174C-230.163 312.343 -265.579 288.369 -274.013 313.689C-280.27 325.101 -273.408 346.911 -292.768 351.936C-306.09 353.894 -321.726 347.613 -334.6 350.07C-365.634 357.789 -362.712 384.686 -357.956 415.157C-354.643 438.902 -337.765 466.606 -335.586 489.249C-365.13 545.881 -288.834 634.737 -258.36 728.419C-254.55 761.039 -310.983 739.341 -284.916 801.475C-282.244 808.35 -277.638 815.776 -276.746 821.542C-276.684 823.706 -278.512 821.917 -274.612 823.345C-260.446 829.742 -247.157 839.366 -237.305 849.359C-223.324 862.913 -223.879 878.245 -224.949 895.285C-224.914 910.444 -223.214 925.154 -221.421 940.426C-216.321 986.112 -202.633 1009 -251.322 1046.31C-292.148 1080.58 -307.245 1123.58 -298.555 1168.71C-298.15 1177.24 -298.789 1185.57 -301.271 1193.88C-305.764 1212 -322.55 1227.71 -327.055 1244.37C-337.639 1281.17 -291.427 1301.82 -270.174 1330.58C-262.336 1340.55 -257.218 1350.67 -252.275 1361.32C-225.648 1428.54 -133.783 1470.72 -109.691 1541.88C-103.37 1601.08 -154.608 1692.92 -151.357 1733.33C-151.08 1752.1 -151.669 1765.55 -159.341 1785.69C-209.676 1904.95 -208.897 2026.82 -95.9122 2076.8C-64.2098 2091.23 -51.2944 2119.37 -44.9084 2146.55C-26.8773 2200.92 -3.63372 2268.29 72.4141 2276.02C95.7686 2277.42 119.32 2264.67 143.661 2267.61C153.101 2268.43 162.601 2271.02 172.063 2274.57C308.315 2342.76 443.342 2224.19 444.86 2084.45C447.385 2071.38 448.88 2061.72 463.361 2058.23C669.531 2098.98 956.105 2135.63 960.043 1924.86C962.207 1903.33 965.588 1888.16 973.903 1869.72C1013.36 1749.73 919.295 1636.6 835.328 1527.54C823.205 1512.62 812.757 1497.74 809.623 1481C803.189 1423.34 734.965 1347.22 651.739 1325.82C609.132 1309.19 393.685 1310.78 363.237 1360.76L363.317 1360.79L363.361 1360.86Z" fill="#2B7830"/>
<path d="M644.609 490.673C642.063 488.01 405.673 616.095 400.472 614.31C225.879 553.024 277.27 427.508 124.273 475.272C105.32 481.115 83.8487 484.443 63.9227 488.674C29.3215 496.201 5.6552 504.69 -19.7744 513.241C-28.3468 516.332 -30.2049 514.673 -37.7566 513.351C-51.6701 510.277 -87.9886 505.69 -85.1691 490.178C-84.1167 484.626 -77.54 479.905 -74.1752 474.269C-68.7355 466.551 -72.5627 460.118 -79.7005 454.678C-94.1806 443.447 -112.482 428.884 -127.364 415.968C-163.144 384.579 -179.81 367.156 -188.988 346.548C-190.924 343.41 -195.037 340.991 -198.512 339.439C-203.723 337.084 -211.112 334.953 -217.964 332.906C-235.647 327.672 -252.46 323.33 -271.438 318.547C-291.811 313.264 -347.486 300.964 -337.429 292.941C-331.944 287.334 -332.405 283.126 -336.561 276.813C-339.915 271.591 -346.27 264.9 -350.029 258.215C-354.109 251.164 -356.696 243.308 -357.644 235.229C-364.471 174.758 -284.347 95.2561 -220.89 82.7765C-151.743 77.5669 -56.2318 184.894 76.7688 145.18C84.9197 142.63 92.3419 138.968 98.2521 134.34C101.925 131.453 105.203 128.201 108.004 124.528C113.679 117.226 116.587 109.45 120.113 104.229C126.215 94.9403 134.226 90.8362 144.473 93.6215C154.075 95.3609 173.068 107.309 185.758 115.521C198.542 123.734 213.113 133.458 225.393 140.998C237.489 148.777 251.277 153.527 265.621 154.404C323.746 159.226 403.914 168.001 482.82 185.647C488.918 186.815 494.75 187.556 500.217 187.489C505.757 187.444 510.912 186.568 515.891 184.962C519.001 183.964 522.053 182.701 525.128 181.302C563.308 162.288 620.971 147.548 656.027 163.93C664.987 168.369 674.585 171.49 684.581 170.135C691.366 169.543 697.787 167.52 701.94 169.475C707.128 171.354 709.456 181.865 710.634 190.064C711.785 197.429 713.351 205.182 716.746 211.565C720.524 218.969 727.261 225.53 733.857 231.17C794.467 282.444 856.761 333.359 909.124 384.375C919.351 393.354 931.93 399.559 945.392 404.778C1050.66 443.435 1141.07 480.657 1195.75 514.495C1199.56 516.56 1203.73 518.389 1208.44 519.869C1223.59 524.496 1239.93 525.263 1256.47 528.513C1269.84 531.314 1289.27 534.143 1288.95 542.473C1288.88 543.083 1288.69 543.692 1288.42 544.267C1287.11 547.219 1282.72 550.809 1280.25 554.32C1276.39 558.965 1278.21 563.114 1282.99 566.79C1289.07 571.46 1296.75 575.349 1302.72 580.45C1319.46 593.443 1322.57 610.668 1300.72 623.295C1271.32 639.454 1285.63 643.148 1303.04 660.227C1320.88 676.807 1352.02 710.114 1336.19 728.962C1334.46 731.42 1332.1 734.004 1330.77 736.501C1325.91 744.42 1335.01 750.613 1340.86 754.689C1350.89 761.417 1359.38 766.86 1370.3 774.027C1389.68 787.67 1442.15 817.362 1437.09 834.036C1435.34 840.345 1425.86 844.844 1420.59 850.001C1417.81 852.429 1415.72 854.722 1413.24 857.103C1401.54 871.3 1351.36 867.417 1296.12 858.228C1281.56 855.901 1266.59 853.345 1252.77 850.905C1244.13 849.405 1235.85 847.88 1227.28 846.349C1216.42 844.46 1205.8 841.9 1195.58 843.209C1191.28 843.752 1187.27 844.965 1183.41 846.624C1131.64 874.399 1054.19 897.065 955.359 907.909C944.413 909.838 934.62 912.21 930.399 922.483C927.785 928.608 928.073 936.379 925.39 941.669C918.867 953.756 905.084 951.634 893.031 946.103C885.716 942.781 877.307 937.613 871.002 934.489C867.385 932.671 865.509 932.014 862.197 927.341C860.234 924.54 858.68 921.863 856.933 918.76C843.958 894.589 820.518 844.668 801.654 813.191C798.081 806.72 678.921 808.917 676.539 803.639C644.457 725.185 729.164 597.66 658.049 514.79C652.272 507.656 650.622 496.462 644.672 490.717L644.578 490.631L644.609 490.673Z" fill="#D5ED3E"/>
<path d="M749.079 1698.36C609.531 1564.47 495.286 1393.8 432.372 1213.6C428.083 1206.66 421.207 1200.23 413.993 1194.62C376.544 1168.72 345.552 1135.03 367.081 1098.7C371.692 1089.94 383.436 1080.47 395.019 1088.03C442.157 1115.28 507.593 1176.5 606.928 1205.56C628.135 1212.03 640.49 1209.83 634.32 1190.71C611.282 1108.89 564 1024.86 569.093 953.609C548.24 908.968 518.935 860.612 548.689 823.602C550.184 820.627 554.971 817.038 556.562 815.08C557.285 814.528 557.092 815.043 556.401 816.461C556.015 817.252 555.501 818.318 555.003 819.573C542.954 839.616 602.221 887.08 630.224 913.523C639.96 922.02 648.876 930.278 649.406 941.535C651.238 953.458 666.645 979.387 689.539 998.551C695.467 1003.07 706.826 1013.79 714.811 1008.99C725.703 918.933 671.898 816.247 685.538 755.354C687.579 741.888 683.964 731.497 679.964 717.378C663.416 662.948 648.234 571.495 671.031 548.114C675.53 540.534 672.83 530.695 670.501 522.562C667.159 511.066 664.283 501.302 661.167 489.066C657.118 469.023 637.823 408.544 668.412 413.476C674.244 413.426 675.947 409.787 676.943 405.218C679.144 388.627 676.943 345.768 697.074 356.787C715.903 367.141 748.051 442.304 767.587 479.779C821.086 546.332 870.537 626.452 953.822 750.811C960.217 760.123 965.968 768.821 974.387 776.326C979.705 780.969 985.713 783.479 991.111 788.625C1013.76 810.914 1029.97 839.026 1050.2 864.553C1073.95 900.158 1114.48 849.443 1163.45 853.308C1183.84 857.236 1189.33 852.819 1203.71 842.678C1215.02 837.131 1207.25 853.421 1232.18 858.102C1254.62 866.448 1273.12 906.395 1276.04 935.587C1277.24 946.945 1275.22 955.303 1278.82 965.255C1330.36 1034.92 1362.17 1114.4 1365.54 1196.72C1366.1 1205.55 1367.33 1214.51 1371.6 1222.44C1376.93 1232.15 1387.09 1242.79 1393.29 1252.99C1402.35 1266.29 1409.85 1283.69 1415.88 1293.13C1427.67 1306.24 1448.62 1307.77 1468.32 1311.63C1552.5 1325.38 1629.38 1299.01 1651.23 1319.98C1687.36 1342.3 1708.48 1383.22 1658.47 1398.3C1642.84 1405.12 1660.09 1420.94 1663.66 1430.63C1710.19 1524.34 1622.81 1498.11 1647.11 1552.88C1684.1 1662.44 1697.5 1755.54 1630.53 1803.15C1623.61 1808.51 1620.94 1814.76 1623.32 1822.15C1628.56 1835.58 1639.96 1856.21 1641.47 1869.06C1643.08 1879.86 1636.96 1884.7 1618.66 1876.21C1608.86 1872.38 1599.32 1865.17 1589.24 1862.09C1566.86 1858.59 1588.2 1915.07 1514.01 1886.96C1504.29 1883.12 1494.21 1878.1 1485.46 1873.33C1475 1868.76 1465.76 1858.35 1453.31 1859.78C1449.55 1860.32 1445.86 1862.19 1442.13 1864.89C1399.01 1905.52 1333.43 1912.51 1258.05 1884.83C1247.86 1881.23 1235.59 1877.62 1225.01 1879.44C1215.92 1880.67 1207.47 1885.76 1200.27 1890.59C1111.77 1949.8 1015.8 1973.96 923.297 1950.54C916.935 1949.31 911.441 1949.08 906.75 1950.49C897.753 1953.41 895.037 1960.66 890.153 1967.91C881.751 1979.62 876.112 1992.75 863.388 1999.45C853.234 2003.67 847.932 1982.56 846.101 1975.21C841.795 1960.43 844.976 1945.91 820.106 1952.15C781.484 1958.64 771.716 1881.31 774.335 1815.48C773.981 1808.02 774.592 1797.93 769.402 1793.01C767.491 1791.15 765.097 1790.4 762.494 1789.55C750.252 1787.44 745.593 1764.08 743.103 1744.37C740.436 1722.89 739.231 1701.57 737.656 1680.54" fill="#35CF5C"/>
<path d="M272.121 629.771C192.403 463.973 222.953 297.454 302.285 184.779C306.169 174.517 308.384 161.259 310.177 149.602C337.18 -36.7594 463.056 -199.488 638.469 -89.1112C651.427 -82.4897 665.8 -77.7478 679.589 -78.7702C783.268 -94.4602 896.17 -9.15239 929.144 130.309C933.603 145.601 938.448 160.541 946.575 172.515C988.43 224.127 973.792 326.037 945.923 430.778C940.958 450.423 937.261 468.51 933.767 487.35C918.895 563.775 917.069 583.961 866 674.155C862.425 680.839 834.182 711 848.5 729C866 751 931.565 738.476 941 736C1098.23 689.63 1132.84 592.987 1261.8 610.114C1280.27 612.657 1298.93 615.786 1317.79 617.801C1549.31 637.215 1908.28 925.552 1680.94 1130.99C1669.9 1140.75 1657.19 1152.18 1649.68 1163.56C1598.05 1299.05 1440.2 1363.55 1253.91 1357.19C1195.98 1354.47 1216.1 1392.77 1151.65 1386.12C1141.84 1385.72 1129.11 1384.74 1120.34 1387.7C1096.83 1394.01 1119.12 1435.29 1107.93 1454.43C1100.66 1467.53 1081.03 1456.21 1071.8 1474.11C1067.85 1480.24 1065.2 1489.8 1062.88 1497.53C1046.31 1556.4 1004.59 1581.92 954.743 1569.51C942.835 1567.18 930.67 1566.48 919.089 1570.79C910.869 1573.66 902.622 1578.94 895.016 1583.9C767.723 1668.41 622.126 1603.31 524.8 1485.01C513.655 1476.1 500.67 1473.45 487.16 1471.84C451.026 1467.36 428.145 1439.68 417.942 1390.12C414.611 1372.44 411.315 1351.99 393.945 1343.78C389.463 1341.34 384.666 1339.63 380.676 1336.48C368.311 1325.4 369.137 1295.89 345.509 1311.58C327.006 1322.96 297.085 1346.35 280.008 1351.87C274.299 1353.1 268.824 1350.99 263.417 1354.1C238.806 1367.31 175.839 1420.71 150.447 1402.18C146.09 1398.5 142.519 1393.54 136.618 1392.36C121.717 1390.72 104.961 1401.2 88.9983 1403.73C54.6016 1413.37 12.2297 1408.6 7.199 1375.51C5.99241 1370.37 4.90723 1364.92 2.32343 1360.33C-3.70007 1348.84 -17.596 1345.98 -31.0099 1344.01C-158.448 1333.9 -254.9 1284.61 -272.129 1197.04C-274.014 1191.12 -276.797 1185.6 -281.493 1180.91C-286.781 1175.54 -294.577 1171.29 -304.126 1167.78C-393.924 1145.18 -461.283 1089.49 -426.368 1020.65C-417.695 1004.56 -413.291 987.963 -429.02 974.49C-499.716 926.26 -478.352 872.28 -395.205 825.861C-379.949 816.707 -364.304 803.527 -359.439 787.192C-308.116 513.431 -78.0727 455.289 164.041 553.334C205.76 569.625 283.709 637.762 330.308 674.155" fill="#FAFFE9"/>
</g>
<defs>
<clipPath id="clip0_54_12112">
<rect width="1080" height="1920" rx="30" fill="white"/>
</clipPath>
</defs>
</svg>
