<svg xmlns="http://www.w3.org/2000/svg" xmlns:xlink="http://www.w3.org/1999/xlink" viewBox="0 0 50 32"><style xmlns="" class="adjust-screen-brightness" media="screen">html::before {
  content: " ";
  z-index: 2147483647;
  pointer-events: none;
  position: fixed;
  left: 0;
  top: 0;
  width: 100vw;
  height: 100vh;
  background-color: rgba(0, 0, 0, 0.1);
}</style>
  <defs>
    <style>
      .cls-1 {
        clip-path: url(#clippath);
      }

      .cls-2 {
        fill: #fff;
      }

      .cls-3 {
        fill: #d51116;
      }

      .cls-4 {
        clip-path: url(#clippath-4);
      }

      .cls-5 {
        clip-path: url(#clippath-2);
      }

      .cls-6 {
        clip-path: url(#clippath-8);
      }

      .cls-7 {
        clip-path: url(#clippath-6);
      }

      .cls-8 {
        clip-path: url(#clippath-14);
      }

      .cls-9 {
        clip-path: url(#clippath-12);
      }

      .cls-10 {
        clip-path: url(#clippath-10);
      }

      .cls-11 {
        clip-path: url(#clippath-16);
      }
    </style>
    <clipPath id="clippath">
      <path class="cls-2" d="m88.17,445.97c.95,0,1.72-.77,1.72-1.72h0c0-.95-.77-1.72-1.72-1.72h0c-.95,0-1.72.77-1.72,1.72,0,.95.77,1.72,1.72,1.72Zm-13.2.93c-.47,1.24-1.15,2.39-1.99,3.42v-7.01l-3.61.71v12.7h3.61v-3.93c.72,1.22,1.25,2.55,1.56,3.93h4.32c-.43-1.78-2.3-5.05-2.3-5.05,1.11-1.43,1.97-3.05,2.53-4.77h-4.13Zm9.49-.13c-3.23.1-4.87,1.55-4.87,4.44v5.52h3.53v-4.5c0-1.73.23-2.47,2.27-2.54v-2.87c-.31-.05-.62-.06-.93-.05h0Zm-21.14,1.53c-.44-.03-1.46-.09-1.46-1.02,0-1.11,1.47-1.11,2.03-1.11,1.06.05,2.11.23,3.13.56,0,0,.5.18.93.36h.04s0-3.03,0-3.03l-.05-.02c-1.47-.53-3.02-.77-4.58-.73-3.94,0-5.34,2.3-5.34,4.26,0,1.13.49,3.8,5,4.11.38.02,1.4.08,1.4,1.03,0,.79-.83,1.25-2.23,1.25-1.34-.01-2.67-.27-3.92-.76v3.14c1.52.38,3.09.55,4.66.53,3.85,0,5.58-2.17,5.58-4.33,0-2.44-1.93-4.03-5.17-4.24h0Zm23.11,8.43h3.5v-9.81h-3.5v9.81Zm10.08-12.79v12.79h3.5v-13.42l-3.5.63h0Zm-5.1,0l3.49-.63v13.42h-3.49v-12.79h0Z"/>
    </clipPath>
    <clipPath id="clippath-2">
      <path class="cls-2" d="m250.17,445.97c.95,0,1.72-.77,1.72-1.72h0c0-.95-.77-1.72-1.72-1.72h0c-.95,0-1.72.77-1.72,1.72,0,.95.77,1.72,1.72,1.72Zm-13.2.93c-.47,1.24-1.15,2.39-1.99,3.42v-7.01l-3.61.71v12.7h3.61v-3.93c.72,1.22,1.25,2.55,1.56,3.93h4.32c-.43-1.78-2.3-5.05-2.3-5.05,1.11-1.43,1.97-3.05,2.53-4.77h-4.13Zm9.49-.13c-3.23.1-4.87,1.55-4.87,4.44v5.52h3.53v-4.5c0-1.73.23-2.47,2.27-2.54v-2.87c-.31-.05-.62-.06-.93-.05h0Zm-21.14,1.53c-.44-.03-1.46-.09-1.46-1.02,0-1.11,1.47-1.11,2.03-1.11,1.06.05,2.11.23,3.13.56,0,0,.5.18.93.36h.04s0-3.03,0-3.03l-.05-.02c-1.47-.53-3.02-.77-4.58-.73-3.94,0-5.34,2.3-5.34,4.26,0,1.13.49,3.8,5,4.11.38.02,1.4.08,1.4,1.03,0,.79-.83,1.25-2.23,1.25-1.34-.01-2.67-.27-3.92-.76v3.14c1.52.38,3.09.55,4.66.53,3.85,0,5.58-2.17,5.58-4.33,0-2.44-1.93-4.03-5.17-4.24h0Zm23.11,8.43h3.5v-9.81h-3.5v9.81Zm10.08-12.79v12.79h3.5v-13.42l-3.5.63h0Zm-5.1,0l3.49-.63v13.42h-3.49v-12.79h0Z"/>
    </clipPath>
    <clipPath id="clippath-4">
      <path class="cls-2" d="m256.41,519.46c-.27,0-.49-.22-.49-.49v-2.18h-.18c-1.13,0-1.55.19-1.55,1.22v6.37c.02.35-.07.69-.24.99-.31.47-.92.69-1.89.69s-1.58-.22-1.89-.69c-.18-.3-.26-.65-.24-.99v-6.37c0-1.03-.42-1.22-1.55-1.22h-.36c-1.13,0-1.55.19-1.55,1.22v6.37c-.03.91.21,1.81.68,2.59.86,1.36,2.53,2.08,4.91,2.08h.02c2.37,0,4.04-.72,4.91-2.08.47-.78.71-1.68.68-2.59v-4.91h-1.23"/>
    </clipPath>
    <clipPath id="clippath-6">
      <path class="cls-2" d="m261.63,515.94h-1.86c-.2,0-.37-.16-.37-.37v-1.88c0-.2.16-.37.37-.37h1.86c.2,0,.37.16.37.37v1.88c0,.2-.16.37-.37.37"/>
    </clipPath>
    <clipPath id="clippath-8">
      <path class="cls-2" d="m259.16,513.32h-1.26c-.14,0-.25-.11-.25-.25v-1.28c0-.14.11-.25.25-.25h1.26c.14,0,.25.11.25.25v1.28c0,.14-.11.25-.25.25"/>
    </clipPath>
    <clipPath id="clippath-10">
      <path class="cls-2" d="m227.21,520.66c0,1.51-.39,2.33-2.42,2.33h-3.13v-3.9c0-.54.2-.74.74-.74h2.39c1.53,0,2.42.38,2.42,2.31h0Zm-2.42-3.88h-2.7c-1.44,0-2.09.64-2.09,2.09v9.28c0,.56.18.74.74.74h.18c.56,0,.74-.18.74-.74v-3.61h3.13c2.78,0,4.08-1.23,4.08-3.88s-1.3-3.88-4.08-3.88h0Z"/>
    </clipPath>
    <clipPath id="clippath-12">
      <path class="cls-2" d="m234.7,524.71v1.27c0,1.04-.38,1.64-2.35,1.64-1.3,0-1.93-.47-1.93-1.44,0-1.06.63-1.47,2.26-1.47h2.02Zm-2.35-5.27c-.67,0-1.34.05-2,.19-.45.1-.64.22-.64.73v.15c-.01.15.02.3.09.44.08.12.21.18.36.17.09,0,.19-.02.28-.04.65-.13,1.32-.2,1.98-.2,1.62,0,2.28.45,2.28,1.55v.98h-2.04c-2.62,0-3.84.88-3.84,2.78s1.26,2.85,3.55,2.85c2.72,0,3.93-.93,3.93-3v-3.61c0-2.01-1.29-2.98-3.95-2.98h0Z"/>
    </clipPath>
    <clipPath id="clippath-14">
      <path class="cls-2" d="m245.26,519.87c-.15-.13-.35-.19-.55-.17h-.16c-.41-.07-.79.19-.87.6,0,.03,0,.06-.01.09l-1.52,6.3c-.19.77-.45.92-.91.92-.56,0-.78-.13-1-.92l-1.72-6.3c-.04-.42-.41-.74-.84-.7-.02,0-.04,0-.06,0h-.15c-.2-.03-.4.03-.55.17-.09.18-.1.4-.02.58l1.73,6.35c.33,1.22.71,2.22,2.16,2.22.25,0,.49-.03.73-.11-.44,1.38-.88,1.99-2.2,2.12-.27.02-.44.06-.54.19-.08.15-.1.33-.04.5l.04.16c.08.38.21.61.63.61.05,0,.09,0,.14,0,1.96-.13,3.01-1.19,3.63-3.65l2.1-8.4c.07-.19.06-.4-.03-.58"/>
    </clipPath>
    <clipPath id="clippath-16">
      <path class="cls-2" d="m258.91,515.65h-2.5c-.27,0-.49.22-.49.49v.35h.17c1.13,0,1.55.19,1.55,1.22v1.46h1.27c.27,0,.49-.22.49-.49v-2.53c0-.27-.22-.49-.49-.49"/>
    </clipPath>
  </defs>
  <g id="BG">
    <rect class="cls-2" width="50" height="32" rx="4" ry="4"/>
  </g>
  <g id="LOGOS">
    <path id="svg_13" data-name="svg 13" class="cls-3" d="m17.09,19.11l-.06.47c-.03.23.15.43.39.43h15.17c.24,0,.42-.2.39-.43l-.06-.47c-.04-.36.23-.7.59-.73.36-.04.69.23.72.59l.06.45c.12,1.01-.46,1.9-1.48,1.9h-15.6c-1.03,0-1.6-.89-1.48-1.9l.06-.45c.04-.36.36-.63.72-.59.36.04.63.37.59.73"/>
    <path id="svg_14" data-name="svg 14" d="m31.11,15.59c.74,0,1.33-.54,1.31-1.24-.02-.72-.67-1.19-1.41-1.19h-1.48c-.33,0-.6-.27-.6-.62s.27-.62.6-.62h.99c.67-.03,1.18-.43,1.22-1.06.03-.68-.55-1.19-1.26-1.19h-2.41v5.92s3.04,0,3.04,0h0Zm1.83-4.74c0,.62-.22.97-.58,1.4l-.04.04.05.03c.72.44,1.22,1.1,1.25,2.03.06,1.38-1.12,2.53-2.51,2.52h-3.67c-.36,0-.65-.3-.65-.66v-7.11c0-.37.29-.66.64-.66h3.03c1.32,0,2.46.98,2.46,2.41"/>
    <path id="svg_15" data-name="svg 15" d="m21.12,14.44l.02.05.02-.05c.17-.47.37-.99.59-1.55.22-.59.45-1.16.67-1.71.23-.55.44-1.04.64-1.47.2-.44.37-.74.5-.9.2-.24.47-.36.8-.36h.15c.2,0,.36.05.48.15.11.09.17.2.19.33l.95,7.35c0,.19-.05.34-.16.44-.11.1-.26.15-.46.15s-.36-.05-.48-.14c-.13-.09-.2-.22-.22-.37-.03-.24-.06-.52-.09-.81-.04-.3-.19-1.58-.23-1.9-.04-.33-.31-2.41-.4-3.16v-.06s-.31.64-.31.64c-.1.22-.21.48-.34.79-.12.31-.24.63-.37.97-.13.33-.72,2.01-.72,2.01-.05.15-.16.46-.25.74-.09.28-.18.53-.2.58-.14.28-.41.46-.76.46-.35,0-.62-.19-.76-.46-.03-.05-.11-.3-.21-.58-.09-.28-.2-.59-.25-.74,0,0-.59-1.68-.72-2.01-.12-.34-.24-.66-.37-.97-.12-.31-.23-.57-.33-.79l-.31-.64v.06c-.1.75-.36,2.83-.4,3.16-.04.32-.19,1.6-.23,1.9-.03.3-.06.57-.09.81-.02.15-.09.27-.22.37-.12.09-.28.14-.48.14s-.35-.05-.46-.15c-.11-.11-.16-.26-.16-.44l.95-7.35c.02-.12.08-.23.19-.33.12-.1.28-.15.48-.15h.15c.33,0,.59.12.79.36.13.16.3.46.5.9.2.43.42.92.64,1.47.22.54.45,1.11.67,1.71.22.57.42,1.08.59,1.55"/>
    <path id="svg_16" data-name="svg 16" class="cls-3" d="m19.26,4h11.52c1.09,0,1.63.82,1.75,1.89l.05.34c.04.37-.23.7-.59.74-.36.04-.69-.23-.73-.6l-.05-.33c-.05-.41-.22-.72-.64-.72h-11.11c-.42,0-.59.31-.64.72l-.04.33c-.04.37-.36.64-.73.6-.36-.04-.63-.37-.59-.74l.05-.34c.13-1.08.67-1.89,1.75-1.89"/>
    <path id="svg_17" data-name="svg 17" d="m19.96,24.32c-.08.31-.16.64-.25.99-.09.35-.17.68-.26,1-.08.32-.16.6-.24.84-.08.24-.14.41-.19.49-.09.16-.25.24-.47.24-.06,0-.14-.01-.24-.04-.1-.03-.18-.1-.25-.21-.05-.09-.11-.26-.19-.52-.08-.26-.15-.55-.24-.89-.08-.34-.17-.69-.25-1.07-.08-.37-.16-.72-.23-1.05-.07-.32-.12-.6-.17-.82-.04-.23-.07-.36-.08-.41,0-.03,0-.05,0-.06v-.03c0-.09.04-.17.11-.23.07-.06.16-.09.27-.09s.18.02.24.06c.06.04.11.12.13.22,0,.01.02.09.05.24.03.15.07.34.12.58.05.24.1.5.16.79.06.29.12.59.19.89.06.3.13.59.19.87.06.28.12.52.18.72.06-.19.12-.41.19-.65.07-.24.14-.49.2-.75.07-.26.13-.52.19-.78.06-.26.12-.5.17-.73.05-.22.1-.42.14-.59.04-.17.07-.3.09-.39.03-.11.08-.19.16-.25.08-.06.17-.09.29-.09.12,0,.22.03.3.1.08.06.13.15.15.25.06.27.13.58.2.92.07.34.15.68.23,1.03.08.35.16.69.24,1.02.08.33.17.63.24.88.06-.2.12-.44.18-.72.06-.28.13-.57.2-.86.07-.3.13-.59.19-.88.06-.29.12-.55.17-.78.05-.23.09-.42.12-.57.03-.15.05-.22.05-.23.03-.11.07-.18.14-.22.06-.04.14-.06.24-.06.11,0,.2.03.27.09.07.06.11.14.11.23v.03s0,.03,0,.06c0,.05-.03.18-.08.41-.05.23-.1.5-.17.82-.07.32-.14.67-.23,1.04-.08.37-.17.73-.25,1.06-.08.34-.16.63-.24.89-.08.25-.14.43-.19.52-.07.12-.15.19-.26.22-.1.03-.19.05-.25.05-.02,0-.06,0-.1,0-.04,0-.09-.02-.14-.03-.05-.02-.1-.04-.15-.08-.05-.04-.09-.09-.12-.15-.05-.11-.11-.28-.18-.53-.07-.25-.15-.52-.23-.83-.08-.31-.16-.63-.24-.97-.08-.34-.15-.66-.22-.95"/>
    <path id="svg_18" data-name="svg 18" d="m25.07,26.45c-.08.27-.16.52-.22.75-.07.23-.12.42-.18.56-.06.16-.19.24-.37.24-.13,0-.22-.03-.28-.1-.06-.07-.09-.15-.09-.25,0-.04,0-.08.02-.11.01-.03.05-.15.11-.34.06-.19.14-.44.23-.73.09-.29.2-.61.31-.96.12-.35.23-.69.36-1.03.12-.34.24-.66.36-.95.12-.29.23-.53.33-.71.05-.09.11-.16.18-.19.08-.03.18-.05.31-.05s.23.02.31.06c.09.04.15.11.18.2.08.17.17.39.28.67.11.28.22.59.34.92.12.33.24.66.36,1,.12.34.23.66.32.95.1.29.18.54.25.75s.11.34.13.4c.01.04.02.07.02.11,0,.1-.03.18-.1.25-.07.06-.17.1-.29.1-.1,0-.17-.02-.22-.06-.05-.04-.08-.1-.11-.18-.06-.15-.12-.33-.2-.56-.08-.23-.16-.48-.24-.75h-2.1Zm1.87-.73c-.12-.36-.23-.7-.34-1-.11-.31-.22-.59-.33-.87-.03-.06-.06-.13-.09-.21-.03-.08-.05-.13-.05-.15,0,0-.03.05-.05.14-.03.09-.06.16-.09.22-.11.27-.22.56-.33.87-.1.3-.21.64-.33,1h1.61Z"/>
    <path id="svg_19" data-name="svg 19" d="m30.86,25.83s-.05-.06-.08-.09c-.03-.03-.05-.07-.08-.12-.08-.11-.16-.25-.26-.41-.09-.16-.19-.33-.28-.51-.09-.18-.18-.36-.27-.54-.09-.18-.17-.35-.24-.51-.07-.16-.13-.29-.18-.41-.05-.12-.08-.2-.09-.24-.01-.03-.02-.05-.02-.06,0-.01,0-.04,0-.06,0-.1.04-.19.1-.25.07-.07.17-.1.29-.1.11,0,.19.03.24.08.05.06.08.11.1.17.01.03.04.09.08.18.04.1.09.21.15.35s.13.29.21.46c.08.17.16.33.24.5.08.16.16.32.24.47.08.15.15.27.21.36.11-.16.22-.37.35-.61.12-.25.24-.49.35-.73.11-.24.21-.45.29-.64.08-.19.13-.3.15-.34.02-.06.06-.11.1-.17.05-.06.13-.08.24-.08.12,0,.22.03.29.1.07.07.1.15.1.25,0,.03,0,.05,0,.06s-.01.04-.02.06c-.02.04-.05.12-.1.24-.05.12-.11.25-.18.41-.07.16-.15.33-.23.51-.09.18-.18.36-.27.54-.09.18-.19.35-.28.51-.09.16-.18.3-.26.41-.05.07-.1.14-.16.19v1.74c0,.11-.03.2-.11.27-.07.07-.16.1-.27.1s-.2-.04-.27-.1c-.07-.07-.11-.16-.11-.27v-1.74h0Z"/>
    <g>
      <path class="cls-2" d="m88.17,445.97c.95,0,1.72-.77,1.72-1.72h0c0-.95-.77-1.72-1.72-1.72h0c-.95,0-1.72.77-1.72,1.72,0,.95.77,1.72,1.72,1.72Zm-13.2.93c-.47,1.24-1.15,2.39-1.99,3.42v-7.01l-3.61.71v12.7h3.61v-3.93c.72,1.22,1.25,2.55,1.56,3.93h4.32c-.43-1.78-2.3-5.05-2.3-5.05,1.11-1.43,1.97-3.05,2.53-4.77h-4.13Zm9.49-.13c-3.23.1-4.87,1.55-4.87,4.44v5.52h3.53v-4.5c0-1.73.23-2.47,2.27-2.54v-2.87c-.31-.05-.62-.06-.93-.05h0Zm-21.14,1.53c-.44-.03-1.46-.09-1.46-1.02,0-1.11,1.47-1.11,2.03-1.11,1.06.05,2.11.23,3.13.56,0,0,.5.18.93.36h.04s0-3.03,0-3.03l-.05-.02c-1.47-.53-3.02-.77-4.58-.73-3.94,0-5.34,2.3-5.34,4.26,0,1.13.49,3.8,5,4.11.38.02,1.4.08,1.4,1.03,0,.79-.83,1.25-2.23,1.25-1.34-.01-2.67-.27-3.92-.76v3.14c1.52.38,3.09.55,4.66.53,3.85,0,5.58-2.17,5.58-4.33,0-2.44-1.93-4.03-5.17-4.24h0Zm23.11,8.43h3.5v-9.81h-3.5v9.81Zm10.08-12.79v12.79h3.5v-13.42l-3.5.63h0Zm-5.1,0l3.49-.63v13.42h-3.49v-12.79h0Z"/>
      <g class="cls-1">
        <rect class="cls-2" x="-278.94" y="6.57" width="715.88" height="1038.03"/>
      </g>
    </g>
    <g>
      <path class="cls-2" d="m250.17,445.97c.95,0,1.72-.77,1.72-1.72h0c0-.95-.77-1.72-1.72-1.72h0c-.95,0-1.72.77-1.72,1.72,0,.95.77,1.72,1.72,1.72Zm-13.2.93c-.47,1.24-1.15,2.39-1.99,3.42v-7.01l-3.61.71v12.7h3.61v-3.93c.72,1.22,1.25,2.55,1.56,3.93h4.32c-.43-1.78-2.3-5.05-2.3-5.05,1.11-1.43,1.97-3.05,2.53-4.77h-4.13Zm9.49-.13c-3.23.1-4.87,1.55-4.87,4.44v5.52h3.53v-4.5c0-1.73.23-2.47,2.27-2.54v-2.87c-.31-.05-.62-.06-.93-.05h0Zm-21.14,1.53c-.44-.03-1.46-.09-1.46-1.02,0-1.11,1.47-1.11,2.03-1.11,1.06.05,2.11.23,3.13.56,0,0,.5.18.93.36h.04s0-3.03,0-3.03l-.05-.02c-1.47-.53-3.02-.77-4.58-.73-3.94,0-5.34,2.3-5.34,4.26,0,1.13.49,3.8,5,4.11.38.02,1.4.08,1.4,1.03,0,.79-.83,1.25-2.23,1.25-1.34-.01-2.67-.27-3.92-.76v3.14c1.52.38,3.09.55,4.66.53,3.85,0,5.58-2.17,5.58-4.33,0-2.44-1.93-4.03-5.17-4.24h0Zm23.11,8.43h3.5v-9.81h-3.5v9.81Zm10.08-12.79v12.79h3.5v-13.42l-3.5.63h0Zm-5.1,0l3.49-.63v13.42h-3.49v-12.79h0Z"/>
      <g class="cls-5">
        <rect class="cls-2" x="-116.94" y="6.57" width="715.88" height="1038.03"/>
      </g>
    </g>
    <g>
      <path class="cls-2" d="m256.41,519.46c-.27,0-.49-.22-.49-.49v-2.18h-.18c-1.13,0-1.55.19-1.55,1.22v6.37c.02.35-.07.69-.24.99-.31.47-.92.69-1.89.69s-1.58-.22-1.89-.69c-.18-.3-.26-.65-.24-.99v-6.37c0-1.03-.42-1.22-1.55-1.22h-.36c-1.13,0-1.55.19-1.55,1.22v6.37c-.03.91.21,1.81.68,2.59.86,1.36,2.53,2.08,4.91,2.08h.02c2.37,0,4.04-.72,4.91-2.08.47-.78.71-1.68.68-2.59v-4.91h-1.23"/>
      <g class="cls-4">
        <rect class="cls-2" x="-95.03" y="-364.33" width="672.17" height="974.65"/>
      </g>
    </g>
    <g>
      <path class="cls-2" d="m261.63,515.94h-1.86c-.2,0-.37-.16-.37-.37v-1.88c0-.2.16-.37.37-.37h1.86c.2,0,.37.16.37.37v1.88c0,.2-.16.37-.37.37"/>
      <g class="cls-7">
        <rect class="cls-2" x="-95.03" y="-364.33" width="672.17" height="974.65"/>
      </g>
    </g>
    <g>
      <path class="cls-2" d="m259.16,513.32h-1.26c-.14,0-.25-.11-.25-.25v-1.28c0-.14.11-.25.25-.25h1.26c.14,0,.25.11.25.25v1.28c0,.14-.11.25-.25.25"/>
      <g class="cls-6">
        <rect class="cls-2" x="-95.03" y="-364.33" width="672.17" height="974.65"/>
      </g>
    </g>
    <g>
      <path class="cls-2" d="m227.21,520.66c0,1.51-.39,2.33-2.42,2.33h-3.13v-3.9c0-.54.2-.74.74-.74h2.39c1.53,0,2.42.38,2.42,2.31h0Zm-2.42-3.88h-2.7c-1.44,0-2.09.64-2.09,2.09v9.28c0,.56.18.74.74.74h.18c.56,0,.74-.18.74-.74v-3.61h3.13c2.78,0,4.08-1.23,4.08-3.88s-1.3-3.88-4.08-3.88h0Z"/>
      <g class="cls-10">
        <rect class="cls-2" x="-95.03" y="-364.33" width="672.17" height="974.65"/>
      </g>
    </g>
    <g>
      <path class="cls-2" d="m234.7,524.71v1.27c0,1.04-.38,1.64-2.35,1.64-1.3,0-1.93-.47-1.93-1.44,0-1.06.63-1.47,2.26-1.47h2.02Zm-2.35-5.27c-.67,0-1.34.05-2,.19-.45.1-.64.22-.64.73v.15c-.01.15.02.3.09.44.08.12.21.18.36.17.09,0,.19-.02.28-.04.65-.13,1.32-.2,1.98-.2,1.62,0,2.28.45,2.28,1.55v.98h-2.04c-2.62,0-3.84.88-3.84,2.78s1.26,2.85,3.55,2.85c2.72,0,3.93-.93,3.93-3v-3.61c0-2.01-1.29-2.98-3.95-2.98h0Z"/>
      <g class="cls-9">
        <rect class="cls-2" x="-95.03" y="-364.33" width="672.17" height="974.65"/>
      </g>
    </g>
    <g>
      <path class="cls-2" d="m245.26,519.87c-.15-.13-.35-.19-.55-.17h-.16c-.41-.07-.79.19-.87.6,0,.03,0,.06-.01.09l-1.52,6.3c-.19.77-.45.92-.91.92-.56,0-.78-.13-1-.92l-1.72-6.3c-.04-.42-.41-.74-.84-.7-.02,0-.04,0-.06,0h-.15c-.2-.03-.4.03-.55.17-.09.18-.1.4-.02.58l1.73,6.35c.33,1.22.71,2.22,2.16,2.22.25,0,.49-.03.73-.11-.44,1.38-.88,1.99-2.2,2.12-.27.02-.44.06-.54.19-.08.15-.1.33-.04.5l.04.16c.08.38.21.61.63.61.05,0,.09,0,.14,0,1.96-.13,3.01-1.19,3.63-3.65l2.1-8.4c.07-.19.06-.4-.03-.58"/>
      <g class="cls-8">
        <rect class="cls-2" x="-95.03" y="-364.33" width="672.17" height="974.65"/>
      </g>
    </g>
    <g>
      <path class="cls-2" d="m258.91,515.65h-2.5c-.27,0-.49.22-.49.49v.35h.17c1.13,0,1.55.19,1.55,1.22v1.46h1.27c.27,0,.49-.22.49-.49v-2.53c0-.27-.22-.49-.49-.49"/>
      <g class="cls-11">
        <rect class="cls-2" x="-95.03" y="-364.33" width="672.17" height="974.65"/>
      </g>
    </g>
  </g>
</svg>