
<svg id="Camada_1" data-name="Camada 1" xmlns="http://www.w3.org/2000/svg" viewBox="0 0 74.724 98.292" xmlns:bx="https://boxy-svg.com">
  <defs>
    <style>.cls-1{fill:red;}.cls-2{fill:#1d1d1b;}</style>
    <bx:export>
      <bx:file format="svg" href="#object-0"></bx:file>
    </bx:export>
  </defs>
  <bx:title>Logo_MBWay</bx:title>
  <g id="object-0">
    <path class="cls-1" d="M 5.57 60.68 L 5.33 62.56 C 5.224 63.409 5.83 64.181 6.68 64.28 L 67.79 64.28 C 68.652 64.291 69.359 63.602 69.37 62.74 C 69.375 62.677 69.375 62.613 69.37 62.55 L 69.12 60.67 C 68.974 59.206 70.037 57.898 71.5 57.74 C 72.95 57.582 74.253 58.63 74.41 60.08 L 74.65 61.91 C 75.12 65.98 72.81 69.56 68.65 69.56 L 6.01 69.56 C 1.89 69.56 -0.41 65.98 0.06 61.91 L 0.3 60.08 C 0.447 58.637 1.738 57.589 3.18 57.74 C 4.645 57.903 5.706 59.214 5.56 60.68"></path>
    <path class="cls-2" d="M 61.87 46.55 C 64.622 46.698 66.974 44.591 67.13 41.84 C 67.135 41.753 67.135 41.667 67.13 41.58 C 67.07 38.67 64.42 36.79 61.47 36.78 L 55.5 36.78 C 53.575 36.78 52.373 34.697 53.335 33.03 C 53.782 32.256 54.607 31.78 55.5 31.78 L 59.5 31.78 C 62.19 31.67 64.26 30.04 64.39 27.51 C 64.52 24.78 62.18 22.74 59.33 22.74 L 49.65 22.74 L 49.65 46.51 L 61.87 46.51 M 69.2 27.51 C 69.209 29.617 68.369 31.639 66.87 33.12 L 66.72 33.29 L 66.92 33.41 C 69.894 35.064 71.79 38.15 71.92 41.55 C 71.993 47.046 67.616 51.571 62.12 51.68 L 47.12 51.68 C 45.675 51.658 44.519 50.475 44.53 49.03 L 44.53 20.5 C 44.507 19.026 45.706 17.823 47.18 17.84 L 59.33 17.84 C 64.631 17.694 69.048 21.87 69.2 27.17 L 69.2 27.5"></path>
    <path class="cls-2" d="M 21.76 41.92 L 21.83 42.12 L 21.9 41.92 C 22.58 40.04 23.41 37.92 24.28 35.69 C 25.15 33.46 26.08 31.02 26.97 28.84 C 27.86 26.66 28.73 24.66 29.55 22.94 C 30.09 21.671 30.76 20.461 31.55 19.33 C 32.33 18.361 33.517 17.811 34.76 17.84 L 35.37 17.84 C 36.063 17.811 36.744 18.031 37.29 18.46 C 37.709 18.807 37.98 19.3 38.05 19.84 L 41.86 49.34 C 41.891 50 41.657 50.644 41.21 51.13 C 40.694 51.562 40.031 51.777 39.36 51.73 C 38.675 51.768 37.997 51.571 37.44 51.17 C 36.942 50.83 36.617 50.289 36.55 49.69 C 36.42 48.69 36.31 47.62 36.19 46.42 C 36.07 45.22 35.43 40.09 35.26 38.78 C 35.09 37.47 34.04 29.12 33.67 26.09 L 33.67 25.83 L 32.45 28.39 C 32.04 29.27 31.59 30.32 31.1 31.55 C 30.61 32.78 30.1 34.08 29.63 35.46 C 29.16 36.84 26.74 43.52 26.74 43.52 C 26.52 44.13 26.1 45.36 25.74 46.52 C 25.38 47.68 25.01 48.67 24.92 48.86 C 24.061 50.541 22.002 51.208 20.32 50.35 C 19.663 50.022 19.127 49.493 18.79 48.84 C 18.69 48.65 18.35 47.63 17.96 46.5 C 17.57 45.37 17.19 44.15 16.96 43.5 C 16.96 43.5 14.61 36.76 14.08 35.44 C 13.55 34.12 13.08 32.77 12.61 31.53 C 12.14 30.29 11.66 29.25 11.26 28.37 L 10.03 25.84 L 10.03 26.1 C 9.66 29.1 8.6 37.46 8.43 38.79 C 8.26 40.12 7.64 45.2 7.5 46.39 C 7.36 47.58 7.25 48.68 7.13 49.66 C 7.063 50.259 6.738 50.8 6.24 51.14 C 5.686 51.539 5.012 51.736 4.33 51.7 C 3.665 51.745 3.009 51.53 2.5 51.1 C 2.053 50.614 1.819 49.97 1.85 49.31 L 5.61 19.84 C 5.697 19.321 5.971 18.851 6.38 18.52 C 6.916 18.067 7.599 17.825 8.3 17.84 L 8.91 17.84 C 10.141 17.81 11.318 18.348 12.1 19.3 C 12.894 20.429 13.564 21.639 14.1 22.91 C 14.92 24.63 15.78 26.597 16.68 28.81 C 17.58 31.023 18.48 33.307 19.38 35.66 C 20.25 37.92 21.07 40.01 21.75 41.89"></path>
    <path class="cls-1" d="M 14.3 0 L 60.56 0 C 64.92 0 67.09 3.27 67.56 7.59 L 67.76 8.97 C 67.924 10.457 66.856 11.797 65.37 11.97 C 63.912 12.086 62.632 11.007 62.5 9.55 L 62.3 8.22 C 62.11 6.58 61.42 5.31 59.75 5.31 L 15.12 5.31 C 13.45 5.31 12.76 6.58 12.56 8.22 L 12.38 9.53 C 12.248 10.99 10.96 12.067 9.5 11.94 C 8.011 11.773 6.94 10.429 7.11 8.94 L 7.3 7.56 C 7.82 3.25 9.98 -0.03 14.3 -0.03"></path>
    <path class="cls-2" d="M 20.585 83.546 C 20.265 84.776 19.935 86.096 19.585 87.546 C 19.235 88.996 18.885 90.296 18.585 91.546 C 18.285 92.796 17.935 93.936 17.585 94.906 C 17.398 95.596 17.144 96.266 16.825 96.906 C 16.426 97.553 15.693 97.918 14.935 97.846 C 14.597 97.838 14.261 97.787 13.935 97.696 C 13.496 97.563 13.133 97.251 12.935 96.836 C 12.619 96.168 12.364 95.471 12.175 94.756 C 11.875 93.756 11.555 92.536 11.175 91.186 C 10.795 89.836 10.505 88.416 10.175 86.906 C 9.845 85.396 9.525 83.996 9.265 82.706 C 9.005 81.416 8.765 80.306 8.585 79.406 C 8.405 78.506 8.305 77.956 8.275 77.766 C 8.27 77.689 8.27 77.613 8.275 77.536 L 8.275 77.406 C 8.264 77.043 8.428 76.697 8.715 76.476 C 9.022 76.234 9.405 76.11 9.795 76.126 C 10.147 76.111 10.496 76.201 10.795 76.386 C 11.084 76.602 11.278 76.921 11.335 77.276 C 11.335 77.276 11.395 77.646 11.515 78.276 C 11.635 78.906 11.805 79.656 11.995 80.586 C 12.185 81.516 12.405 82.586 12.635 83.756 C 12.865 84.926 13.115 86.116 13.385 87.316 C 13.655 88.516 13.905 89.666 14.165 90.796 C 14.425 91.926 14.655 92.886 14.885 93.696 C 15.105 92.936 15.355 92.066 15.625 91.086 C 15.895 90.106 16.175 89.086 16.445 88.086 C 16.715 87.086 16.965 85.996 17.215 84.956 C 17.465 83.916 17.695 82.956 17.915 82.036 C 18.135 81.116 18.305 80.346 18.465 79.646 C 18.625 78.946 18.745 78.436 18.835 78.096 C 18.937 77.703 19.161 77.352 19.475 77.096 C 19.781 76.819 20.173 76.656 20.585 76.636 C 21.026 76.616 21.459 76.754 21.805 77.026 C 22.116 77.279 22.329 77.633 22.405 78.026 C 22.675 79.116 22.935 80.356 23.225 81.716 C 23.515 83.076 23.825 84.446 24.135 85.836 C 24.445 87.226 24.785 88.596 25.135 89.936 C 25.485 91.276 25.805 92.456 26.135 93.486 C 26.355 92.676 26.605 91.716 26.865 90.596 C 27.125 89.476 27.375 88.316 27.645 87.116 C 27.915 85.916 28.185 84.756 28.425 83.586 C 28.665 82.416 28.905 81.366 29.105 80.436 C 29.305 79.506 29.475 78.746 29.585 78.166 C 29.695 77.586 29.775 77.266 29.775 77.246 C 29.845 76.898 30.036 76.586 30.315 76.366 C 30.614 76.179 30.963 76.088 31.315 76.106 C 31.708 76.092 32.094 76.216 32.405 76.456 C 32.689 76.681 32.852 77.024 32.845 77.386 L 32.845 77.516 C 32.85 77.596 32.85 77.676 32.845 77.756 C 32.845 77.936 32.715 78.476 32.525 79.396 C 32.335 80.316 32.105 81.396 31.835 82.686 C 31.565 83.976 31.255 85.376 30.925 86.866 C 30.595 88.356 30.245 89.776 29.925 91.126 C 29.605 92.476 29.285 93.666 28.925 94.686 C 28.738 95.395 28.484 96.085 28.165 96.746 C 27.964 97.166 27.604 97.489 27.165 97.646 C 26.843 97.755 26.506 97.816 26.165 97.826 C 26.029 97.836 25.892 97.836 25.755 97.826 C 25.559 97.798 25.365 97.755 25.175 97.696 C 24.961 97.62 24.759 97.512 24.575 97.376 C 24.366 97.221 24.2 97.015 24.095 96.776 C 23.803 96.088 23.563 95.38 23.375 94.656 C 23.085 93.656 22.785 92.556 22.455 91.316 C 22.125 90.076 21.815 88.756 21.455 87.396 C 21.095 86.036 20.845 84.766 20.575 83.586"></path>
    <path class="cls-2" d="M 38.275 91.586 C 37.935 92.666 37.635 93.666 37.385 94.586 C 37.135 95.506 36.875 96.256 36.655 96.846 C 36.502 98.001 35.155 98.556 34.232 97.845 C 33.804 97.515 33.584 96.982 33.655 96.446 C 33.654 96.296 33.677 96.148 33.725 96.006 L 34.145 94.616 C 34.385 93.836 34.695 92.866 35.075 91.686 C 35.455 90.506 35.885 89.246 36.345 87.856 C 36.805 86.466 37.285 85.086 37.775 83.726 C 38.265 82.366 38.775 81.096 39.235 79.926 C 39.62 78.943 40.071 77.987 40.585 77.066 C 40.731 76.732 40.99 76.46 41.315 76.296 C 41.711 76.146 42.133 76.078 42.555 76.096 C 42.99 76.087 43.422 76.165 43.825 76.326 C 44.164 76.488 44.424 76.78 44.545 77.136 C 44.865 77.806 45.245 78.716 45.675 79.846 C 46.105 80.976 46.585 82.206 47.065 83.526 C 47.545 84.846 48.065 86.186 48.505 87.526 C 48.945 88.866 49.415 90.166 49.805 91.346 C 50.195 92.526 50.535 93.536 50.805 94.346 C 51.075 95.156 51.265 95.716 51.325 95.966 C 51.374 96.108 51.397 96.256 51.395 96.406 C 51.416 96.784 51.265 97.151 50.985 97.406 C 50.666 97.691 50.242 97.832 49.815 97.796 C 49.504 97.825 49.194 97.736 48.945 97.546 C 48.736 97.349 48.581 97.101 48.495 96.826 C 48.265 96.236 48.005 95.486 47.695 94.566 C 47.385 93.646 47.065 92.646 46.695 91.566 L 38.245 91.566 M 45.745 88.636 C 45.265 87.176 44.825 85.836 44.395 84.636 C 43.965 83.436 43.585 82.286 43.105 81.146 C 42.995 80.896 42.875 80.616 42.755 80.276 C 42.635 79.936 42.555 79.766 42.535 79.706 C 42.442 79.877 42.368 80.058 42.315 80.246 C 42.185 80.606 42.075 80.896 41.955 81.146 C 41.505 82.246 41.075 83.406 40.655 84.636 C 40.235 85.866 39.795 87.196 39.325 88.636 L 45.745 88.636 Z"></path>
    <path class="cls-2" d="M 57.235 89.336 C 57.118 89.219 57.011 89.092 56.915 88.956 L 56.585 88.496 C 56.265 88.046 55.935 87.496 55.585 86.856 C 55.235 86.216 54.835 85.536 54.465 84.856 C 54.095 84.176 53.735 83.406 53.395 82.676 C 53.055 81.946 52.715 81.266 52.445 80.676 C 52.175 80.086 51.915 79.496 51.715 79.036 C 51.565 78.713 51.441 78.379 51.345 78.036 C 51.307 77.953 51.276 77.866 51.255 77.776 C 51.255 77.776 51.255 77.646 51.255 77.526 C 51.253 77.149 51.405 76.788 51.675 76.526 C 51.993 76.236 52.416 76.088 52.845 76.116 C 53.213 76.075 53.579 76.199 53.845 76.456 C 54.021 76.653 54.16 76.88 54.255 77.126 L 54.585 77.866 C 54.755 78.246 54.965 78.716 55.205 79.276 C 55.445 79.836 55.735 80.456 56.055 81.136 C 56.375 81.816 56.685 82.466 57.055 83.136 L 58.005 85.006 C 58.263 85.509 58.55 85.997 58.865 86.466 C 59.375 85.67 59.84 84.845 60.255 83.996 C 60.745 82.996 61.255 82.046 61.665 81.076 C 62.075 80.106 62.505 79.256 62.845 78.526 L 63.435 77.136 C 63.534 76.889 63.677 76.663 63.855 76.466 C 64.115 76.199 64.487 76.072 64.855 76.126 C 65.285 76.095 65.709 76.244 66.025 76.536 C 66.303 76.793 66.457 77.158 66.445 77.536 C 66.456 77.619 66.456 77.703 66.445 77.786 L 66.365 78.046 L 65.975 79.046 C 65.785 79.516 65.545 80.046 65.255 80.686 C 64.965 81.326 64.665 81.996 64.325 82.686 C 63.985 83.376 63.605 84.136 63.235 84.866 C 62.865 85.596 62.495 86.266 62.125 86.866 C 61.755 87.466 61.405 88.076 61.125 88.516 C 60.934 88.796 60.716 89.057 60.475 89.296 L 60.475 96.296 C 60.495 96.708 60.343 97.11 60.055 97.406 C 59.46 97.994 58.501 97.994 57.905 97.406 C 57.595 97.105 57.425 96.688 57.435 96.256 L 57.435 89.256"></path>
  </g>
</svg>