<svg xmlns="http://www.w3.org/2000/svg" width="100" height="66" viewBox="0 0 100 66" fill="transparent">
    <rect x="0.5" y="0.5" width="99" height="65" rx="3.5" stroke="var(--border-color, #DDDDDD)"/>
    <path xmlns="http://www.w3.org/2000/svg" d="M12.8576 40.764L14.0756 44.268L15.2996 40.764H16.0436L14.5136 45H13.6376L12.1136 40.764H12.8576ZM19.6227 43.188C19.6227 43.3 19.6147 43.398 19.5987 43.482H17.0547C17.0667 43.822 17.1607 44.074 17.3367 44.238C17.5127 44.402 17.7307 44.484 17.9907 44.484C18.2187 44.484 18.4107 44.426 18.5667 44.31C18.7267 44.194 18.8247 44.04 18.8607 43.848H19.5927C19.5487 44.08 19.4567 44.286 19.3167 44.466C19.1767 44.646 18.9947 44.788 18.7707 44.892C18.5467 44.992 18.2967 45.042 18.0207 45.042C17.7007 45.042 17.4167 44.974 17.1687 44.838C16.9247 44.702 16.7327 44.506 16.5927 44.25C16.4527 43.994 16.3827 43.692 16.3827 43.344C16.3827 43 16.4527 42.7 16.5927 42.444C16.7327 42.188 16.9247 41.992 17.1687 41.856C17.4167 41.72 17.7007 41.652 18.0207 41.652C18.3447 41.652 18.6267 41.72 18.8667 41.856C19.1107 41.988 19.2967 42.172 19.4247 42.408C19.5567 42.64 19.6227 42.9 19.6227 43.188ZM18.9327 43.17C18.9407 42.954 18.9027 42.774 18.8187 42.63C18.7387 42.482 18.6267 42.374 18.4827 42.306C18.3427 42.234 18.1887 42.198 18.0207 42.198C17.7527 42.198 17.5287 42.28 17.3487 42.444C17.1687 42.608 17.0707 42.85 17.0547 43.17H18.9327ZM20.9671 42.342C21.0791 42.126 21.2391 41.956 21.4471 41.832C21.6551 41.704 21.8951 41.64 22.1671 41.64V42.384H21.9631C21.6631 42.384 21.4211 42.458 21.2371 42.606C21.0571 42.75 20.9671 42.99 20.9671 43.326V45H20.2831V41.694H20.9671V42.342ZM25.4119 41.652C25.7119 41.652 25.9679 41.726 26.1799 41.874C26.3919 42.022 26.5419 42.218 26.6299 42.462V41.694H27.3139V45H26.6299V44.232C26.5419 44.476 26.3919 44.672 26.1799 44.82C25.9679 44.968 25.7119 45.042 25.4119 45.042C25.1239 45.042 24.8659 44.974 24.6379 44.838C24.4139 44.702 24.2379 44.506 24.1099 44.25C23.9819 43.994 23.9179 43.692 23.9179 43.344C23.9179 43 23.9819 42.7 24.1099 42.444C24.2379 42.188 24.4139 41.992 24.6379 41.856C24.8659 41.72 25.1239 41.652 25.4119 41.652ZM25.6219 42.252C25.3179 42.252 25.0739 42.35 24.8899 42.546C24.7099 42.738 24.6199 43.004 24.6199 43.344C24.6199 43.684 24.7099 43.952 24.8899 44.148C25.0739 44.34 25.3179 44.436 25.6219 44.436C25.8139 44.436 25.9859 44.392 26.1379 44.304C26.2899 44.212 26.4099 44.084 26.4979 43.92C26.5859 43.756 26.6299 43.564 26.6299 43.344C26.6299 43.128 26.5859 42.938 26.4979 42.774C26.4099 42.606 26.2899 42.478 26.1379 42.39C25.9859 42.298 25.8139 42.252 25.6219 42.252ZM31.011 41.652C31.439 41.652 31.793 41.766 32.073 41.994C32.353 42.218 32.527 42.524 32.595 42.912H31.869C31.829 42.704 31.731 42.542 31.575 42.426C31.423 42.306 31.231 42.246 30.999 42.246C30.735 42.246 30.515 42.34 30.339 42.528C30.163 42.712 30.075 42.984 30.075 43.344C30.075 43.704 30.163 43.978 30.339 44.166C30.515 44.354 30.735 44.448 30.999 44.448C31.231 44.448 31.423 44.388 31.575 44.268C31.731 44.148 31.829 43.984 31.869 43.776H32.595C32.527 44.164 32.353 44.472 32.073 44.7C31.793 44.928 31.439 45.042 31.011 45.042C30.691 45.042 30.407 44.974 30.159 44.838C29.915 44.702 29.723 44.506 29.583 44.25C29.443 43.994 29.373 43.692 29.373 43.344C29.373 43 29.443 42.7 29.583 42.444C29.723 42.188 29.915 41.992 30.159 41.856C30.407 41.72 30.691 41.652 31.011 41.652ZM34.7678 41.652C35.0878 41.652 35.3758 41.72 35.6318 41.856C35.8878 41.992 36.0878 42.188 36.2318 42.444C36.3758 42.7 36.4478 43 36.4478 43.344C36.4478 43.692 36.3758 43.994 36.2318 44.25C36.0878 44.506 35.8878 44.702 35.6318 44.838C35.3758 44.974 35.0878 45.042 34.7678 45.042C34.4478 45.042 34.1598 44.974 33.9038 44.838C33.6518 44.702 33.4518 44.506 33.3038 44.25C33.1598 43.99 33.0878 43.688 33.0878 43.344C33.0878 43 33.1598 42.7 33.3038 42.444C33.4518 42.188 33.6518 41.992 33.9038 41.856C34.1598 41.72 34.4478 41.652 34.7678 41.652ZM34.7678 42.246C34.5918 42.246 34.4298 42.286 34.2818 42.366C34.1338 42.446 34.0138 42.57 33.9218 42.738C33.8338 42.902 33.7898 43.104 33.7898 43.344C33.7898 43.588 33.8338 43.792 33.9218 43.956C34.0138 44.12 34.1338 44.242 34.2818 44.322C34.4298 44.402 34.5918 44.442 34.7678 44.442C34.9438 44.442 35.1058 44.402 35.2538 44.322C35.4018 44.242 35.5198 44.12 35.6078 43.956C35.6998 43.792 35.7458 43.588 35.7458 43.344C35.7458 43.104 35.6998 42.902 35.6078 42.738C35.5198 42.57 35.4018 42.446 35.2538 42.366C35.1058 42.286 34.9438 42.246 34.7678 42.246ZM38.9534 41.64C39.3374 41.64 39.6454 41.764 39.8774 42.012C40.1094 42.26 40.2254 42.614 40.2254 43.074V45H39.5414V43.146C39.5414 42.85 39.4654 42.622 39.3134 42.462C39.1614 42.298 38.9534 42.216 38.6894 42.216C38.4174 42.216 38.1994 42.304 38.0354 42.48C37.8714 42.652 37.7894 42.906 37.7894 43.242V45H37.1054V41.694H37.7894V42.42C37.8774 42.172 38.0254 41.98 38.2334 41.844C38.4414 41.708 38.6814 41.64 38.9534 41.64ZM42.6873 44.406V45H42.2673C41.9153 45 41.6473 44.916 41.4633 44.748C41.2833 44.576 41.1933 44.292 41.1933 43.896V42.276H40.7193V41.694H41.1933V40.872H41.8833V41.694H42.6813V42.276H41.8833V43.908C41.8833 44.096 41.9173 44.226 41.9853 44.298C42.0573 44.37 42.1813 44.406 42.3573 44.406H42.6873ZM44.6541 41.652C44.9541 41.652 45.2101 41.726 45.4221 41.874C45.6341 42.022 45.7841 42.218 45.8721 42.462V41.694H46.5561V45H45.8721V44.232C45.7841 44.476 45.6341 44.672 45.4221 44.82C45.2101 44.968 44.9541 45.042 44.6541 45.042C44.3661 45.042 44.1081 44.974 43.8801 44.838C43.6561 44.702 43.4801 44.506 43.3521 44.25C43.2241 43.994 43.1601 43.692 43.1601 43.344C43.1601 43 43.2241 42.7 43.3521 42.444C43.4801 42.188 43.6561 41.992 43.8801 41.856C44.1081 41.72 44.3661 41.652 44.6541 41.652ZM44.8641 42.252C44.5601 42.252 44.3161 42.35 44.1321 42.546C43.9521 42.738 43.8621 43.004 43.8621 43.344C43.8621 43.684 43.9521 43.952 44.1321 44.148C44.3161 44.34 44.5601 44.436 44.8641 44.436C45.0561 44.436 45.2281 44.392 45.3801 44.304C45.5321 44.212 45.6521 44.084 45.7401 43.92C45.8281 43.756 45.8721 43.564 45.8721 43.344C45.8721 43.128 45.8281 42.938 45.7401 42.774C45.6521 42.606 45.5321 42.478 45.3801 42.39C45.2281 42.298 45.0561 42.252 44.8641 42.252ZM51.8551 43.188C51.8551 43.3 51.8471 43.398 51.8311 43.482H49.2871C49.2991 43.822 49.3931 44.074 49.5691 44.238C49.7451 44.402 49.9631 44.484 50.2231 44.484C50.4511 44.484 50.6431 44.426 50.7991 44.31C50.9591 44.194 51.0571 44.04 51.0931 43.848H51.8251C51.7811 44.08 51.6891 44.286 51.5491 44.466C51.4091 44.646 51.2271 44.788 51.0031 44.892C50.7791 44.992 50.5291 45.042 50.2531 45.042C49.9331 45.042 49.6491 44.974 49.4011 44.838C49.1571 44.702 48.9651 44.506 48.8251 44.25C48.6851 43.994 48.6151 43.692 48.6151 43.344C48.6151 43 48.6851 42.7 48.8251 42.444C48.9651 42.188 49.1571 41.992 49.4011 41.856C49.6491 41.72 49.9331 41.652 50.2531 41.652C50.5771 41.652 50.8591 41.72 51.0991 41.856C51.3431 41.988 51.5291 42.172 51.6571 42.408C51.7891 42.64 51.8551 42.9 51.8551 43.188ZM51.1651 43.17C51.1731 42.954 51.1351 42.774 51.0511 42.63C50.9711 42.482 50.8591 42.374 50.7151 42.306C50.5751 42.234 50.4211 42.198 50.2531 42.198C49.9851 42.198 49.7611 42.28 49.5811 42.444C49.4011 42.608 49.3031 42.85 49.2871 43.17H51.1651ZM55.8178 41.652C56.1058 41.652 56.3618 41.72 56.5858 41.856C56.8138 41.992 56.9918 42.188 57.1198 42.444C57.2478 42.7 57.3118 43 57.3118 43.344C57.3118 43.692 57.2478 43.994 57.1198 44.25C56.9918 44.506 56.8138 44.702 56.5858 44.838C56.3618 44.974 56.1058 45.042 55.8178 45.042C55.5178 45.042 55.2618 44.968 55.0498 44.82C54.8378 44.672 54.6898 44.476 54.6058 44.232V46.572H53.9218V41.694H54.6058V42.462C54.6898 42.218 54.8378 42.022 55.0498 41.874C55.2618 41.726 55.5178 41.652 55.8178 41.652ZM55.6078 42.252C55.4158 42.252 55.2438 42.298 55.0918 42.39C54.9398 42.478 54.8198 42.606 54.7318 42.774C54.6438 42.938 54.5998 43.128 54.5998 43.344C54.5998 43.564 54.6438 43.756 54.7318 43.92C54.8198 44.084 54.9398 44.212 55.0918 44.304C55.2438 44.392 55.4158 44.436 55.6078 44.436C55.9118 44.436 56.1558 44.34 56.3398 44.148C56.5238 43.952 56.6158 43.684 56.6158 43.344C56.6158 43.008 56.5238 42.742 56.3398 42.546C56.1558 42.35 55.9118 42.252 55.6078 42.252ZM59.2966 41.652C59.5966 41.652 59.8526 41.726 60.0646 41.874C60.2766 42.022 60.4266 42.218 60.5146 42.462V41.694H61.1986V45H60.5146V44.232C60.4266 44.476 60.2766 44.672 60.0646 44.82C59.8526 44.968 59.5966 45.042 59.2966 45.042C59.0086 45.042 58.7506 44.974 58.5226 44.838C58.2986 44.702 58.1226 44.506 57.9946 44.25C57.8666 43.994 57.8026 43.692 57.8026 43.344C57.8026 43 57.8666 42.7 57.9946 42.444C58.1226 42.188 58.2986 41.992 58.5226 41.856C58.7506 41.72 59.0086 41.652 59.2966 41.652ZM59.5066 42.252C59.2026 42.252 58.9586 42.35 58.7746 42.546C58.5946 42.738 58.5046 43.004 58.5046 43.344C58.5046 43.684 58.5946 43.952 58.7746 44.148C58.9586 44.34 59.2026 44.436 59.5066 44.436C59.6986 44.436 59.8706 44.392 60.0226 44.304C60.1746 44.212 60.2946 44.084 60.3826 43.92C60.4706 43.756 60.5146 43.564 60.5146 43.344C60.5146 43.128 60.4706 42.938 60.3826 42.774C60.2946 42.606 60.1746 42.478 60.0226 42.39C59.8706 42.298 59.6986 42.252 59.5066 42.252ZM63.3455 41.652C63.6455 41.652 63.9015 41.726 64.1135 41.874C64.3255 42.022 64.4755 42.218 64.5635 42.462V41.694H65.2475V45.036C65.2475 45.344 65.1835 45.616 65.0555 45.852C64.9315 46.092 64.7515 46.28 64.5155 46.416C64.2795 46.552 63.9995 46.62 63.6755 46.62C63.2115 46.62 62.8355 46.51 62.5475 46.29C62.2635 46.07 62.0855 45.772 62.0135 45.396H62.6915C62.7475 45.592 62.8555 45.744 63.0155 45.852C63.1755 45.964 63.3795 46.02 63.6275 46.02C63.8995 46.02 64.1235 45.936 64.2995 45.768C64.4755 45.6 64.5635 45.356 64.5635 45.036V44.232C64.4755 44.476 64.3255 44.672 64.1135 44.82C63.9015 44.968 63.6455 45.042 63.3455 45.042C63.0575 45.042 62.7995 44.974 62.5715 44.838C62.3475 44.702 62.1715 44.506 62.0435 44.25C61.9155 43.994 61.8515 43.692 61.8515 43.344C61.8515 43 61.9155 42.7 62.0435 42.444C62.1715 42.188 62.3475 41.992 62.5715 41.856C62.7995 41.72 63.0575 41.652 63.3455 41.652ZM63.5555 42.252C63.2515 42.252 63.0075 42.35 62.8235 42.546C62.6435 42.738 62.5535 43.004 62.5535 43.344C62.5535 43.684 62.6435 43.952 62.8235 44.148C63.0075 44.34 63.2515 44.436 63.5555 44.436C63.7475 44.436 63.9195 44.392 64.0715 44.304C64.2235 44.212 64.3435 44.084 64.4315 43.92C64.5195 43.756 64.5635 43.564 64.5635 43.344C64.5635 43.128 64.5195 42.938 64.4315 42.774C64.3435 42.606 64.2235 42.478 64.0715 42.39C63.9195 42.298 63.7475 42.252 63.5555 42.252ZM67.3943 41.652C67.6943 41.652 67.9503 41.726 68.1623 41.874C68.3743 42.022 68.5243 42.218 68.6123 42.462V41.694H69.2963V45H68.6123V44.232C68.5243 44.476 68.3743 44.672 68.1623 44.82C67.9503 44.968 67.6943 45.042 67.3943 45.042C67.1063 45.042 66.8483 44.974 66.6203 44.838C66.3963 44.702 66.2203 44.506 66.0923 44.25C65.9643 43.994 65.9003 43.692 65.9003 43.344C65.9003 43 65.9643 42.7 66.0923 42.444C66.2203 42.188 66.3963 41.992 66.6203 41.856C66.8483 41.72 67.1063 41.652 67.3943 41.652ZM67.6043 42.252C67.3003 42.252 67.0563 42.35 66.8723 42.546C66.6923 42.738 66.6023 43.004 66.6023 43.344C66.6023 43.684 66.6923 43.952 66.8723 44.148C67.0563 44.34 67.3003 44.436 67.6043 44.436C67.7963 44.436 67.9683 44.392 68.1203 44.304C68.2723 44.212 68.3923 44.084 68.4803 43.92C68.5683 43.756 68.6123 43.564 68.6123 43.344C68.6123 43.128 68.5683 42.938 68.4803 42.774C68.3923 42.606 68.2723 42.478 68.1203 42.39C67.9683 42.298 67.7963 42.252 67.6043 42.252ZM70.8011 42.342C70.9131 42.126 71.0731 41.956 71.2811 41.832C71.4891 41.704 71.7291 41.64 72.0011 41.64V42.384H71.7971C71.4971 42.384 71.2551 42.458 71.0711 42.606C70.8911 42.75 70.8011 42.99 70.8011 43.326V45H70.1171V41.694H70.8011V42.342ZM75.2459 41.652C75.5459 41.652 75.8019 41.726 76.0139 41.874C76.2259 42.022 76.3759 42.218 76.4639 42.462V41.694H77.1479V45H76.4639V44.232C76.3759 44.476 76.2259 44.672 76.0139 44.82C75.8019 44.968 75.5459 45.042 75.2459 45.042C74.9579 45.042 74.6999 44.974 74.4719 44.838C74.2479 44.702 74.0719 44.506 73.9439 44.25C73.8159 43.994 73.7519 43.692 73.7519 43.344C73.7519 43 73.8159 42.7 73.9439 42.444C74.0719 42.188 74.2479 41.992 74.4719 41.856C74.6999 41.72 74.9579 41.652 75.2459 41.652ZM75.4559 42.252C75.1519 42.252 74.9079 42.35 74.7239 42.546C74.5439 42.738 74.4539 43.004 74.4539 43.344C74.4539 43.684 74.5439 43.952 74.7239 44.148C74.9079 44.34 75.1519 44.436 75.4559 44.436C75.6479 44.436 75.8199 44.392 75.9719 44.304C76.1239 44.212 76.2439 44.084 76.3319 43.92C76.4199 43.756 76.4639 43.564 76.4639 43.344C76.4639 43.128 76.4199 42.938 76.3319 42.774C76.2439 42.606 76.1239 42.478 75.9719 42.39C75.8199 42.298 75.6479 42.252 75.4559 42.252ZM79.3427 41.658C79.6227 41.658 79.8627 41.722 80.0627 41.85C80.2627 41.978 80.4127 42.156 80.5127 42.384V41.694H81.1967V46.572H80.5127V44.274C80.4087 44.514 80.2567 44.702 80.0567 44.838C79.8567 44.974 79.6187 45.042 79.3427 45.042C79.0547 45.042 78.7927 44.972 78.5567 44.832C78.3207 44.692 78.1347 44.496 77.9987 44.244C77.8667 43.988 77.8007 43.692 77.8007 43.356C77.8007 43.02 77.8667 42.724 77.9987 42.468C78.1347 42.212 78.3207 42.014 78.5567 41.874C78.7927 41.73 79.0547 41.658 79.3427 41.658ZM79.5047 42.258C79.2127 42.258 78.9727 42.356 78.7847 42.552C78.5967 42.744 78.5027 43.012 78.5027 43.356C78.5027 43.7 78.5947 43.966 78.7787 44.154C78.9667 44.342 79.2087 44.436 79.5047 44.436C79.6887 44.436 79.8567 44.394 80.0087 44.31C80.1607 44.222 80.2827 44.096 80.3747 43.932C80.4667 43.768 80.5127 43.572 80.5127 43.344C80.5127 43.12 80.4667 42.926 80.3747 42.762C80.2827 42.598 80.1607 42.474 80.0087 42.39C79.8567 42.302 79.6887 42.258 79.5047 42.258ZM85.0655 41.694V45H84.3755V44.28C84.2915 44.524 84.1455 44.714 83.9375 44.85C83.7295 44.982 83.4875 45.048 83.2115 45.048C82.8275 45.048 82.5195 44.924 82.2875 44.676C82.0555 44.428 81.9395 44.074 81.9395 43.614V41.694H82.6235V43.542C82.6235 43.842 82.6995 44.074 82.8515 44.238C83.0035 44.398 83.2115 44.478 83.4755 44.478C83.7475 44.478 83.9655 44.39 84.1295 44.214C84.2935 44.038 84.3755 43.782 84.3755 43.446V41.694H85.0655ZM85.7887 40.734C85.7887 40.618 85.8287 40.522 85.9087 40.446C85.9887 40.37 86.0947 40.332 86.2267 40.332C86.3587 40.332 86.4647 40.37 86.5447 40.446C86.6287 40.522 86.6707 40.618 86.6707 40.734C86.6707 40.85 86.6287 40.944 86.5447 41.016C86.4647 41.088 86.3587 41.124 86.2267 41.124C86.0947 41.124 85.9887 41.088 85.9087 41.016C85.8287 40.944 85.7887 40.85 85.7887 40.734ZM86.5687 41.694V45H85.8847V41.694H86.5687Z" fill="var(--font-color, #212529)"/>
    <path d="M60.5016 25.176C60.8749 25.176 61.1949 25.2427 61.4616 25.376C61.7282 25.504 61.9282 25.6827 62.0616 25.912C62.2002 26.1413 62.2696 26.3973 62.2696 26.68C62.2696 27.0373 62.1682 27.336 61.9656 27.576C61.7682 27.8107 61.4882 27.952 61.1256 28V28.04C61.5149 28.152 61.8189 28.32 62.0376 28.544C62.2616 28.7627 62.3736 29.0667 62.3736 29.456C62.3736 29.9307 62.2162 30.3173 61.9016 30.616C61.5869 30.9093 61.1362 31.056 60.5496 31.056C59.9469 31.056 59.4616 30.904 59.0936 30.6C58.7256 30.2907 58.5149 29.8347 58.4616 29.232H59.3656C59.3976 29.552 59.5122 29.808 59.7096 30C59.9069 30.1867 60.1736 30.28 60.5096 30.28C60.8242 30.28 61.0642 30.1973 61.2296 30.032C61.4002 29.8667 61.4856 29.6533 61.4856 29.392C61.4856 29.0773 61.3629 28.8373 61.1176 28.672C60.8776 28.5067 60.5282 28.424 60.0696 28.424H59.8536V27.672H60.0696C60.9389 27.6827 61.3736 27.3867 61.3736 26.784C61.3736 26.5227 61.2936 26.3173 61.1336 26.168C60.9736 26.0187 60.7549 25.944 60.4776 25.944C60.2002 25.944 59.9682 26.0293 59.7816 26.2C59.5949 26.3653 59.4829 26.608 59.4456 26.928H58.5496C58.5869 26.3733 58.7736 25.944 59.1096 25.64C59.4456 25.3307 59.9096 25.176 60.5016 25.176ZM63.4116 26.664C63.4116 26.3867 63.4862 26.1333 63.6356 25.904C63.7849 25.6747 64.0062 25.4907 64.2996 25.352C64.5982 25.2133 64.9556 25.144 65.3716 25.144C65.7876 25.144 66.1422 25.2133 66.4356 25.352C66.7342 25.4907 66.9582 25.6747 67.1076 25.904C67.2622 26.1333 67.3396 26.3867 67.3396 26.664C67.3396 26.9733 67.2569 27.24 67.0916 27.464C66.9316 27.688 66.6916 27.8507 66.3716 27.952C66.7289 28.064 67.0036 28.2453 67.1956 28.496C67.3876 28.7413 67.4836 29.0427 67.4836 29.4C67.4836 29.9493 67.2889 30.3787 66.8996 30.688C66.5102 30.992 66.0009 31.144 65.3716 31.144C64.7422 31.144 64.2329 30.992 63.8436 30.688C63.4596 30.3787 63.2676 29.9493 63.2676 29.4C63.2676 29.0427 63.3636 28.7413 63.5556 28.496C63.7476 28.2453 64.0222 28.064 64.3796 27.952C64.0596 27.8507 63.8169 27.688 63.6516 27.464C63.4916 27.24 63.4116 26.9733 63.4116 26.664ZM64.3156 26.808C64.3156 27.096 64.4089 27.32 64.5956 27.48C64.7876 27.6347 65.0462 27.712 65.3716 27.712C65.6969 27.712 65.9556 27.6347 66.1476 27.48C66.3396 27.32 66.4356 27.096 66.4356 26.808C66.4356 26.52 66.3369 26.296 66.1396 26.136C65.9476 25.976 65.6916 25.896 65.3716 25.896C65.0516 25.896 64.7956 25.976 64.6036 26.136C64.4116 26.296 64.3156 26.52 64.3156 26.808ZM64.1556 29.352C64.1556 29.6773 64.2649 29.9333 64.4836 30.12C64.7022 30.3013 64.9982 30.392 65.3716 30.392C65.7449 30.392 66.0409 30.3013 66.2596 30.12C66.4782 29.9333 66.5876 29.6773 66.5876 29.352C66.5876 29.0213 66.4729 28.7733 66.2436 28.608C66.0196 28.4373 65.7289 28.352 65.3716 28.352C65.0196 28.352 64.7289 28.4373 64.4996 28.608C64.2702 28.7787 64.1556 29.0267 64.1556 29.352Z" fill="var(--font-color, #212529)"/>
    <rect x="6" y="57" width="23" height="2" rx="1" fill="#D9D9D9"/>
    <rect x="25" y="49" width="49" height="2" rx="1" fill="#D9D9D9"/>
    <path d="M19.8261 17.1157C20.0012 17.1157 20.1427 16.9739 20.1427 16.7991C20.1427 16.6243 20.0012 16.4824 19.8261 16.4824H19.8229C19.6481 16.4824 19.5078 16.6243 19.5078 16.7991C19.5078 16.9739 19.6513 17.1157 19.8261 17.1157Z" fill="var(--font-color, #212529)"/>
    <path d="M17.2929 16.4829C17.468 16.4829 17.6095 16.341 17.6095 16.1663C17.6095 15.9915 17.468 15.8496 17.2929 15.8496H17.2897C17.1149 15.8496 16.9746 15.9915 16.9746 16.1663C16.9746 16.341 17.118 16.4829 17.2929 16.4829Z" fill="var(--font-color, #212529)"/>
    <path d="M21.7265 15.8501C21.9016 15.8501 22.0431 15.7082 22.0431 15.5335C22.0431 15.3587 21.9016 15.2168 21.7265 15.2168H21.7233C21.5485 15.2168 21.4082 15.3587 21.4082 15.5335C21.4082 15.7082 21.5517 15.8501 21.7265 15.8501Z" fill="var(--font-color, #212529)"/>
    <path d="M24.2597 16.4829C24.4348 16.4829 24.5763 16.341 24.5763 16.1663C24.5763 15.9915 24.4348 15.8496 24.2597 15.8496H24.2565C24.0817 15.8496 23.9414 15.9915 23.9414 16.1663C23.9414 16.341 24.0849 16.4829 24.2597 16.4829Z" fill="var(--font-color, #212529)"/>
    <path d="M22.9921 17.1157C23.1672 17.1157 23.3087 16.9739 23.3087 16.7991C23.3087 16.6243 23.1672 16.4824 22.9921 16.4824H22.9889C22.8141 16.4824 22.6738 16.6243 22.6738 16.7991C22.6738 16.9739 22.8173 17.1157 22.9921 17.1157Z" fill="var(--font-color, #212529)"/>
    <path d="M19.1932 15.2173C19.3684 15.2173 19.5099 15.0754 19.5099 14.9006C19.5099 14.7259 19.3684 14.584 19.1932 14.584H19.1901C19.0153 14.584 18.875 14.7259 18.875 14.9006C18.875 15.0754 19.0184 15.2173 19.1932 15.2173Z" fill="var(--font-color, #212529)"/>
    <path d="M27.4161 28.5156H11.5828C11.0591 28.5156 10.6328 28.9419 10.6328 29.4656V30.099C10.6328 30.972 11.3431 31.6823 12.2162 31.6823H26.782C31.6823H26.7828C27.6558 31.6823 28.3662 30.972 28.3662 30.099V29.4656C28.3661 28.9419 27.9402 28.5156 27.4161 28.5156ZM27.7328 30.099C27.7328 30.6227 27.3069 31.049 26.7828 31.049H12.2161C11.6924 31.049 11.2661 30.6227 11.2661 30.099V29.4656C11.2661 29.2911 11.4083 29.149 11.5828 29.149H27.4161C27.5906 29.149 27.7328 29.2911 27.7328 29.4656V30.099H27.7328Z" fill="var(--font-color, #212529)"/>
    <path d="M11.4896 27.7914C11.6413 27.641 12.1242 27.2505 12.5327 27.2505C12.7107 27.2505 12.787 27.3193 12.9422 27.4744C13.1151 27.6473 13.3516 27.8839 13.7994 27.8839C14.2472 27.8839 14.484 27.6473 14.6566 27.4744C14.8118 27.3193 14.8881 27.2505 15.0661 27.2505C15.2441 27.2505 15.3204 27.3193 15.4756 27.4744C15.6485 27.6473 15.885 27.8839 16.3328 27.8839C16.7806 27.8839 17.0174 27.6473 17.19 27.4744C17.3452 27.3193 17.4215 27.2505 17.5995 27.2505C17.7775 27.2505 17.8538 27.3193 18.0089 27.4744C18.1818 27.6473 18.4184 27.8839 18.8662 27.8839C19.3139 27.8839 19.5508 27.6473 19.7234 27.4744C19.8786 27.3193 19.9549 27.2505 20.1329 27.2505C20.3108 27.2505 20.3871 27.3193 20.5423 27.4744C20.7152 27.6473 20.9518 27.8839 21.3996 27.8839C21.8473 27.8839 22.0842 27.6473 22.2568 27.4744C22.4119 27.3193 22.4883 27.2505 22.6662 27.2505C22.8442 27.2505 22.9205 27.3193 23.0757 27.4744C23.2486 27.6473 23.4852 27.8839 23.9329 27.8839C24.3807 27.8839 24.6176 27.6473 24.7902 27.4744C24.9453 27.3193 25.0217 27.2505 25.1996 27.2505C25.3776 27.2505 25.4539 27.3193 25.6091 27.4744C25.782 27.6473 26.0186 27.8839 26.4663 27.8839C27.2096 27.8839 27.8828 27.2322 27.9569 27.1578C28.0804 27.0343 28.0804 26.8344 27.9572 26.7106C27.834 26.5868 27.6332 26.5862 27.5097 26.7097C27.3578 26.8601 26.8745 27.2505 26.466 27.2505C26.2881 27.2505 26.2118 27.1818 26.0566 27.0267C25.884 26.8538 25.6471 26.6172 25.1993 26.6172C24.7516 26.6172 24.515 26.8537 24.3421 27.0267C24.187 27.1818 24.1106 27.2505 23.9326 27.2505C23.7547 27.2505 23.6784 27.1818 23.5232 27.0267C23.3506 26.8538 23.1137 26.6172 22.666 26.6172C22.2182 26.6172 21.9816 26.8537 21.8087 27.0267C21.6536 27.1818 21.5772 27.2505 21.3993 27.2505C21.2213 27.2505 21.145 27.1818 20.9898 27.0267C20.8172 26.8538 20.5803 26.6172 20.1326 26.6172C19.6848 26.6172 19.4483 26.8537 19.2753 27.0267C19.1202 27.1818 19.0439 27.2505 18.8659 27.2505C18.6879 27.2505 18.6116 27.1818 18.4564 27.0267C18.2838 26.8538 18.0469 26.6172 17.5992 26.6172C17.1514 26.6172 16.9149 26.8537 16.742 27.0267C16.5868 27.1818 16.5105 27.2505 16.3325 27.2505C16.1545 27.2505 16.0782 27.1818 15.923 27.0267C15.7504 26.8538 15.5136 26.6172 15.0658 26.6172C14.618 26.6172 14.3815 26.8537 14.2086 27.0267C14.0534 27.1818 13.9771 27.2505 13.7991 27.2505C13.6211 27.2505 13.5448 27.1818 13.3896 27.0267C13.2171 26.8538 12.9802 26.6172 12.5324 26.6172C11.7895 26.6172 11.1163 27.2689 11.0419 27.3433C10.9184 27.4668 10.9184 27.6666 11.0416 27.7904C11.165 27.9139 11.3655 27.9146 11.4896 27.7914Z" fill="var(--font-color, #212529)"/>
    <path d="M28.05 23.4492H18.2333C18.0586 23.4492 17.9167 23.5911 17.9167 23.7659C17.9167 23.9407 18.0586 24.0825 18.2333 24.0825H28.05C28.2245 24.0825 28.3667 24.2247 28.3667 24.3992V25.0325C28.3667 25.207 28.2245 25.3492 28.05 25.3492H10.95C10.7755 25.3492 10.6333 25.207 10.6333 25.0325V24.3992C10.6333 24.2247 10.7755 24.0826 10.95 24.0826H13.8C13.9748 24.0826 14.1167 23.9407 14.1167 23.7659C14.1167 23.5911 13.9748 23.4493 13.8 23.4493H10.95C10.4262 23.4492 10 23.8755 10 24.3992V25.0326C10 25.5563 10.4262 25.9826 10.95 25.9826H28.05C28.5741 25.9826 29 25.5563 29 25.0326V24.3992C29 23.8755 28.5741 23.4492 28.05 23.4492Z" fill="var(--font-color, #212529)"/>
    <path d="M17.9175 22.1836C17.8336 22.1836 17.7532 22.2168 17.6937 22.2764L16.0175 23.9525L14.3414 22.2764C14.2822 22.2168 14.2014 22.1836 14.1175 22.1836H11.5842C11.4094 22.1836 11.2676 22.3255 11.2676 22.5002C11.2676 22.675 11.4094 22.8169 11.5842 22.8169H13.9865L15.7937 24.6241C15.8554 24.6859 15.9365 24.7169 16.0176 24.7169C16.0987 24.7169 16.1797 24.6859 16.2415 24.6241L18.0487 22.8169H27.4176C27.5924 22.8169 27.7342 22.675 27.7342 22.5002C27.7342 22.3255 27.5924 22.1836 27.4176 22.1836H17.9175Z" fill="var(--font-color, #212529)"/>
    <path d="M15.3925 15.8501C15.5676 15.8501 15.7091 15.7082 15.7091 15.5335C15.7091 15.3587 15.5676 15.2168 15.3925 15.2168H15.3893C15.2145 15.2168 15.0742 15.3587 15.0742 15.5335C15.0742 15.7082 15.2176 15.8501 15.3925 15.8501Z" fill="var(--font-color, #212529)"/>
    <path d="M11.584 21.5497H27.4173C27.9677 21.5497 28.3673 21.1501 28.3661 20.6282C28.3762 20.519 28.5877 17.9261 26.6776 15.8345C25.1515 14.1635 22.737 13.3164 19.5006 13.3164C16.2643 13.3164 13.8497 14.1635 12.324 15.8345C10.4139 17.9261 10.6254 20.519 10.634 20.5997C10.634 21.1501 11.0336 21.5497 11.584 21.5497ZM12.7914 16.2614C14.1924 14.7275 16.4495 13.9498 19.5006 13.9498C22.547 13.9498 24.8023 14.7253 26.2038 16.2548C27.9268 18.1355 27.7375 20.5475 27.734 20.5997C27.734 20.804 27.6216 20.9164 27.4173 20.9164H11.584C11.3826 20.9164 11.2673 20.8011 11.266 20.5712C11.2638 20.5469 11.0678 18.1491 12.7914 16.2614Z" fill="var(--font-color, #212529)"/>
    <path d="M87.2316 24.538H85.5393V22.8457H83.8513V27.9269H85.5393V29.615H87.2316V24.538ZM87.2316 29.615H88.924V31.3073H87.2316V29.615ZM90.612 29.615H92.3043V31.3073H90.612V29.615ZM92.3086 22.8457H90.612V24.538H88.9197V29.615H90.612V27.9269H92.3086V22.8457ZM83.8513 29.615H85.5436V31.3073H83.8513V29.615ZM77.082 16.0723H78.7743V17.7646H77.082V16.0723Z" fill="var(--font-color, #212529)"/>
    <path d="M73.6914 12.6914V21.1529H82.1487V12.6914H73.6914ZM80.4606 19.4564H75.3879V14.3837H80.4649V19.4564H80.4606ZM87.2299 16.0718H88.9222V17.7641H87.2299V16.0718Z" fill="var(--font-color, #212529)"/>
    <path d="M83.8496 12.6914V21.1529H92.3069V12.6914H83.8496ZM90.6104 19.4564H85.5377V14.3837H90.6146V19.4564H90.6104Z" fill="var(--font-color, #212529)"/>
    <path d="M77.0801 26.2266H78.7724V27.9189H77.0801V26.2266Z" fill="var(--font-color, #212529)"/>
    <path d="M73.6914 22.8457V31.3072H82.1487V22.8457H73.6914ZM80.4606 29.6149H75.3879V24.538H80.4649V29.6149H80.4606Z" fill="var(--font-color, #212529)"/>
</svg>