<svg width="47" height="23" viewBox="0 0 264 163" fill="none" xmlns="http://www.w3.org/2000/svg">
    <path d="M219.73 134.481C219.315 127.992 212.815 123 205.249 123H178.783V162.828H205.249C212.815 162.828 219.315 157.844 219.73 151.346C219.936 148.287 218.788 145.274 216.518 142.913C218.788 140.552 219.936 137.54 219.73 134.481V134.481ZM189.071 131.85H205.604C206.12 131.838 206.634 131.914 207.115 132.075C207.596 132.236 208.034 132.479 208.405 132.788C208.775 133.098 209.069 133.468 209.27 133.877C209.471 134.286 209.574 134.726 209.574 135.17C209.574 135.614 209.471 136.053 209.27 136.462C209.069 136.871 208.775 137.241 208.405 137.551C208.034 137.86 207.596 138.103 207.115 138.264C206.634 138.425 206.12 138.501 205.604 138.489H189.071V131.85ZM189.071 153.977V147.339H205.604C206.12 147.326 206.634 147.403 207.115 147.564C207.596 147.725 208.034 147.967 208.405 148.277C208.775 148.586 209.069 148.957 209.27 149.366C209.471 149.775 209.574 150.214 209.574 150.658C209.574 151.102 209.471 151.542 209.27 151.951C209.069 152.36 208.775 152.73 208.405 153.039C208.034 153.349 207.596 153.591 207.115 153.752C206.634 153.913 206.12 153.99 205.604 153.977H189.071Z" fill="#0F1528" />
    <path d="M119.973 124.555L129.402 131.856H116.481C116.42 131.489 116.389 131.12 116.389 130.75C116.386 129.549 116.708 128.363 117.33 127.288C117.952 126.213 118.857 125.277 119.973 124.555V124.555Z" fill="#1F66AF" />
    <path d="M154.877 153.977C154.938 154.344 154.968 154.713 154.968 155.083C154.969 156.287 154.643 157.474 154.017 158.55C153.391 159.626 152.483 160.562 151.363 161.284V161.284L141.933 153.983L154.877 153.977Z" fill="#17457B" />
    <path d="M154.877 153.977H141.93L119.261 136.42C117.754 135.216 116.772 133.603 116.48 131.85H129.402L151.85 149.221C153.493 150.441 154.568 152.13 154.877 153.977V153.977Z" fill="#0F1528" />
    <path d="M151.364 161.281C149.807 162.285 147.913 162.827 145.967 162.825H114L118.775 153.975H141.931L151.364 161.281Z" fill="#1F66AF" />
    <path d="M154.969 123L150.195 131.85H129.402L119.973 124.549C121.533 123.537 123.437 122.993 125.391 123H154.969Z" fill="#1EAFE5" />
    <path d="M260.065 149.221L237.616 131.85H258.406L263.184 123H233.603C232.42 123 231.249 123.2 230.157 123.589C229.065 123.978 228.072 124.548 227.236 125.268C226.4 125.987 225.737 126.841 225.285 127.78C224.832 128.72 224.6 129.727 224.6 130.744C224.6 131.114 224.631 131.484 224.691 131.85C224.984 133.602 225.964 135.215 227.47 136.42L250.139 153.977H226.989L222.215 162.828H254.188C256.575 162.828 258.865 162.012 260.553 160.559C262.241 159.107 263.19 157.137 263.19 155.083C263.19 154.713 263.159 154.344 263.099 153.977C262.788 152.129 261.71 150.44 260.065 149.221V149.221Z" fill="#0F1528" />
    <path d="M171.062 123H160.774V162.83H171.062V123Z" fill="#0F1528" />
    <path d="M93.9013 93V2.09091H129.768C136.663 2.09091 142.537 3.40779 147.39 6.04155C152.243 8.64571 155.943 12.2708 158.488 16.9169C161.062 21.5334 162.349 26.8601 162.349 32.897C162.349 38.9339 161.047 44.2607 158.443 48.8771C155.839 53.4936 152.066 57.0891 147.124 59.6637C142.212 62.2383 136.263 63.5256 129.279 63.5256H106.419V48.1225H126.172C129.871 48.1225 132.919 47.4863 135.316 46.2138C137.743 44.9117 139.548 43.1213 140.732 40.8427C141.945 38.5344 142.552 35.8859 142.552 32.897C142.552 29.8785 141.945 27.2448 140.732 24.9957C139.548 22.7171 137.743 20.9563 135.316 19.7134C132.89 18.4409 129.812 17.8047 126.083 17.8047H113.122V93H93.9013ZM235.114 31.4766C234.493 29.3163 233.62 27.4075 232.495 25.7504C231.371 24.0636 229.995 22.6431 228.367 21.489C226.769 20.3053 224.935 19.4027 222.863 18.7812C220.821 18.1598 218.557 17.8491 216.071 17.8491C211.425 17.8491 207.342 19.0032 203.82 21.3114C200.328 23.6197 197.606 26.9785 195.652 31.3878C193.699 35.7675 192.723 41.1238 192.723 47.4567C192.723 53.7895 193.685 59.1754 195.608 63.6143C197.532 68.0533 200.254 71.4416 203.776 73.7795C207.297 76.0877 211.455 77.2418 216.249 77.2418C220.599 77.2418 224.313 76.4724 227.391 74.9336C230.498 73.3652 232.865 71.1605 234.493 68.3196C236.15 65.4787 236.979 62.1199 236.979 58.2433L240.885 58.8203H217.448V44.3494H255.489V55.8018C255.489 63.7919 253.802 70.6574 250.429 76.3984C247.055 82.1098 242.409 86.5192 236.491 89.6264C230.572 92.7041 223.795 94.2429 216.16 94.2429C207.638 94.2429 200.151 92.3638 193.699 88.6055C187.248 84.8176 182.217 79.4465 178.607 72.4922C175.026 65.5083 173.236 57.2223 173.236 47.6342C173.236 40.2656 174.301 33.696 176.432 27.9254C178.592 22.1252 181.611 17.2128 185.487 13.1882C189.364 9.16359 193.877 6.10073 199.026 3.99964C204.175 1.89855 209.753 0.848008 215.761 0.848008C220.91 0.848008 225.704 1.60263 230.143 3.11186C234.582 4.5915 238.518 6.69259 241.95 9.41513C245.413 12.1377 248.239 15.3781 250.429 19.1364C252.619 22.8651 254.024 26.9785 254.646 31.4766H235.114Z" fill="#0F1528" />
    <path d="M11.6682 3.64314L30.0915 20.7491H4.84547C4.72704 19.8908 4.66752 19.0249 4.66737 18.1579C4.66117 15.3437 5.29064 12.5668 6.50585 10.0473C7.72106 7.52787 9.48858 5.33517 11.6682 3.64314V3.64314Z" fill="#1F66AF" />
    <path d="M79.8649 72.58C79.9834 73.4384 80.0429 74.3043 80.043 75.1713C80.0437 77.9909 79.4075 80.7718 78.1848 83.2936C76.9621 85.8153 75.1866 88.0083 72.9991 89.6987V89.6987L54.5758 72.5927L79.8649 72.58Z" fill="#17457B" />
    <path d="M79.8649 72.5801H54.5697L10.2801 31.4435C7.33406 28.6213 5.41566 24.842 4.84521 20.7364H30.0913L73.9511 61.4359C77.1602 64.2936 79.2604 68.2513 79.8649 72.5801V72.5801Z" fill="#0F1528" />
    <path d="M72.9994 89.6925C69.9576 92.0455 66.257 93.3151 62.4551 93.3101H0L9.32835 72.5738H54.5699L72.9994 89.6925Z" fill="#1F66AF" />
    <path d="M80.0431 0.000159988L70.7148 20.7364H30.0914L11.668 3.63043C14.7175 1.25874 18.4364 -0.0164372 22.2553 0.000159988H80.0431Z" fill="#1EAFE5" />
</svg>