
<svg width="45" height="23" viewBox="0 0 45 23" fill="none" xmlns="http://www.w3.org/2000/svg">
<path d="M43.1669 8.70696C43.0117 8.78909 42.6447 8.90044 42.1553 8.90044C40.8093 8.90044 40.1866 8.14691 40.1866 7.19891V4.57052H39.5639V3.30702H40.1866V2.18659L42.2993 1.6976V3.30702H43.1669V4.57052H42.2993V7.03629C42.2993 7.44413 42.4561 7.59654 42.7668 7.59654C42.9233 7.59654 43.0004 7.57662 43.1669 7.51472V8.70696ZM37.3212 5.5587C37.3212 4.72364 37.0538 4.31603 36.5208 4.31603C35.8984 4.31603 35.5526 4.83515 35.6198 5.7931L37.3212 5.5587ZM39.2687 6.262L35.7749 6.71009C35.9093 7.30112 36.2534 7.59654 37.0217 7.59654C37.7324 7.59654 38.2893 7.45407 38.6222 7.30112L39.0897 8.48244C38.5679 8.71715 37.8668 8.90044 36.7544 8.90044C34.7969 8.90044 33.7615 7.68874 33.7615 6.03758C33.7615 4.38706 34.7297 3.20555 36.6088 3.20555C38.4895 3.20555 39.3792 4.3971 39.2687 6.262ZM33.9898 8.7989H31.632L30.1966 6.05838L30.1742 8.7989H28.0612V0.80086H30.1742C30.1742 0.80086 30.1852 0.800861 30.1852 5.67086L31.6432 3.30702H33.7337L32.0545 5.72197L33.9898 8.7989ZM27.531 8.49344C27.2653 8.71715 26.8089 8.90044 25.9961 8.90044C24.5283 8.90044 23.4384 7.90224 23.4384 6.02736C23.4384 4.1528 24.6388 3.20555 25.9739 3.20555C26.7082 3.20555 27.2205 3.37815 27.5086 3.61257L27.0972 4.6726C26.9532 4.56047 26.7642 4.47933 26.4746 4.47933C25.8966 4.47933 25.5736 4.97819 25.5736 6.01742C25.5736 7.02617 25.9194 7.54567 26.4746 7.54567C26.7532 7.54567 26.9421 7.46442 27.0972 7.34205L27.531 8.49344ZM22.764 8.7989H20.6499V3.3071H22.764V8.7989ZM20.0105 8.70696C19.8551 8.78909 19.4871 8.90044 18.9975 8.90044C17.6514 8.90044 17.0287 8.14691 17.0287 7.19891V4.57052H16.4062V3.30702H17.0287V2.18659L19.1428 1.6976V3.30702H20.0105V4.57052H19.1428V7.03629C19.1428 7.44413 19.2982 7.59654 19.6103 7.59654C19.7655 7.59654 19.8439 7.57662 20.0105 7.51472V8.70696ZM20.7859 0.380762C21.312 -0.140515 22.1528 -0.124744 22.6608 0.416915C23.1701 0.957683 23.156 1.81923 22.6286 2.34125C22.1026 2.86253 21.2616 2.84675 20.7524 2.30591C20.2431 1.76448 20.2585 0.903078 20.7859 0.380762Z" fill="#2C5FA1"/>
<path d="M0.669434 6.23679C0.669434 2.87399 3.33527 0.148438 6.62513 0.148438C9.91182 0.148438 12.5812 2.87399 12.5812 6.23679C12.5812 9.6003 9.91182 12.3249 6.62513 12.3249C3.33527 12.3249 0.669434 9.6003 0.669434 6.23679Z" fill="#E12726"/>
<path d="M8.62695 16.0645C10.075 16.0645 11.2489 17.292 11.2489 18.8038C11.2489 19.8086 10.7357 20.6872 9.96352 21.1634L10.7518 22.2145L11.994 22.8122H8.27248L7.41625 21.5152H5.7944V22.8122H2.07275L2.92964 22.2145V16.0352H4.55147V19.8216H8.62695V16.0645Z" fill="#2C5FA1"/>
<path d="M3.50537 22.327V16.7109H4.01645V20.4988H9.20241V16.8201C10.0757 17.0741 10.715 17.9097 10.715 18.9017C10.715 19.6918 10.3079 20.3819 9.69959 20.7609L9.15529 21.1005L10.0804 22.327H8.58564L7.72667 21.0322H5.25763V22.327H3.50537Z" fill="#2C5FA1"/>
<path d="M0 12.9258V15.4172H5.05525V19.3045H8.01331V15.4172H13.0696V12.9258H0Z" fill="#2C5FA1"/>
<path d="M12.4026 13.625H0.668457V14.7201H5.72153V18.607H7.34374V14.7201H12.4026V13.625Z" fill="white"/>
<path d="M6.22754 18.0903H6.84109V16.0352H6.22754V18.0903Z" fill="#2C5FA1"/>
<path d="M18.8226 10.2079H17.7995V11.6736H18.8226C19.283 11.6736 19.5963 11.4041 19.5963 10.9441C19.5963 10.4839 19.283 10.2079 18.8226 10.2079ZM19.6219 14.2502L18.6628 12.2783H17.7995V14.2502H17.1089V9.57031H18.8737C19.737 9.57031 20.2869 10.1421 20.2869 10.9374C20.2869 11.6078 19.8904 12.0351 19.3789 12.1797L20.4275 14.2502H19.6219Z" fill="#2C5FA1"/>
<path d="M22.7163 11.8583C22.6141 11.6085 22.3839 11.4376 22.0769 11.4376C21.77 11.4376 21.5334 11.6085 21.4311 11.8583C21.3672 12.0095 21.3544 12.108 21.348 12.3118H22.8059C22.7994 12.108 22.7803 12.0095 22.7163 11.8583ZM21.348 12.7785C21.348 13.3503 21.6421 13.7118 22.1728 13.7118C22.5373 13.7118 22.7292 13.6066 22.9594 13.37L23.375 13.771C23.0425 14.1128 22.7292 14.2902 22.16 14.2902C21.348 14.2902 20.7021 13.8498 20.7021 12.5813C20.7021 11.5033 21.2457 10.8789 22.0769 10.8789C22.9466 10.8789 23.4516 11.5362 23.4516 12.4827V12.7785H21.348Z" fill="#2C5FA1"/>
<path d="M25.0123 14.2902C24.4816 14.2902 24.0339 14.1982 23.6504 13.8104L24.0788 13.37C24.3409 13.646 24.6926 13.7184 25.0123 13.7184C25.4088 13.7184 25.7221 13.5737 25.7221 13.2582C25.7221 13.0347 25.6006 12.8902 25.2873 12.8639L24.7694 12.8179C24.1619 12.7652 23.8102 12.4826 23.8102 11.8977C23.8102 11.2469 24.3537 10.8789 25.0315 10.8789C25.5174 10.8789 25.9331 10.9841 26.2336 11.2536L25.8244 11.6808C25.6198 11.5032 25.332 11.4375 25.0251 11.4375C24.635 11.4375 24.4368 11.615 24.4368 11.8647C24.4368 12.062 24.5392 12.2131 24.8844 12.2461L25.396 12.292C26.0033 12.3446 26.3615 12.6404 26.3615 13.2319C26.3615 13.9287 25.786 14.2902 25.0123 14.2902Z" fill="#2C5FA1"/>
<path d="M27.704 14.2464C27.0965 14.2464 26.8153 13.7995 26.8153 13.3196V11.4859H26.4443V10.9731H26.8153V9.96094H27.4674V10.9731H28.0941V11.4859H27.4674V13.2868C27.4674 13.53 27.5824 13.6746 27.8255 13.6746H28.0941V14.2464H27.704Z" fill="#2C5FA1"/>
<path d="M30.2746 12.7785H29.5137C29.1301 12.7785 28.9318 12.9559 28.9318 13.2582C28.9318 13.5606 29.1173 13.7315 29.5265 13.7315C29.7758 13.7315 29.9613 13.7118 30.134 13.5409C30.2299 13.4423 30.2746 13.2846 30.2746 13.0479V12.7785ZM30.2875 14.2508V13.9485C30.0508 14.1916 29.8269 14.2902 29.4241 14.2902C29.0214 14.2902 28.7528 14.1916 28.5545 13.9879C28.3884 13.8104 28.2988 13.554 28.2988 13.2714C28.2988 12.7127 28.676 12.3118 29.4178 12.3118H30.2746V12.0751C30.2746 11.6544 30.07 11.4507 29.5648 11.4507C29.2068 11.4507 29.0341 11.5362 28.8551 11.7728L28.4267 11.3587C28.7336 10.9906 29.0533 10.8789 29.5904 10.8789C30.4792 10.8789 30.9269 11.2667 30.9269 12.0225V14.2508H30.2875Z" fill="#2C5FA1"/>
<path d="M33.5361 14.2504V13.9151C33.3124 14.165 32.9989 14.2898 32.6728 14.2898C32.3404 14.2898 32.0654 14.178 31.8735 13.9875C31.6242 13.7377 31.5474 13.4222 31.5474 13.0476V10.918H32.1997V12.949C32.1997 13.4682 32.4874 13.6917 32.8519 13.6917C33.2164 13.6917 33.5232 13.4616 33.5232 12.949V10.918H34.1753V14.2504H33.5361Z" fill="#2C5FA1"/>
<path d="M36.6445 11.7005C36.4976 11.5493 36.3824 11.477 36.1587 11.477C35.807 11.477 35.5129 11.7663 35.5129 12.2262V14.2508H34.8604V10.9183H35.4999V11.2799C35.6664 11.0432 35.9986 10.8789 36.3632 10.8789C36.6766 10.8789 36.9131 10.9643 37.1368 11.1944L36.6445 11.7005Z" fill="#2C5FA1"/>
<path d="M38.9845 12.7785H38.2235C37.84 12.7785 37.6418 12.9559 37.6418 13.2582C37.6418 13.5606 37.8271 13.7315 38.2364 13.7315C38.4858 13.7315 38.6711 13.7118 38.8439 13.5409C38.9398 13.4423 38.9845 13.2846 38.9845 13.0479V12.7785ZM38.9974 14.2508V13.9485C38.7608 14.1916 38.5368 14.2902 38.1341 14.2902C37.7311 14.2902 37.4628 14.1916 37.2646 13.9879C37.0981 13.8104 37.0088 13.554 37.0088 13.2714C37.0088 12.7127 37.386 12.3118 38.1275 12.3118H38.9845V12.0751C38.9845 11.6544 38.7797 11.4507 38.2747 11.4507C37.9167 11.4507 37.744 11.5362 37.565 11.7728L37.1365 11.3587C37.4436 10.9906 37.7632 10.8789 38.3002 10.8789C39.189 10.8789 39.6367 11.2667 39.6367 12.0225V14.2508H38.9974Z" fill="#2C5FA1"/>
<path d="M42.2651 14.2508V12.2198C42.2651 11.7005 41.9772 11.477 41.6126 11.477C41.2483 11.477 40.9412 11.7071 40.9412 12.2198V14.2508H40.2891V10.9183H40.9287V11.2535C41.1523 11.0038 41.4657 10.8789 41.7919 10.8789C42.1241 10.8789 42.3991 10.9906 42.591 11.1812C42.8405 11.431 42.9173 11.7465 42.9173 12.1211V14.2508H42.2651Z" fill="#2C5FA1"/>
<path d="M44.5351 14.2464C43.9276 14.2464 43.6463 13.7995 43.6463 13.3196V11.4859H43.2754V10.9731H43.6463V9.96094H44.2981V10.9731H44.9252V11.4859H44.2981V13.2868C44.2981 13.53 44.4133 13.6746 44.6565 13.6746H44.9252V14.2464H44.5351Z" fill="#2C5FA1"/>
<path d="M38.7531 18.3408H38.626V18.5748H38.7531C38.8265 18.5748 38.8768 18.5234 38.8768 18.4579C38.8768 18.3924 38.8265 18.3408 38.7531 18.3408ZM38.8768 18.9953L38.7223 18.6879H38.626V18.9953H38.487V18.2199H38.7706C38.9135 18.2199 39.0138 18.329 39.0138 18.4579C39.0138 18.567 38.948 18.6384 38.8652 18.6681L39.033 18.9953H38.8768ZM38.7302 18.0235C38.4175 18.0235 38.1707 18.2814 38.1707 18.6086C38.1707 18.9359 38.4175 19.1936 38.7302 19.1936C39.0426 19.1936 39.2878 18.9359 39.2878 18.6086C39.2878 18.2814 39.0426 18.0235 38.7302 18.0235ZM38.7302 19.3265C38.3441 19.3265 38.0317 19.0053 38.0317 18.6086C38.0317 18.212 38.3441 17.8906 38.7302 17.8906C39.116 17.8906 39.4284 18.212 39.4284 18.6086C39.4284 19.0053 39.116 19.3265 38.7302 19.3265Z" fill="#E2251E"/>
<path d="M21.1429 20.7362C21.1214 20.1404 21.1 19.4194 21.1 18.6984H21.0785C20.9282 19.3311 20.7278 20.0373 20.5417 20.6186L19.9548 22.5534H19.1031L18.5878 20.6407C18.4304 20.0521 18.2658 19.3459 18.1513 18.6984H18.1369C18.1084 19.3679 18.0869 20.1331 18.051 20.751L17.9652 22.6344H16.9561L17.2638 17.6758H18.7167L19.189 19.3311C19.3393 19.8976 19.4897 20.523 19.597 21.1041H19.6185C19.7545 20.5303 19.919 19.8755 20.0765 19.3237L20.5918 17.6758H22.0161L22.2809 22.6344H21.2145L21.1429 20.7362Z" fill="#E2231A"/>
<path d="M23.8975 20.8331C23.8975 21.451 24.148 21.9145 24.6133 21.9145C25.0355 21.9145 25.3075 21.4804 25.3075 20.8331C25.3075 20.296 25.107 19.7516 24.6133 19.7516C24.0908 19.7516 23.8975 20.3034 23.8975 20.8331ZM26.4312 20.7963C26.4312 22.1131 25.5222 22.7164 24.5846 22.7164C23.5612 22.7164 22.7739 22.0249 22.7739 20.8625C22.7739 19.7001 23.5182 18.957 24.6419 18.957C25.7154 18.957 26.4312 19.7148 26.4312 20.7963Z" fill="#E2231A"/>
<path d="M28.0653 21.0995C28.0653 21.173 28.0725 21.2393 28.0867 21.2982C28.1583 21.5998 28.4088 21.8278 28.7237 21.8278C29.1889 21.8278 29.4752 21.46 29.4752 20.8126C29.4752 20.2534 29.2319 19.812 28.7237 19.812C28.4303 19.812 28.1583 20.0401 28.0867 20.3637C28.0725 20.43 28.0653 20.4963 28.0653 20.5698V21.0995ZM26.9774 17.4062H28.0653V19.4589H28.0796C28.2871 19.1499 28.6521 18.9512 29.1388 18.9512C29.9762 18.9512 30.5916 19.6649 30.5846 20.7684C30.5846 22.0633 29.7829 22.7107 28.9814 22.7107C28.5734 22.7107 28.1798 22.5561 27.9293 22.1295H27.915L27.872 22.6297H26.9487C26.9632 22.3943 26.9774 21.9602 26.9774 21.5556V17.4062Z" fill="#E2231A"/>
<path d="M31.1435 19.0318H32.2314V22.6293H31.1435V19.0318ZM32.2671 18.0313C32.2671 18.3402 32.0381 18.5904 31.6803 18.5904C31.3367 18.5904 31.1078 18.3402 31.1149 18.0313C31.1078 17.7075 31.3367 17.4648 31.6875 17.4648C32.0381 17.4648 32.2601 17.7075 32.2671 18.0313Z" fill="#E2231A"/>
<path d="M32.9736 17.4062H34.0616V22.6297H32.9736V17.4062Z" fill="#E2231A"/>
<path d="M36.9404 20.4284C36.9404 20.1562 36.8259 19.7001 36.325 19.7001C35.867 19.7001 35.6811 20.1267 35.6523 20.4284H36.9404ZM35.6596 21.1935C35.6953 21.657 36.139 21.8777 36.6472 21.8777C37.0192 21.8777 37.3199 21.8262 37.6134 21.7305L37.7564 22.4883C37.3987 22.6355 36.9619 22.7164 36.4897 22.7164C35.3015 22.7164 34.6216 22.0027 34.6216 20.8772C34.6216 19.965 35.1728 18.957 36.3895 18.957C37.5201 18.957 37.9496 19.8619 37.9496 20.7521C37.9496 20.9434 37.9281 21.1126 37.9139 21.1935H35.6596Z" fill="#E2231A"/>
</svg>
