<svg width="463" height="464" viewBox="0 0 463 464" fill="none" xmlns="http://www.w3.org/2000/svg">
  <rect x="0.0273438" y="0.686279" width="462.591" height="462.591" rx="231.295" fill="#A4CC44"/>
  <path d="M330.855 310.864H314.658C308.815 310.864 305.312 304.448 308.396 299.485C311.48 294.522 314.462 288.507 316.674 281.349C319.51 272.191 320.177 264.049 320.168 258.069V185.959C320.168 142.468 284.912 107.212 241.42 107.212H203.738C160.246 107.212 124.99 142.468 124.99 185.959V258.069C124.99 301.561 160.246 336.817 203.738 336.817H234.005C238.097 336.817 241.42 340.132 241.42 344.232C241.42 344.36 241.42 344.489 241.42 344.617C241.42 361.344 254.978 374.901 271.705 374.901H330.855C335.255 374.901 338.817 371.339 338.817 366.939V318.826C338.817 314.426 335.255 310.864 330.855 310.864ZM222.583 275.155C212.178 275.155 203.747 266.723 203.747 256.318V187.719C203.747 177.314 212.178 168.882 222.583 168.882C232.989 168.882 241.42 177.314 241.42 187.719V256.318C241.42 266.723 232.989 275.155 222.583 275.155Z" fill="#272727"/>
</svg>
