<svg width="357" height="116" viewBox="0 0 357 116" fill="#4C9A2A" xmlns="http://www.w3.org/2000/svg">
		<path d="M215.945 0.341797H188.371C186.616 0.341797 185.194 1.76389 185.194 3.51813V96.0882C185.194 97.8424 186.616 99.2645 188.371 99.2645H215.945C217.7 99.2645 219.122 97.8424 219.122 96.0882V3.51813C219.122 1.76389 217.7 0.341797 215.945 0.341797Z" />
		<path d="M353.41 0.341797H325.836C324.081 0.341797 322.659 1.76389 322.659 3.51813V96.0882C322.659 97.8424 324.081 99.2645 325.836 99.2645H353.41C355.165 99.2645 356.587 97.8424 356.587 96.0882V3.51813C356.587 1.76389 355.165 0.341797 353.41 0.341797Z" />
		<path d="M142.647 3.44452V64.5788C142.647 69.0617 139.015 72.6945 134.532 72.6945C130.049 72.6945 126.416 69.0617 126.416 64.5788V3.44452C126.416 1.72937 125.025 0.341797 123.313 0.341797H95.5949C93.8798 0.341797 92.4922 1.73305 92.4922 3.44452V63.7286C92.4922 83.3534 108.403 99.2645 128.028 99.2645H141.05C160.675 99.2645 176.586 83.3534 176.586 63.7286V3.44452C176.586 1.72937 175.195 0.341797 173.483 0.341797H145.765C144.05 0.341797 142.662 1.73305 142.662 3.44452H142.647Z" />
		<path d="M89.2085 88.0829H82.2302C79.7127 88.0829 78.2036 85.3188 79.5323 83.1804C80.861 81.042 82.1455 78.4509 83.0988 75.3665C84.3207 71.421 84.6078 67.9134 84.6041 65.337V34.2693C84.6041 15.5315 69.4144 0.341797 50.6766 0.341797H34.4417C15.7039 0.341797 0.51416 15.5315 0.51416 34.2693V65.337C0.51416 84.0748 15.7039 99.2645 34.4417 99.2645H47.4819C49.2449 99.2645 50.6766 100.693 50.6766 102.459C50.6766 102.514 50.6766 102.57 50.6766 102.625C50.6766 109.831 56.5177 115.672 63.7243 115.672H89.2085C91.104 115.672 92.6388 114.138 92.6388 112.242V91.5132C92.6388 89.6177 91.104 88.0829 89.2085 88.0829ZM42.561 72.6981C38.0781 72.6981 34.4453 69.0654 34.4453 64.5825V35.0275C34.4453 30.5446 38.0781 26.9118 42.561 26.9118C47.0439 26.9118 50.6766 30.5446 50.6766 35.0275V64.5825C50.6766 69.0654 47.0439 72.6981 42.561 72.6981Z" />
		<path d="M284.963 0.341797C283.365 0.341797 282.007 1.50486 281.764 3.08014L272.246 71.5792C271.985 73.103 269.799 73.103 269.537 71.5792L260.019 3.08014C259.773 1.50486 258.415 0.341797 256.821 0.341797H229.507C227.501 0.341797 225.978 2.14896 226.316 4.12542L242.169 96.574C242.434 98.1272 243.784 99.2645 245.36 99.2645H296.424C298.003 99.2645 299.35 98.1272 299.615 96.574L315.467 4.12542C315.806 2.14896 314.282 0.341797 312.276 0.341797L284.963 0.341797Z" />
</svg>
