<?xml version="1.0" encoding="UTF-8" standalone="no"?>
<!-- Generator: Adobe Illustrator 19.2.0, SVG Export Plug-In . SVG Version: 6.00 Build 0)  -->

<svg
   version="1.1"
   id="Layer_1"
   x="0px"
   y="0px"
   viewBox="0 0 47 37"
   xml:space="preserve"
   sodipodi:docname="Money_Flat_Icon.svg"
   width="47"
   height="37"
   inkscape:version="1.3.2 (091e20e, 2023-11-25, custom)"
   xmlns:inkscape="http://www.inkscape.org/namespaces/inkscape"
   xmlns:sodipodi="http://sodipodi.sourceforge.net/DTD/sodipodi-0.dtd"
   xmlns="http://www.w3.org/2000/svg"
   xmlns:svg="http://www.w3.org/2000/svg"><defs
   id="defs14" /><sodipodi:namedview
   id="namedview14"
   pagecolor="#ffffff"
   bordercolor="#000000"
   borderopacity="0.25"
   inkscape:showpageshadow="2"
   inkscape:pageopacity="0.0"
   inkscape:pagecheckerboard="0"
   inkscape:deskcolor="#d1d1d1"
   inkscape:zoom="4.7906484"
   inkscape:cx="73.059003"
   inkscape:cy="55.420473"
   inkscape:window-width="1920"
   inkscape:window-height="1009"
   inkscape:window-x="-8"
   inkscape:window-y="-8"
   inkscape:window-maximized="1"
   inkscape:current-layer="g14" />
<style
   type="text/css"
   id="style1">
	.st0{fill:#35A83F;}
	.st1{fill:#02873E;}
	.st2{fill:#39B54A;}
	.st3{fill:#009245;}
	.st4{fill:#FFED6C;}
	.st5{fill:#FFD345;}
	.st6{fill:#FBB03B;}
</style>
<g
   id="g14">
	
	
	
	<g
   id="g15"
   transform="matrix(0.04458108,0,0,0.04458108,2.1000213,0.70480289)"><g
     id="g3">
		
			<rect
   x="387.5"
   y="181.10001"
   transform="matrix(0.067229,-0.9977,0.9977,0.067229,48.3078,950.5419)"
   class="st0"
   width="290.10001"
   height="536.70001"
   id="rect1" />
		<path
   class="st1"
   d="m 791,382.7 c -21.9,-6.9 -38.4,-25.4 -42.8,-47.9 L 334,306.9 c -7.4,21.7 -26.1,37.8 -48.8,41.7 L 274.4,510 c 23.9,7.5 41.3,28.8 43.6,54.1 l 411.6,27.7 c 5.7,-24.7 25.8,-43.4 50.5,-47.7 z"
   id="path1" />
		
			<circle
   transform="matrix(0.067229,-0.9977,0.9977,0.067229,48.2649,950.5255)"
   class="st0"
   cx="532.5"
   cy="449.39999"
   id="ellipse1"
   r="113.9" />
		<g
   id="g2">
			<path
   class="st1"
   d="m 521.1,530.2 1.3,-18.6 c -13.1,-1.5 -25.5,-5.8 -32.7,-10.6 l 7.4,-22.5 c 7.9,5 19.2,9.9 31.9,10.8 11.1,0.8 19.1,-3 19.6,-10.9 0.5,-7.4 -5.4,-12.5 -19.6,-18.4 -20.4,-8.4 -34,-19.2 -32.8,-38.1 1.2,-17.2 14.2,-29.9 35.4,-32.6 l 1.3,-18.6 19.2,1.3 -1.2,17.2 c 13.1,1.5 21.7,4.8 27.9,8.4 l -7.2,21.7 c -4.9,-2.5 -13.6,-7.6 -27.7,-8.5 -12.7,-0.9 -17.2,4.3 -17.5,9.8 -0.4,6.4 6.1,11 22.3,18.4 22.7,9.8 31.4,21.2 30.2,38.7 -1.2,17.4 -14.5,31.4 -37.2,33.8 l -1.3,19.9 z"
   id="path2" />
		</g>
	</g><g
     id="g5">
		
			<rect
   x="166"
   y="196.3"
   transform="matrix(0.9922,-0.1244,0.1244,0.9922,-39.0886,56.6858)"
   class="st2"
   width="536.70001"
   height="290.10001"
   id="rect3" />
		<path
   class="st3"
   d="m 675.3,226.5 c -22.8,-2.6 -42.5,-17.6 -51.1,-38.8 l -411.9,51.6 c -3.1,22.7 -18.4,42.1 -39.9,50.3 L 192.5,450 c 24.9,2.8 46,20.4 53.2,44.7 L 655,443.4 c 0.9,-25.3 17,-47.6 40.5,-56.5 z"
   id="path3" />
		
			<circle
   transform="matrix(0.9922,-0.1244,0.1244,0.9922,-39.0837,56.6785)"
   class="st2"
   cx="434.29999"
   cy="341.29999"
   id="ellipse3"
   r="113.9" />
		<g
   id="g4">
			<path
   class="st3"
   d="m 438.5,422.7 -2.3,-18.5 c -13.1,1 -26.2,-0.9 -34.1,-4.2 l 3,-23.5 c 8.7,3.4 20.7,6.1 33.3,4.5 11.1,-1.4 18.1,-6.6 17.1,-14.4 -0.9,-7.4 -7.7,-11.3 -22.7,-14.3 -21.7,-4.4 -37.1,-12.3 -39.4,-31.2 -2.1,-17.1 8.2,-32 28.5,-38.7 l -2.3,-18.5 19,-2.4 2.1,17.1 c 13.1,-1 22.2,0.6 29,2.9 l -2.9,22.7 c -5.3,-1.5 -14.8,-4.9 -28.8,-3.1 -12.6,1.6 -16,7.5 -15.4,13 0.8,6.4 8.1,9.6 25.4,13.8 24.2,5.3 34.8,14.8 37,32.3 2.2,17.3 -8.2,33.6 -30.1,40.3 l 2.5,19.8 z"
   id="path4" />
		</g>
	</g><g
     id="g9"
     transform="matrix(0.50850563,0,0,0.50850563,247.31818,227.04715)">
		
			<circle
   transform="matrix(0.9148,-0.4039,0.4039,0.9148,-247.5537,225.9889)"
   class="st4"
   cx="411.89999"
   cy="699.79999"
   id="ellipse5"
   r="96.099998" />
		
			<circle
   transform="matrix(0.9148,-0.4039,0.4039,0.9148,-247.5537,225.9889)"
   class="st5"
   cx="411.89999"
   cy="699.79999"
   id="ellipse6"
   r="72.300003" />
		<path
   class="st6"
   d="m 353.8,734.5 c -16.1,-36.5 0.4,-79.2 36.9,-95.3 22.2,-9.8 46.6,-7.5 65.9,4 -20.3,-16 -48.6,-20.6 -73.9,-9.4 -36.5,16.1 -53,58.8 -36.9,95.3 6.3,14.3 16.8,25.5 29.3,33 -8.9,-7.2 -16.3,-16.5 -21.3,-27.6 z"
   id="path6" />
		<g
   id="g7">
			<path
   class="st6"
   d="m 431.2,746.8 -4.3,-9.8 c -7.1,2.7 -14.6,3.9 -19.5,3.3 l -2.2,-13.5 c 5.4,0.5 12.5,-0.1 19.2,-3 5.9,-2.6 8.9,-6.7 7.1,-10.8 -1.7,-3.9 -6.1,-4.9 -14.9,-4.2 -12.7,1.2 -22.5,-0.7 -27,-10.7 -4,-9.1 -0.8,-19.1 9.3,-26.1 l -4.3,-9.8 10.1,-4.5 4,9.1 c 7.1,-2.7 12.4,-3.4 16.5,-3.2 l 2.2,13 c -3.2,0.1 -9,-0.2 -16.4,3.1 -6.7,3 -7.6,6.8 -6.3,9.7 1.5,3.4 6.1,4 16.3,3.4 14.2,-1.1 21.7,2.4 25.8,11.7 4.1,9.2 1,19.9 -10,27.3 l 4.7,10.5 z"
   id="path7" />
		</g>
		<g
   id="g8">
			<path
   class="st4"
   d="m 425.1,744.5 -4.3,-9.8 c -7.1,2.7 -14.6,3.9 -19.5,3.3 l -2.2,-13.5 c 5.4,0.5 12.5,-0.1 19.2,-3 5.9,-2.6 8.9,-6.7 7.1,-10.8 -1.7,-3.9 -6.1,-4.9 -14.9,-4.2 -12.7,1.2 -22.5,-0.7 -27,-10.7 -4,-9.1 -0.8,-19.1 9.3,-26.1 l -4.3,-9.8 10.1,-4.5 4,9.1 c 7.1,-2.7 12.4,-3.4 16.5,-3.2 l 2.2,13 c -3.2,0.1 -9,-0.2 -16.4,3.1 -6.7,3 -7.6,6.8 -6.3,9.7 1.5,3.4 6.1,4 16.3,3.4 14.2,-1.1 21.7,2.4 25.8,11.7 4.1,9.2 1,19.9 -10,27.3 l 4.7,10.5 z"
   id="path8" />
		</g>
	</g><g
     id="g13"
     transform="matrix(0.77882817,0,0,0.77882817,116.82296,107.17987)">
		<circle
   class="st4"
   cx="624.29999"
   cy="580.70001"
   r="96.099998"
   id="circle9" />
		<circle
   class="st5"
   cx="624.29999"
   cy="580.70001"
   r="72.300003"
   id="circle10" />
		<path
   class="st6"
   d="m 557.2,588.9 c 0,-39.9 32.4,-72.3 72.3,-72.3 24.2,0 45.6,12 58.7,30.3 -12.1,-22.9 -36.2,-38.5 -63.8,-38.5 -39.9,0 -72.3,32.4 -72.3,72.3 0,15.7 5,30.2 13.5,42 -5.4,-10 -8.4,-21.5 -8.4,-33.8 z"
   id="path10" />
		<g
   id="g11">
			<path
   class="st6"
   d="m 622.9,631.5 v -10.7 c -7.6,-0.3 -14.9,-2.4 -19.2,-4.9 l 3.4,-13.2 c 4.7,2.6 11.4,5 18.8,5 6.4,0 10.8,-2.5 10.8,-7 0,-4.3 -3.6,-7 -12,-9.8 -12.1,-4.1 -20.3,-9.7 -20.3,-20.7 0,-9.9 7,-17.7 19.1,-20.1 v -10.7 h 11.1 v 9.9 c 7.6,0.3 12.7,1.9 16.4,3.7 l -3.3,12.8 c -2.9,-1.2 -8.1,-3.8 -16.3,-3.8 -7.3,0 -9.7,3.2 -9.7,6.3 0,3.7 4,6.1 13.6,9.7 13.4,4.7 18.9,11 18.9,21.1 0,10.1 -7.1,18.6 -20.1,20.9 v 11.5 z"
   id="path11" />
		</g>
		<g
   id="g12">
			<path
   class="st4"
   d="m 618.3,626.9 v -10.7 c -7.6,-0.3 -14.9,-2.4 -19.2,-4.9 l 3.4,-13.2 c 4.7,2.6 11.4,5 18.8,5 6.4,0 10.8,-2.5 10.8,-7 0,-4.3 -3.6,-7 -12,-9.8 -12.1,-4.1 -20.3,-9.7 -20.3,-20.7 0,-9.9 7,-17.7 19.1,-20.1 V 534.8 H 630 v 9.9 c 7.6,0.3 12.7,1.9 16.4,3.7 l -3.3,12.8 c -2.9,-1.2 -8.1,-3.8 -16.3,-3.8 -7.3,0 -9.7,3.2 -9.7,6.3 0,3.7 4,6.1 13.6,9.7 13.4,4.7 18.9,11 18.9,21.1 0,10.1 -7.1,18.6 -20.1,20.9 v 11.5 z"
   id="path12" />
		</g>
	</g></g>
</g>
</svg>
