<?xml version="1.0" encoding="UTF-8" standalone="no"?>
<svg
   id="Camada_1"
   data-name="Camada 1"
   viewBox="0 0 48 38"
   version="1.1"
   sodipodi:docname="mb-way.svg"
   width="48"
   height="38"
   inkscape:version="1.3.2 (091e20e, 2023-11-25, custom)"
   xmlns:inkscape="http://www.inkscape.org/namespaces/inkscape"
   xmlns:sodipodi="http://sodipodi.sourceforge.net/DTD/sodipodi-0.dtd"
   xmlns="http://www.w3.org/2000/svg"
   xmlns:svg="http://www.w3.org/2000/svg">
  <sodipodi:namedview
     id="namedview7"
     pagecolor="#ffffff"
     bordercolor="#000000"
     borderopacity="0.25"
     inkscape:showpageshadow="2"
     inkscape:pageopacity="0.0"
     inkscape:pagecheckerboard="0"
     inkscape:deskcolor="#d1d1d1"
     inkscape:zoom="5.4437536"
     inkscape:cx="57.313395"
     inkscape:cy="20.482191"
     inkscape:window-width="1920"
     inkscape:window-height="1009"
     inkscape:window-x="-8"
     inkscape:window-y="-8"
     inkscape:window-maximized="1"
     inkscape:current-layer="Camada_1" />
  <defs
     id="defs1">
    <style
       id="style1">.cls-1{fill:red;}.cls-2{fill:#fff;}</style>
  </defs>
  <g
     id="g7"
     transform="matrix(0.26997121,0,0,0.26997121,4.2644418,9.2944405)">
    <path
       class="cls-1"
       d="M 7.07,61.8438 6.8256,63.715 a 1.5544,1.5544 0 0 0 1.5549,1.7392 H 69.291 a 1.5622,1.5622 0 0 0 1.5677,-1.7392 l -0.25,-1.8712 a 2.6849,2.6849 0 0 1 2.3659,-2.9453 2.6383,2.6383 0 0 1 2.9072,2.3628 l 0.2345,1.824 c 0.4742,4.0756 -1.8346,7.6506 -5.9509,7.6506 H 7.5137 c -4.1194,0 -6.4279,-3.575 -5.9521,-7.6506 l 0.2357,-1.824 a 2.6369,2.6369 0 0 1 2.897,-2.3628 2.6871,2.6871 0 0 1 2.3757,2.9453"
       id="path1" />
    <path
       class="cls-2"
       d="m 63.374,47.7144 a 5,5 0 0 0 5.266,-4.9891 c -0.063,-2.91 -2.7068,-4.79 -5.6641,-4.7928 h -5.9585 a 2.4764,2.4764 0 0 1 0,-4.951 h 3.9776 c 2.6877,-0.1083 4.7561,-1.7393 4.888,-4.2747 0.13,-2.7229 -2.2092,-4.7664 -5.0667,-4.7664 h -9.6677 l -0.0366,23.774 h 12.262 m 7.3267,-19.028 a 7.8666,7.8666 0 0 1 -2.3292,5.6154 l -0.1493,0.1728 0.202,0.12 A 9.7315,9.7315 0 0 1 73.4674,42.7309 9.9636,9.9636 0 0 1 63.4,52.8615 H 48.6848 A 2.6232,2.6232 0 0 1 46.0939,50.2059 V 21.66 a 2.6216,2.6216 0 0 1 2.5851,-2.6614 l 12.152,0.0353 a 9.5978,9.5978 0 0 1 9.87,9.653"
       id="path2"
       style="fill:#000000;fill-opacity:1" />
    <path
       class="cls-2"
       d="m 23.2612,43.08 0.07,0.2018 0.07,-0.2018 c 0.6793,-1.8827 1.5051,-3.9673 2.3834,-6.2333 q 1.3482,-3.5793 2.6876,-6.8482 c 0.9092,-2.2075 1.761,-4.1752 2.5794,-5.8967 a 19.7323,19.7323 0 0 1 2.0131,-3.616 3.9485,3.9485 0 0 1 3.1926,-1.4519 h 0.61 a 2.8932,2.8932 0 0 1 1.9209,0.6145 2.1711,2.1711 0 0 1 0.7654,1.3177 l 3.8034,29.5036 a 2.4345,2.4345 0 0 1 -0.6486,1.7861 2.6123,2.6123 0 0 1 -1.8518,0.6061 2.9706,2.9706 0 0 1 -1.9135,-0.5651 2.0387,2.0387 0 0 1 -0.8885,-1.4727 C 37.9214,49.8375 37.8102,48.7541 37.6887,47.5535 37.5248,46.3621 36.9317,41.218 36.7606,39.9149 36.6068,38.58 35.5383,30.2473 35.1722,27.2168 l -0.032,-0.2575 -1.2182,2.5589 c -0.4158,0.8815 -0.8637,1.9326 -1.3554,3.1621 -0.4891,1.2355 -0.9841,2.5324 -1.4715,3.9056 -0.5283,1.3264 -2.8839,8.0634 -2.8839,8.0634 -0.2165,0.6058 -0.6368,1.8417 -1.0085,2.963 -0.3793,1.1272 -0.7292,2.149 -0.8257,2.3394 a 3.4174,3.4174 0 0 1 -6.0856,0 c -0.098,-0.19 -0.4448,-1.2122 -0.8272,-2.3394 -0.3774,-1.1213 -0.7786,-2.3572 -1.0156,-2.963 0,0 -2.3512,-6.737 -2.8753,-8.0634 -0.4934,-1.3732 -0.9851,-2.67 -1.4771,-3.9056 -0.4933,-1.23 -0.9412,-2.2806 -1.3423,-3.1621 l -1.2253,-2.5589 -0.028,0.2575 C 11.13,30.2469 10.067,38.58 9.9045,39.9145 c -0.1686,1.3031 -0.7613,6.4472 -0.9238,7.6386 -0.1172,1.2 -0.2473,2.284 -0.3706,3.2706 A 2.0592,2.0592 0 0 1 7.723,52.2964 2.9853,2.9853 0 0 1 5.8054,52.8615 2.5944,2.5944 0 0 1 3.96,52.2554 2.4637,2.4637 0 0 1 3.3055,50.4693 L 7.1083,20.9657 a 2.1772,2.1772 0 0 1 0.77,-1.3177 2.877,2.877 0 0 1 1.919,-0.6145 h 0.61 a 3.929,3.929 0 0 1 3.1885,1.4519 19.361,19.361 0 0 1 2.0159,3.616 q 1.2294,2.5822 2.5751,5.8967 1.35,3.2672 2.6994,6.8482 c 0.8725,2.266 1.6967,4.3506 2.3745,6.2333"
       id="path3"
       style="fill:#000000;fill-opacity:1" />
    <path
       class="cls-1"
       d="m 15.8011,1.1648 h 46.2612 c 4.358,0 6.5275,3.27 7.0413,7.5831 l 0.1946,1.3848 a 2.7044,2.7044 0 0 1 -2.39,2.963 2.6645,2.6645 0 0 1 -2.9208,-2.4009 L 63.803,9.3772 C 63.6084,7.7378 62.9189,6.4729 61.2513,6.4729 H 16.6192 c -1.6686,0 -2.36,1.2649 -2.5557,2.9043 l -0.1845,1.3176 a 2.6573,2.6573 0 0 1 -2.9234,2.4009 2.6988,2.6988 0 0 1 -2.3862,-2.963 L 8.7639,8.7479 C 9.2793,4.4352 11.443,1.1648 15.8011,1.1648"
       id="path4" />
    <path
       class="cls-2"
       d="m 99.0142,32.2583 c -0.3206,1.23 -0.65,2.5559 -0.9984,3.9555 -0.347,1.3964 -0.6938,2.7491 -1.0335,4.0258 -0.3411,1.28 -0.6545,2.3948 -0.9618,3.3641 a 11.2113,11.2113 0 0 1 -0.7612,1.9851 1.9814,1.9814 0 0 1 -1.8914,0.9426 3.9078,3.9078 0 0 1 -0.9852,-0.1494 1.6731,1.6731 0 0 1 -1.0131,-0.8607 12.0953,12.0953 0 0 1 -0.7567,-2.0846 c -0.3031,-1.0364 -0.6237,-2.2192 -0.9619,-3.5689 -0.3382,-1.3497 -0.6718,-2.7726 -1.0144,-4.2807 -0.3368,-1.5048 -0.6441,-2.9042 -0.9091,-4.1985 -0.2693,-1.2853 -0.5022,-2.3949 -0.682,-3.2938 -0.1758,-0.9164 -0.2783,-1.4579 -0.3031,-1.64 A 1.744,1.744 0 0 1 86.7088,26.2207 V 26.09 a 1.1286,1.1286 0 0 1 0.44,-0.9283 1.63,1.63 0 0 1 1.0836,-0.3513 1.7255,1.7255 0 0 1 0.9807,0.2575 1.4381,1.4381 0 0 1 0.5342,0.8872 c 0,0.044 0.063,0.3747 0.1832,0.9809 0.1286,0.6 0.2869,1.3792 0.48,2.3188 0.1948,0.94 0.4056,1.994 0.64,3.168 0.2387,1.1711 0.4829,2.3538 0.748,3.56 0.2563,1.1944 0.5183,2.3481 0.7789,3.478 0.2561,1.1243 0.4947,2.0936 0.7231,2.8987 0.2225,-0.7642 0.47,-1.6337 0.7435,-2.6145 0.2711,-0.9749 0.5433,-1.988 0.8126,-3.0274 q 0.4042,-1.5677 0.7744,-3.13 0.3691,-1.5764 0.6967,-2.919 c 0.21,-0.8988 0.397,-1.6921 0.5535,-2.3861 0.1582,-0.7 0.2812,-1.2122 0.3733,-1.5546 a 1.8506,1.8506 0 0 1 0.64,-1.01 1.8029,1.8029 0 0 1 1.1491,-0.3717 1.8829,1.8829 0 0 1 1.2209,0.3894 1.7837,1.7837 0 0 1 0.6,0.9926 c 0.2606,1.095 0.5257,2.3274 0.8185,3.6949 0.29,1.35 0.5958,2.7229 0.9075,4.1194 q 0.483,2.09 0.98,4.096 c 0.3438,1.338 0.6657,2.5237 0.988,3.5485 0.2241,-0.8049 0.4684,-1.7655 0.7274,-2.89 0.2579,-1.133 0.5169,-2.2777 0.7835,-3.4782 0.2752,-1.1827 0.5357,-2.3628 0.7785,-3.5281 0.2549,-1.168 0.4788,-2.2162 0.6824,-3.1531 0.2033,-0.9252 0.3657,-1.6894 0.4845,-2.2719 0.1274,-0.5859 0.19,-0.8931 0.19,-0.9108 a 1.4285,1.4285 0 0 1 0.5387,-0.8872 1.715,1.715 0 0 1 0.9807,-0.2575 1.6466,1.6466 0 0 1 1.082,0.3513 1.1323,1.1323 0 0 1 0.4405,0.9283 v 0.1316 a 1.499,1.499 0 0 1 -0.0322,0.2341 c -0.0177,0.1817 -0.13,0.7232 -0.3264,1.64 -0.1829,0.8989 -0.4188,2.0085 -0.6866,3.2938 -0.28,1.2943 -0.5769,2.6878 -0.9165,4.1842 -0.3338,1.49 -0.6719,2.91 -0.9923,4.2569 -0.3295,1.3468 -0.6444,2.5385 -0.95,3.5572 a 11.6978,11.6978 0 0 1 -0.7628,2.0672 1.799,1.799 0 0 1 -1.0247,0.8958 3.67,3.67 0 0 1 -0.997,0.1815 2.7228,2.7228 0 0 1 -0.4071,-0.0321 3.3876,3.3876 0 0 1 -0.5809,-0.132 2.11,2.11 0 0 1 -0.5972,-0.3189 1.5073,1.5073 0 0 1 -0.48,-0.5943 14.9417,14.9417 0 0 1 -0.7247,-2.12 q -0.4281,-1.4756 -0.9149,-3.3494 c -0.3221,-1.2473 -0.647,-2.553 -0.9618,-3.9143 -0.3089,-1.3558 -0.6089,-2.6325 -0.8769,-3.8122"
       id="path5"
       style="fill:#000000;fill-opacity:1" />
    <path
       class="cls-2"
       d="m 116.6909,40.304 q -0.5134,1.6164 -0.8958,2.9921 c -0.265,0.9195 -0.5007,1.6778 -0.7277,2.26 a 1.5123,1.5123 0 0 1 -2.9758,-0.3982 1.2963,1.2963 0 0 1 0.0686,-0.4419 c 0.041,-0.1349 0.1816,-0.5975 0.4215,-1.3821 0.2345,-0.7846 0.5477,-1.7566 0.93,-2.9307 0.3793,-1.1683 0.8066,-2.4476 1.2676,-3.8324 q 0.6921,-2.0952 1.4349,-4.1284 0.74,-2.0466 1.4565,-3.806 a 23.9279,23.9279 0 0 1 1.3117,-2.8548 1.5611,1.5611 0 0 1 0.7276,-0.7759 3.2547,3.2547 0 0 1 1.24,-0.1961 3.2144,3.2144 0 0 1 1.2676,0.2314 1.372,1.372 0 0 1 0.7216,0.8137 c 0.3194,0.6676 0.7,1.5752 1.1344,2.7084 0.4393,1.13 0.902,2.36 1.3822,3.6742 0.4917,1.3147 0.9648,2.6587 1.4406,4.02 0.4728,1.37 0.9106,2.6467 1.3041,3.8264 0.394,1.1771 0.7319,2.1871 1.01,3.0189 0.2766,0.8313 0.4583,1.3671 0.5241,1.6132 a 1.4133,1.4133 0 0 1 0.0688,0.4419 1.3,1.3 0 0 1 -0.4086,0.9867 1.6063,1.6063 0 0 1 -1.1767,0.3865 1.2839,1.2839 0 0 1 -0.8713,-0.2519 1.7192,1.7192 0 0 1 -0.4506,-0.7231 c -0.2228,-0.5825 -0.49,-1.3408 -0.8,-2.26 -0.2986,-0.9191 -0.6236,-1.9145 -0.9588,-2.9921 h -8.4468 m 7.5027,-2.9309 c -0.48,-1.461 -0.9252,-2.8047 -1.3556,-4.0229 -0.4273,-1.2265 -0.871,-2.3862 -1.3175,-3.49 -0.1143,-0.2461 -0.2314,-0.53 -0.3529,-0.8668 -0.1274,-0.3134 -0.199,-0.5123 -0.2179,-0.5739 a 2.5236,2.5236 0 0 0 -0.2168,0.5449 c -0.1331,0.351 -0.2458,0.65 -0.36,0.8958 -0.45,1.1035 -0.8857,2.2632 -1.3075,3.49 -0.4128,1.2182 -0.8592,2.5619 -1.3276,4.0229 z"
       id="path6"
       style="fill:#000000;fill-opacity:1" />
    <path
       class="cls-2"
       d="m 135.65,38.0464 a 3.31,3.31 0 0 1 -0.322,-0.3717 c -0.1,-0.1316 -0.2125,-0.2957 -0.3264,-0.4683 -0.3178,-0.4452 -0.6485,-0.9927 -1.0263,-1.6336 -0.3747,-0.6443 -0.7453,-1.3238 -1.1171,-2.0352 -0.3687,-0.7259 -0.7288,-1.452 -1.073,-2.1781 -0.3544,-0.7321 -0.6719,-1.4056 -0.9471,-2.0321 -0.2869,-0.6323 -0.5256,-1.18 -0.7291,-1.6337 a 6.85,6.85 0 0 1 -0.3733,-0.966 1.9945,1.9945 0 0 1 -0.0834,-0.2548 c -0.001,-0.0558 -0.0191,-0.1376 -0.0191,-0.2518 a 1.3523,1.3523 0 0 1 0.4173,-1.0041 1.6119,1.6119 0 0 1 1.1741,-0.4071 1.21,1.21 0 0 1 0.9618,0.3367 2.2939,2.2939 0 0 1 0.4185,0.6763 c 0.0471,0.1143 0.1553,0.357 0.3265,0.7349 0.1655,0.3834 0.3747,0.855 0.6223,1.4141 0.2474,0.5622 0.5313,1.18 0.8416,1.8535 0.3251,0.679 0.6384,1.3381 0.9679,1.9937 0.3249,0.6413 0.644,1.2679 0.944,1.8679 a 13.9846,13.9846 0 0 0 0.8638,1.4669 23.9585,23.9585 0 0 0 1.3848,-2.471 q 0.7443,-1.4755 1.4171,-2.9189 c 0.4522,-0.9664 0.8389,-1.8241 1.1727,-2.5563 0.3219,-0.7525 0.5138,-1.2091 0.5912,-1.3848 a 2.2926,2.2926 0 0 1 0.4233,-0.6763 1.1739,1.1739 0 0 1 0.9543,-0.3367 1.5855,1.5855 0 0 1 1.17,0.4071 1.3228,1.3228 0 0 1 0.42,1.0041 1.5313,1.5313 0 0 1 -0.0146,0.2518 c -0.0148,0.0585 -0.0439,0.1406 -0.0819,0.2548 -0.0675,0.1785 -0.1979,0.5008 -0.3865,0.9777 -0.1889,0.4716 -0.432,1.0277 -0.7175,1.6484 -0.2823,0.63 -0.5914,1.3089 -0.9368,2.0348 -0.3571,0.7351 -0.7175,1.4523 -1.0832,2.1814 -0.3779,0.7115 -0.7439,1.3995 -1.1157,2.0525 -0.3687,0.647 -0.7174,1.2061 -1.0319,1.651 a 5.3248,5.3248 0 0 1 -0.6458,0.7729 v 6.9685 a 1.48,1.48 0 0 1 -0.4215,1.1009 1.5224,1.5224 0 0 1 -2.6189,-1.1009 v -6.9685"
       id="path7"
       style="fill:#040000;fill-opacity:1" />
  </g>
</svg>
