<?xml version="1.0" encoding="UTF-8" standalone="no"?>
<svg
   inkscape:version="1.3.2 (091e20e, 2023-11-25, custom)"
   sodipodi:docname="ticket_restaurante_logo.svg"
   id="svg25"
   version="1.1"
   viewBox="0 0 48 38"
   width="48"
   height="38"
   xmlns:inkscape="http://www.inkscape.org/namespaces/inkscape"
   xmlns:sodipodi="http://sodipodi.sourceforge.net/DTD/sodipodi-0.dtd"
   xmlns="http://www.w3.org/2000/svg"
   xmlns:svg="http://www.w3.org/2000/svg"
   xmlns:rdf="http://www.w3.org/1999/02/22-rdf-syntax-ns#"
   xmlns:cc="http://creativecommons.org/ns#"
   xmlns:dc="http://purl.org/dc/elements/1.1/">
  <metadata
     id="metadata29">
    <rdf:RDF>
      <cc:Work
         rdf:about="">
        <dc:format>image/svg+xml</dc:format>
        <dc:type
           rdf:resource="http://purl.org/dc/dcmitype/StillImage" />
      </cc:Work>
    </rdf:RDF>
  </metadata>
  <sodipodi:namedview
     inkscape:current-layer="ticket_restaurante_logo"
     inkscape:window-maximized="1"
     inkscape:window-y="-8"
     inkscape:window-x="-8"
     inkscape:cy="29.204004"
     inkscape:cx="54.947569"
     inkscape:zoom="9.5363636"
     showgrid="false"
     id="namedview27"
     inkscape:window-height="1009"
     inkscape:window-width="1920"
     inkscape:pageshadow="2"
     inkscape:pageopacity="0"
     guidetolerance="10"
     gridtolerance="10"
     objecttolerance="10"
     borderopacity="1"
     bordercolor="#666666"
     pagecolor="#ffffff"
     inkscape:showpageshadow="2"
     inkscape:pagecheckerboard="0"
     inkscape:deskcolor="#d1d1d1" />
  <defs
     id="defs4">
    <style
       id="style2">
      .cls-1 {
        fill: #004a97;
      }

      .cls-2 {
        fill: #e2231a;
      }

      .cls-3 {
        fill: #fff;
      }
    </style>
  </defs>
  <g
     transform="translate(-324,-312)"
     id="ticket_restaurante_logo">
    <g
       id="g1"
       transform="translate(-0.03226261,2.2360016)">
      <path
         d="m 344.50258,327.17965 a 1.1356824,1.1356824 0 1 1 -0.0302,1.60287 1.1374001,1.1374001 0 0 1 0.0302,-1.60287 m -0.66471,6.94394 a 2.1088792,2.1088792 0 0 1 -0.87117,0.16317 c -1.15527,0 -1.68773,-0.62898 -1.68773,-1.42149 v -2.18961 h -0.5328 v -1.05255 h 0.53246 v -0.93163 l 1.81482,-0.40535 v 1.34283 h 0.74442 v 1.05254 h -0.74407 v 2.05667 c 0,0.33871 0.13294,0.46582 0.39917,0.46582 a 0.91548508,0.91548508 0 0 0 0.34351,-0.0667 z m 2.35896,0.0787 H 344.382 v -4.57914 h 1.81483 z m 4.0879,-0.25421 a 2.0226552,2.0226552 0 0 1 -1.31877,0.33872 c -1.25832,0 -2.18961,-0.83476 -2.18961,-2.39538 0,-1.56062 1.02816,-2.35312 2.1714,-2.35312 a 2.1422007,2.1422007 0 0 1 1.31259,0.33871 l -0.35073,0.88319 a 0.84368908,0.84368908 0 0 0 -0.53246,-0.16316 c -0.49604,0 -0.7743,0.41737 -0.7743,1.28236 0,0.84094 0.29646,1.27619 0.7743,1.27619 a 0.82445187,0.82445187 0 0 0 0.53246,-0.16936 z m 5.53482,0.25421 h -2.01956 l -1.22809,-2.28648 -0.0182,2.28648 h -1.80864 v -6.67187 h 1.80246 c 0,0 0.012,0 0.012,4.0587 l 1.25213,-1.97181 h 1.79044 l -1.4397,2.01441 z m 4.52453,-2.11712 -2.99414,0.37512 c 0.11508,0.48987 0.41223,0.73789 1.07076,0.73789 a 3.489836,3.489836 0 0 0 1.37409,-0.24802 l 0.39917,0.9859 a 4.856365,4.856365 0 0 1 -2.00204,0.35074 c -1.67571,0 -2.56474,-1.0103 -2.56474,-2.38919 0,-1.3789 0.82857,-2.35896 2.439,-2.35896 1.61455,0 2.37718,0.99208 2.28031,2.54652 m -1.66953,-0.58673 c 0,-0.69564 -0.22981,-1.03435 -0.6836,-1.03435 -0.53246,0 -0.82858,0.43558 -0.7743,1.23394 z m 5.00855,2.62519 a 2.0978865,2.0978865 0 0 1 -0.86498,0.16317 c -1.15527,0 -1.68772,-0.62898 -1.68772,-1.42149 v -2.18961 h -0.53247 v -1.05255 h 0.53247 v -0.93163 l 1.80863,-0.40536 v 1.34283 h 0.74407 v 1.05255 h -0.74407 v 2.05667 c 0,0.3387 0.13295,0.46581 0.39917,0.46581 a 0.91582864,0.91582864 0 0 0 0.34353,-0.0667 z"
         class="cls-1"
         data-name="Path 525"
         id="Path_525"
         style="stroke-width:0.343522" />
      <path
         d="m 341.92548,337.08132 v 1.69355 h -0.59876 v -3.94362 h 1.59084 a 1.1312167,1.1312167 0 0 1 0.82274,0.3205 1.0848412,1.0848412 0 0 1 0.32669,0.81071 1.0573595,1.0573595 0 0 1 -0.75574,1.05255 l 0.9014,1.76021 h -0.70182 l -0.81655,-1.69357 z m 0,-0.52629 h 0.93747 a 0.64753824,0.64753824 0 0 0 0.45963,-0.16316 0.5530698,0.5530698 0 0 0 0.17554,-0.43559 0.57883392,0.57883392 0 0 0 -0.17554,-0.42941 0.588109,0.588109 0 0 0 -0.43558,-0.16935 h -0.96771 v 1.19786 z"
         class="cls-1"
         data-name="Path 526"
         id="Path_526"
         style="stroke-width:0.343522" />
      <path
         d="m 344.88972,337.57152 v 0.0848 a 0.54310767,0.54310767 0 0 0 0.18757,0.42356 0.65990502,0.65990502 0 0 0 0.46582,0.16936 0.75780867,0.75780867 0 0 0 0.59875,-0.27207 l 0.42941,0.36275 a 1.2926718,1.2926718 0 0 1 -1.02816,0.46582 1.1617901,1.1617901 0 0 1 -0.8832,-0.35074 1.2023257,1.2023257 0 0 1 -0.34352,-0.88903 v -0.49604 a 1.1106054,1.1106054 0 0 1 0.33871,-0.81037 1.1277814,1.1277814 0 0 1 0.82274,-0.33872 1.0992692,1.0992692 0 0 1 0.83475,0.34353 1.2208758,1.2208758 0 0 1 0.32669,0.87701 v 0.42356 h -1.74818 z m -0.006,-0.49605 h 1.19752 a 0.57917744,0.57917744 0 0 0 -0.59293,-0.59875 0.59360535,0.59360535 0 0 0 -0.4294,0.16316 0.55272628,0.55272628 0 0 0 -0.17553,0.43559"
         class="cls-1"
         data-name="Path 527"
         id="Path_527"
         style="stroke-width:0.343522" />
      <path
         d="m 349.2023,336.29533 -0.35074,0.45963 a 1.1803403,1.1803403 0 0 0 -0.78014,-0.26004 c -0.3023,0 -0.45963,0.0969 -0.45963,0.29646 0,0.18138 0.13741,0.27207 0.41223,0.27207 a 3.6214048,3.6214048 0 0 1 0.52009,0.0302 1.5218007,1.5218007 0 0 1 0.44658,0.19375 0.68223392,0.68223392 0 0 1 0.27825,0.63517 0.76227446,0.76227446 0 0 1 -0.31467,0.64719 1.3235888,1.3235888 0 0 1 -0.84094,0.24046 1.8855902,1.8855902 0 0 1 -0.68945,-0.1271 1.5084034,1.5084034 0 0 1 -0.54963,-0.36275 l 0.39917,-0.39918 a 1.1748439,1.1748439 0 0 0 0.83476,0.33253 c 0.39334,0 0.59292,-0.11508 0.59292,-0.33871 0,-0.18756 -0.16317,-0.28443 -0.48402,-0.28443 a 1.4685549,1.4685549 0 0 1 -0.78633,-0.15116 0.71349439,0.71349439 0 0 1 -0.27825,-0.29027 0.79009971,0.79009971 0 0 1 -0.0969,-0.39334 0.77601532,0.77601532 0 0 1 0.27825,-0.62314 1.119537,1.119537 0 0 1 0.74407,-0.236 1.7519603,1.7519603 0 0 1 1.12504,0.35692"
         class="cls-1"
         data-name="Path 528"
         id="Path_528"
         style="stroke-width:0.343522" />
      <path
         d="m 350.34588,336.4221 v 1.62554 a 0.19580732,0.19580732 0 0 0 0.0484,0.15115 0.30436015,0.30436015 0 0 0 0.19341,0.0422 h 0.18138 v 0.53246 h -0.25421 a 1.0102971,1.0102971 0 0 1 -0.36894,-0.0543 0.52799271,0.52799271 0 0 1 -0.22398,-0.17555 0.69494422,0.69494422 0 0 1 -0.11508,-0.21779 1.0927422,1.0927422 0 0 1 -0.0241,-0.27825 v -1.62726 h -0.27824 v -0.4538 h 0.27824 v -0.83888 h 0.5627 v 0.84094 h 0.42356 v 0.4538 z"
         class="cls-1"
         data-name="Path 529"
         id="Path_529"
         style="stroke-width:0.343522" />
      <path
         d="m 352.75912,338.77522 v -0.27826 a 0.57471166,0.57471166 0 0 1 -0.26005,0.236 0.92750834,0.92750834 0 0 1 -0.39333,0.0787 1.1240027,1.1240027 0 0 1 -0.75574,-0.24047 0.76708376,0.76708376 0 0 1 -0.28444,-0.62899 0.82926117,0.82926117 0 0 1 0.1453,-0.46581 0.77876349,0.77876349 0 0 1 0.33253,-0.3023 1.2655336,1.2655336 0 0 1 0.46583,-0.0787 h 0.74406 v -0.20612 a 0.35554487,0.35554487 0 0 0 -0.11508,-0.31467 0.79697014,0.79697014 0 0 0 -0.43559,-0.0787 1.2174406,1.2174406 0 0 0 -0.36309,0.0365 0.32222327,0.32222327 0 0 0 -0.16937,0.15734 l -0.44142,-0.35073 a 0.71589904,0.71589904 0 0 1 0.36276,-0.3023 1.6090553,1.6090553 0 0 1 0.61834,-0.0969 1.2088526,1.2088526 0 0 1 0.81655,0.24802 0.81277213,0.81277213 0 0 1 0.27825,0.64101 v 1.95396 h -0.54551 z m 0,-1.22191 h -0.73788 c -0.28444,0 -0.4294,0.11508 -0.4294,0.35074 0,0.24802 0.18137,0.37512 0.54963,0.37512 a 0.89590438,0.89590438 0 0 0 0.49604,-0.0907 0.48436547,0.48436547 0 0 0 0.11508,-0.38715 v -0.24836 z"
         class="cls-1"
         data-name="Path 530"
         id="Path_530"
         style="stroke-width:0.343522" />
      <path
         d="m 356.03735,335.96864 v 2.80658 h -0.56269 v -0.32051 a 0.90483594,0.90483594 0 0 1 -0.72587,0.35692 0.79765718,0.79765718 0 0 1 -0.69562,-0.27207 1.6561177,1.6561177 0 0 1 -0.22982,-0.39917 1.3740864,1.3740864 0 0 1 -0.0364,-0.35692 v -1.80864 h 0.56269 v 1.62726 a 1.0391529,1.0391529 0 0 0 0.0241,0.27207 0.77051898,0.77051898 0 0 0 0.14531,0.236 0.48986182,0.48986182 0 0 0 0.39333,0.14531 0.54173359,0.54173359 0 0 0 0.3205,-0.0969 0.45688374,0.45688374 0 0 0 0.18757,-0.20611 0.52696216,0.52696216 0 0 0 0.0484,-0.16937 1.9055144,1.9055144 0 0 0 0.006,-0.22363 v -1.59085 z"
         class="cls-1"
         data-name="Path 531"
         id="Path_531"
         style="stroke-width:0.343522" />
      <path
         d="m 357.10226,335.96864 v 0.30917 a 0.95808174,0.95808174 0 0 1 1.33664,-0.13294 l -0.39332,0.48986 a 0.55410036,0.55410036 0 0 0 -0.18757,-0.10889 0.60906382,0.60906382 0 0 0 -0.18756,-0.0302 0.54310767,0.54310767 0 0 0 -0.41223,0.16935 0.57917744,0.57917744 0 0 0 -0.16317,0.42356 v 1.69357 h -0.55547 v -2.80658 h 0.56268 z"
         class="cls-1"
         data-name="Path 532"
         id="Path_532"
         style="stroke-width:0.343522" />
      <path
         d="m 360.19911,338.77522 v -0.27826 a 0.57471166,0.57471166 0 0 1 -0.26005,0.236 0.92750834,0.92750834 0 0 1 -0.39333,0.0787 1.1240027,1.1240027 0 0 1 -0.75575,-0.24047 0.76708376,0.76708376 0 0 1 -0.28443,-0.62899 0.8296047,0.8296047 0 0 1 0.14531,-0.46581 0.77876349,0.77876349 0 0 1 0.33253,-0.3023 1.2655336,1.2655336 0 0 1 0.46581,-0.0787 h 0.74407 v -0.20612 a 0.35554487,0.35554487 0 0 0 -0.11508,-0.31467 0.79697014,0.79697014 0 0 0 -0.43558,-0.0787 1.2174406,1.2174406 0 0 0 -0.36311,0.0365 0.32222327,0.32222327 0 0 0 -0.16936,0.15734 l -0.44142,-0.35073 a 0.71624256,0.71624256 0 0 1 0.36311,-0.3023 1.6087117,1.6087117 0 0 1 0.61834,-0.0969 1.2088526,1.2088526 0 0 1 0.81655,0.24802 0.81277213,0.81277213 0 0 1 0.27825,0.64101 v 1.95396 h -0.54586 z m 0,-1.22191 h -0.73788 c -0.28444,0 -0.4294,0.11508 -0.4294,0.35074 0,0.24802 0.18137,0.37512 0.54963,0.37512 a 0.89590438,0.89590438 0 0 0 0.49605,-0.0907 0.48436547,0.48436547 0 0 0 0.11508,-0.38715 v -0.24836 z"
         class="cls-1"
         data-name="Path 533"
         id="Path_533"
         style="stroke-width:0.343522" />
      <path
         d="m 361.81435,335.96864 v 0.30917 a 0.94949373,0.94949373 0 0 1 0.74991,-0.34351 0.89075154,0.89075154 0 0 1 0.6654,0.27824 0.93575289,0.93575289 0 0 1 0.27207,0.67743 v 1.88731 h -0.56063 v -1.73616 a 0.54963458,0.54963458 0 0 0 -0.16317,-0.39333 0.52249638,0.52249638 0 0 0 -0.39334,-0.16936 0.56303192,0.56303192 0 0 0 -0.39917,0.16317 0.52249638,0.52249638 0 0 0 -0.16935,0.39334 v 1.73615 h -0.55822 v -2.80656 h 0.5565 z"
         class="cls-1"
         data-name="Path 534"
         id="Path_534"
         style="stroke-width:0.343522" />
      <path
         d="m 364.63913,336.4221 v 1.62554 a 0.19580732,0.19580732 0 0 0 0.0484,0.15115 0.30436015,0.30436015 0 0 0 0.1934,0.0422 h 0.18138 v 0.53246 h -0.25421 a 1.0099535,1.0099535 0 0 1 -0.36894,-0.0543 0.52799271,0.52799271 0 0 1 -0.22397,-0.17555 0.6946007,0.6946007 0 0 1 -0.11508,-0.21779 1.0917116,1.0917116 0 0 1 -0.0241,-0.27825 v -1.62726 h -0.27791 v -0.4538 h 0.27826 v -0.83888 h 0.56268 v 0.84094 h 0.42356 v 0.4538 z"
         class="cls-1"
         data-name="Path 535"
         id="Path_535"
         style="stroke-width:0.343522" />
      <path
         d="m 329.60404,322.92101 a 4.1758487,4.1758487 0 0 1 4.14357,-4.20986 4.179971,4.179971 0 0 1 4.14355,4.20986 4.1439012,4.1439012 0 1 1 -8.28712,0"
         class="cls-2"
         data-name="Path 536"
         id="Path_536"
         style="stroke-width:0.343522" />
      <path
         d="m 335.11447,329.65334 a 1.8306267,1.8306267 0 0 1 1.81483,1.84506 1.8522685,1.8522685 0 0 1 -0.88904,1.59085 l 0.54449,0.70765 0.8588,0.40536 h -2.57091 l -0.59292,-0.87701 h -1.12504 v 0.87701 h -2.58293 l 0.59291,-0.40536 v -4.1676 h 1.1247 v 2.55271 h 2.82477 z"
         class="cls-1"
         data-name="Path 537"
         id="Path_537"
         style="stroke-width:0.343522" />
      <path
         d="m 331.57002,333.87557 v -3.78664 h 0.35073 v 2.55271 h 3.59324 v -2.47989 a 1.4479436,1.4479436 0 0 1 1.04637,1.40329 1.4664938,1.4664938 0 0 1 -0.70182,1.25214 l -0.37513,0.22982 0.64102,0.82857 h -1.034 l -0.59292,-0.87117 h -1.71761 v 0.87117 z"
         class="cls-1"
         data-name="Path 538"
         id="Path_538"
         style="stroke-width:0.343522" />
      <path
         d="m 329.13823,327.53657 v 1.6757 h 3.50392 v 2.62518 h 2.05048 v -2.62518 h 3.50667 v -1.6757 z"
         class="cls-1"
         data-name="Path 539"
         id="Path_539"
         style="stroke-width:0.343522" />
      <path
         style="fill:#ffffff;fill-opacity:1;stroke-width:0.343522"
         d="m 337.73383,328.00822 h -8.12979 v 0.73788 h 3.50393 v 2.61901 h 1.11919 v -2.61901 h 3.50667 z"
         class="cls-3"
         data-name="Path 540"
         id="Path_540" />
      <rect
         height="1.3850791"
         width="0.42356217"
         class="cls-1"
         data-name="Rectangle 7759"
         id="Rectangle_7759"
         x="333.45697"
         y="329.6293"
         style="stroke-width:0.343522" />
      <path
         d="m 366.34575,335.88414 h 0.0907 c 0.0604,0 0.11508,-0.006 0.11508,-0.0848 0,-0.0667 -0.0604,-0.0787 -0.11508,-0.0787 h -0.0969 v 0.16316 z m -0.10891,-0.24047 h 0.21162 c 0.13294,0 0.20611,0.0484 0.20611,0.16936 a 0.13740864,0.13740864 0 0 1 -0.14531,0.15115 l 0.15115,0.24802 h -0.10855 l -0.14532,-0.24047 h -0.0608 v 0.24047 h -0.10305 v -0.56853 z m 0.56854,0.28444 a 0.37581264,0.37581264 0 1 0 -0.37513,0.39917 0.37787378,0.37787378 0 0 0 0.37513,-0.39917 m -0.87117,0 a 0.49604521,0.49604521 0 0 1 0.99208,0 0.49604521,0.49604521 0 1 1 -0.99208,0"
         class="cls-1"
         data-name="Path 541"
         id="Path_541"
         style="stroke-width:0.343522" />
    </g>
  </g>
</svg>
