<svg width="45" height="23" viewBox="0 0 144 55" fill="none" xmlns="http://www.w3.org/2000/svg">
<path d="M143.279 30.3989C142.722 30.685 141.409 31.0732 139.656 31.0732C134.836 31.0732 132.606 28.4478 132.606 25.1455V15.9892H130.377V11.5876H132.606V7.68383L140.171 5.98053V11.5876H143.279V15.9892H140.171V24.5791C140.171 26 140.733 26.5308 141.846 26.5308C142.407 26.5308 142.682 26.4611 143.279 26.2457V30.3989ZM122.345 19.4309C122.345 16.5226 121.388 15.1022 119.479 15.1022C117.25 15.1022 116.012 16.9108 116.252 20.2483L122.345 19.4309ZM129.32 21.8814L116.809 23.4422C117.289 25.5018 118.522 26.5308 121.273 26.5308C123.818 26.5308 125.812 26.0346 127.005 25.5018L128.678 29.6167C126.809 30.434 124.299 31.0732 120.316 31.0732C113.306 31.0732 109.598 26.8519 109.598 21.0997C109.598 15.35 113.065 11.234 119.795 11.234C126.529 11.234 129.716 15.3851 129.32 21.8814ZM110.416 30.7196H101.972L96.8322 21.1725L96.7519 30.7196H89.1857V2.85683H96.7519C96.7519 2.85683 96.7912 2.85683 96.7912 19.8223L102.012 11.5876H109.499L103.485 19.9999L110.416 30.7196ZM87.2872 29.655C86.3353 30.434 84.7012 31.0732 81.7907 31.0732C76.534 31.0732 72.6313 27.5954 72.6313 21.064C72.6313 14.5337 76.9297 11.234 81.7109 11.234C84.3406 11.234 86.1747 11.8349 87.2069 12.6517L85.7333 16.3444C85.2175 15.9536 84.5411 15.6712 83.5041 15.6712C81.4344 15.6712 80.2773 17.4091 80.2773 21.0295C80.2773 24.544 81.5152 26.3531 83.5041 26.3531C84.5017 26.3531 85.1776 26.0702 85.7333 25.6443L87.2872 29.655ZM70.2159 30.7196H62.6454V11.5876H70.2159V30.7196ZM60.3561 30.3989C59.7999 30.685 58.4816 31.0732 56.7283 31.0732C51.9082 31.0732 49.6785 28.4478 49.6785 25.1455V15.9892H47.4492V11.5876H49.6785V7.68383L57.2494 5.98053V11.5876H60.3561V15.9892H57.2494V24.5791C57.2494 26 57.8057 26.5308 58.923 26.5308C59.4787 26.5308 59.7595 26.4611 60.3561 26.2457V30.3989ZM62.6109 1.39337C64.4945 -0.422672 67.506 -0.367899 69.3246 1.51887C71.1487 3.40298 71.0981 6.40436 69.2087 8.22252C67.3251 10.0391 64.3142 9.98379 62.4907 8.09968C60.6667 6.21398 60.722 3.2126 62.6109 1.39337Z" fill="#00549D"/>
<path fill-rule="evenodd" clip-rule="evenodd" d="M0 17.7649C0 7.95453 7.95654 0.000125885 17.7669 0.000125885C27.5772 0.000125885 35.5343 7.95453 35.5343 17.7649C35.5343 27.5779 27.5772 35.5317 17.7669 35.5317C7.95654 35.5317 0 27.5779 0 17.7649Z" fill="#ED1C24"/>
<path d="M115.962 44.007C115.962 42.3117 115.822 41.8495 115.386 41.2305C115.04 40.7503 114.309 40.3818 113.507 40.3818C112.7 40.3818 111.968 40.7503 111.623 41.2305C111.187 41.8495 111.046 42.3117 111.046 43.9846C111.046 45.6826 111.187 46.1416 111.623 46.7632C111.968 47.2445 112.7 47.6119 113.507 47.6119C114.309 47.6119 115.04 47.2445 115.386 46.7632C115.822 46.1416 115.962 45.6826 115.962 44.007ZM108.706 43.9846C108.706 41.4847 109.078 40.5195 109.969 39.5331C110.611 38.8216 111.693 38.042 113.507 38.042C115.315 38.042 116.398 38.8216 117.039 39.5331C117.931 40.5195 118.302 41.4847 118.302 43.9846C118.302 46.5096 117.931 47.4742 117.039 48.4585C116.398 49.1727 115.315 49.9523 113.507 49.9523C111.693 49.9523 110.611 49.1727 109.969 48.4585C109.078 47.4742 108.706 46.5096 108.706 43.9846ZM101.692 51.8338L103.07 49.9523C100.545 49.7694 98.2043 48.048 98.2043 44.007C98.2043 39.741 100.8 38.042 103.485 38.042C105.249 38.042 106.652 38.8912 107.659 40.0612L105.941 41.5996C105.365 40.8886 104.538 40.3818 103.576 40.3818C101.672 40.3818 100.545 41.4619 100.545 44.007C100.545 46.5324 101.672 47.6119 103.576 47.6119C104.538 47.6119 105.365 47.1057 105.941 46.3947L107.659 47.9326C106.813 48.9196 105.666 49.6987 104.262 49.93C104.262 49.93 104.313 49.93 103.346 51.1924C103.485 51.1451 103.736 51.0994 103.967 51.0994C105.229 51.0994 105.986 51.904 105.986 52.8426C105.986 54.3108 104.653 55 103.165 55C102.454 55 101.602 54.7469 100.845 54.4491L101.256 53.4871C101.762 53.67 102.313 53.8306 102.864 53.8306C103.646 53.8306 104.197 53.5541 104.197 52.8654C104.197 52.2922 103.692 52.0167 103.07 52.0167C102.774 52.0167 102.499 52.0869 102.198 52.2698L101.692 51.8338ZM93.6655 33.475H96.0048V35.8143H93.6655V33.475ZM93.6655 38.1808H96.0048V49.8135H93.6655V38.1808ZM86.0296 49.8135L82.1316 39.189L80.6485 40.9551C80.097 40.5424 79.7062 40.3818 79.1101 40.3818C77.9625 40.3818 76.8356 41.1157 76.8356 42.8147V49.8135H74.4952V38.1808H76.8356C76.8356 38.1808 76.8856 38.1808 76.8856 39.4172C77.6168 38.5009 78.674 38.042 79.912 38.042C80.6778 38.042 81.335 38.268 81.9365 38.6493L81.7653 38.1808H84.2412C84.2412 38.1808 84.2859 38.1808 87.0166 46.3266L89.7478 38.1808H92.227L87.9584 49.8135H86.0296ZM64.7897 42.9525H69.7002C69.6305 41.1859 68.6228 40.2441 67.2454 40.2441C65.8676 40.2441 64.8354 41.1859 64.7897 42.9525ZM72.04 44.8818H64.7897C64.7897 46.7861 65.9628 47.7497 67.5656 47.7497C68.4632 47.7497 69.4247 47.337 70.1165 46.6255L71.8145 48.0703C70.668 49.4014 69.1748 49.9523 67.6113 49.9523C65.2263 49.9523 62.4504 48.8047 62.4504 44.032C62.4504 39.5108 64.996 38.042 67.2454 38.042C69.8156 38.042 72.04 39.9468 72.04 42.9525V44.8818ZM48.6362 47.7023L50.2699 45.8438C51.5073 46.8313 53.1612 47.4742 54.9049 47.4742C56.9235 47.4742 58.1419 46.5553 58.1419 45.2019C58.1419 44.0548 57.475 43.1822 56.0067 42.9982L53.8472 42.6993C51.0266 42.3117 49.5084 40.4743 49.5084 38.1095C49.5084 35.3107 51.4621 33.3378 54.8347 33.3378C56.8539 33.3378 58.6423 34.0488 60.1355 35.0358L58.7577 37.0778C57.5649 36.3211 56.1673 35.8149 54.7188 35.8149C53.2058 35.8149 51.9886 36.5966 51.9886 38.1574C51.9886 39.0747 52.6549 39.9941 54.3082 40.2441L56.1423 40.4972C59.1937 40.8657 60.6162 42.9748 60.6162 45.2019C60.6162 48.2081 58.3918 49.9523 54.8799 49.9523C52.4693 49.9523 50.3603 49.2185 48.6362 47.7023ZM119.469 47.8629L121.098 46.2559C122.11 47.2445 123.212 47.7497 124.77 47.7497C126.103 47.7497 127.065 47.2445 127.065 46.2559C127.065 45.4306 126.449 45.1796 125.642 45.1088L123.578 44.9264C121.648 44.7658 120.226 43.6188 120.226 41.6225C120.226 39.2571 122.11 38.042 124.565 38.042C126.609 38.042 127.982 38.661 129.13 39.6251L127.686 41.3241C126.769 40.6801 125.828 40.2441 124.565 40.2441C123.072 40.2441 122.571 40.8402 122.571 41.6448C122.571 42.1511 122.936 42.6547 124.104 42.7477L126.033 42.8855C128.443 43.0455 129.405 44.5127 129.405 46.3724C129.405 48.6441 127.296 49.9523 124.59 49.9523C122.706 49.9523 120.962 49.2631 119.469 47.8629Z" fill="#00549D"/>
<path d="M132.297 38.5063H132.669C132.918 38.5063 133.132 38.4744 133.132 38.1697C133.132 37.9049 132.891 37.8607 132.675 37.8607H132.297V38.5063ZM131.881 37.5395H132.718C133.261 37.5395 133.554 37.7283 133.554 38.2032C133.554 38.5898 133.333 38.7759 132.963 38.8094L133.57 39.7986H133.14L132.551 38.8254H132.297V39.7986H131.881V37.5395ZM134.155 38.677C134.155 37.7432 133.482 37.071 132.646 37.071C131.814 37.071 131.139 37.7432 131.139 38.677C131.139 39.6103 131.814 40.2862 132.646 40.2862C133.482 40.2862 134.155 39.6103 134.155 38.677ZM130.652 38.677C130.652 37.5768 131.546 36.6823 132.646 36.6823C133.748 36.6823 134.642 37.5768 134.642 38.677C134.642 39.7789 133.748 40.6733 132.646 40.6733C131.546 40.6733 130.652 39.7789 130.652 38.677Z" fill="#00549D"/>
</svg>
