<svg width="24" height="24" viewBox="0 0 24 24" fill="none" stroke="currentColor" xmlns="http://www.w3.org/2000/svg">
    <path d="M2.05 2.05005H4.05L6.71 14.47C6.80758 14.9249 7.06067 15.3315 7.42571 15.6199C7.79076 15.9083 8.24491 16.0604 8.71 16.05H18.49C18.9452 16.0493 19.3865 15.8933 19.741 15.6079C20.0956 15.3224 20.3421 14.9246 20.44 14.48L22.09 7.05005H5.12M9 21C9 21.5523 8.55229 22 8 22C7.44772 22 7 21.5523 7 21C7 20.4478 7.44772 20 8 20C8.55229 20 9 20.4478 9 21ZM20 21C20 21.5523 19.5523 22 19 22C18.4477 22 18 21.5523 18 21C18 20.4478 18.4477 20 19 20C19.5523 20 20 20.4478 20 21Z" stroke-width="2" stroke-linecap="round" stroke-linejoin="round"/>
</svg>
