<svg width="20" height="20" viewBox="0 0 80 80" fill="none" xmlns="http://www.w3.org/2000/svg">
    <path
        d="M66.6665 6.66602H13.3332C9.65127 6.66602 6.6665 9.65078 6.6665 13.3327V26.666C6.6665 30.3479 9.65127 33.3327 13.3332 33.3327H66.6665C70.3484 33.3327 73.3332 30.3479 73.3332 26.666V13.3327C73.3332 9.65078 70.3484 6.66602 66.6665 6.66602Z"
        stroke="currentColor" stroke-width="6" stroke-linecap="round" stroke-linejoin="round" />
    <path
        d="M66.6665 46.666H13.3332C9.65127 46.666 6.6665 49.6508 6.6665 53.3327V66.666C6.6665 70.3479 9.65127 73.3327 13.3332 73.3327H66.6665C70.3484 73.3327 73.3332 70.3479 73.3332 66.666V53.3327C73.3332 49.6508 70.3484 46.666 66.6665 46.666Z"
        stroke="currentColor" stroke-width="6" stroke-linecap="round" stroke-linejoin="round" />
    <path d="M20 20H20.0333" stroke="currentColor" stroke-width="6" stroke-linecap="round"
        stroke-linejoin="round" />
    <path d="M20 60H20.0333" stroke="currentColor" stroke-width="6" stroke-linecap="round"
        stroke-linejoin="round" />
</svg>