<svg width="20" height="21" viewBox="0 0 30 31" fill="currentColor" xmlns="http://www.w3.org/2000/svg">
    <g clip-path="url(#clip0_203_5)">
        <path d="M6.36618 27.456L10.8768 23.3649C11.0352 23.2082 11.2486 23.1196 11.4715 23.1181H27.8014C27.9302 23.1182 28.0539 23.0679 28.1461 22.978C28.2383 22.8881 28.2917 22.7657 28.2949 22.6369V2.19608C28.2917 2.06735 28.2383 1.94497 28.1461 1.85507C28.0539 1.76518 27.9302 1.71488 27.8014 1.71492H2.19608C2.07062 1.71814 1.95138 1.77025 1.8638 1.86014C1.77621 1.95003 1.72722 2.07058 1.72726 2.19608V22.6419C1.72724 22.7061 1.74008 22.7697 1.76503 22.8289C1.78998 22.8881 1.82653 22.9417 1.87252 22.9866C1.91852 23.0314 1.97303 23.0666 2.03284 23.09C2.09264 23.1135 2.15654 23.1247 2.22076 23.123H5.50995C5.73726 23.1237 5.95504 23.2145 6.11555 23.3754C6.27605 23.5364 6.36618 23.7544 6.36618 23.9817V27.456ZM6.65488 16.3522C6.42583 16.3522 6.20616 16.4432 6.0442 16.6051C5.88224 16.7671 5.79125 16.9868 5.79125 17.2158C5.79125 17.4449 5.88224 17.6645 6.0442 17.8265C6.20616 17.9885 6.42583 18.0795 6.65488 18.0795H16.7791C17.0081 18.0795 17.2278 17.9885 17.3898 17.8265C17.5517 17.6645 17.6427 17.4449 17.6427 17.2158C17.6427 16.9868 17.5517 16.7671 17.3898 16.6051C17.2278 16.4432 17.0081 16.3522 16.7791 16.3522H6.65488ZM6.65488 6.5167C6.42583 6.5167 6.20616 6.60769 6.0442 6.76965C5.88224 6.93161 5.79125 7.15128 5.79125 7.38033C5.79125 7.60937 5.88224 7.82904 6.0442 7.991C6.20616 8.15297 6.42583 8.24395 6.65488 8.24395H23.3649C23.4813 8.25021 23.5979 8.23266 23.7073 8.19239C23.8168 8.15212 23.9169 8.08998 24.0016 8.00974C24.0862 7.9295 24.1537 7.83286 24.1997 7.72571C24.2458 7.61855 24.2696 7.50313 24.2696 7.38649C24.2696 7.26985 24.2458 7.15444 24.1997 7.04728C24.1537 6.94013 24.0862 6.84349 24.0016 6.76325C23.9169 6.68301 23.8168 6.62087 23.7073 6.5806C23.5979 6.54033 23.4813 6.52278 23.3649 6.52903L6.65488 6.5167ZM6.65488 11.4344C6.43542 11.4462 6.22883 11.5417 6.07765 11.7012C5.92646 11.8607 5.8422 12.0721 5.8422 12.2919C5.8422 12.5117 5.92646 12.7231 6.07765 12.8826C6.22883 13.0421 6.43542 13.1376 6.65488 13.1494H21.6302C21.8497 13.1376 22.0562 13.0421 22.2074 12.8826C22.3586 12.7231 22.4429 12.5117 22.4429 12.2919C22.4429 12.0721 22.3586 11.8607 22.2074 11.7012C22.0562 11.5417 21.8497 11.4462 21.6302 11.4344H6.65488ZM11.812 24.838L6.1367 30.037C6.0205 30.1654 5.86821 30.2556 5.69981 30.2959C5.53141 30.3362 5.35477 30.3246 5.19306 30.2627C5.03136 30.2008 4.89215 30.0914 4.79369 29.949C4.69524 29.8066 4.64215 29.6377 4.64139 29.4646V24.838H2.19608C1.61385 24.8373 1.05564 24.6057 0.64394 24.194C0.232235 23.7823 0.000653099 23.2241 0 22.6419L0 2.19608C0.000653099 1.61385 0.232235 1.05564 0.64394 0.64394C1.05564 0.232235 1.61385 0.000653099 2.19608 0L27.8014 0C28.3837 0.00130079 28.9418 0.233013 29.3537 0.644506C29.7657 1.056 29.998 1.61382 30 2.19608V22.6419C29.998 23.2241 29.7657 23.782 29.3537 24.1935C28.9418 24.605 28.3837 24.8367 27.8014 24.838H11.812Z" />
    </g>
    <defs>
        <clipPath id="clip0_203_5">
            <rect width="30" height="30.3208" fill="white" />
        </clipPath>
    </defs>
</svg>