<svg width="544" height="543" viewBox="0 0 544 543" fill="none" xmlns="http://www.w3.org/2000/svg">
  <rect width="542.52" height="542.52" transform="translate(0.508789 0.104492)" fill="#A4CC44"/>
  <path d="M309.301 224.342H281.726C279.972 224.342 278.55 225.764 278.55 227.518V320.088C278.55 321.842 279.972 323.264 281.726 323.264H309.301C311.055 323.264 312.477 321.842 312.477 320.088V227.518C312.477 225.764 311.055 224.342 309.301 224.342Z" fill="#272727"/>
  <path d="M446.766 224.342H419.191C417.437 224.342 416.015 225.764 416.015 227.518V320.088C416.015 321.842 417.437 323.264 419.191 323.264H446.766C448.52 323.264 449.942 321.842 449.942 320.088V227.518C449.942 225.764 448.52 224.342 446.766 224.342Z" fill="#272727"/>
  <path d="M236.003 227.445V288.579C236.003 293.062 232.37 296.694 227.887 296.694C223.404 296.694 219.771 293.062 219.771 288.579V227.445C219.771 225.729 218.38 224.342 216.669 224.342H188.95C187.235 224.342 185.848 225.733 185.848 227.445V287.729C185.848 307.353 201.759 323.264 221.384 323.264H234.405C254.03 323.264 269.941 307.353 269.941 287.729V227.445C269.941 225.729 268.55 224.342 266.839 224.342H239.12C237.405 224.342 236.018 225.733 236.018 227.445H236.003Z" fill="#272727"/>
  <path d="M182.564 312.083H175.586C173.069 312.083 171.56 309.319 172.888 307.18C174.217 305.042 175.501 302.451 176.455 299.367C177.677 295.421 177.964 291.913 177.96 289.337V258.269C177.96 239.532 162.77 224.342 144.033 224.342H127.798C109.06 224.342 93.8701 239.532 93.8701 258.269V289.337C93.8701 308.075 109.06 323.264 127.798 323.264H140.838C142.601 323.264 144.033 324.693 144.033 326.459C144.033 326.514 144.033 326.57 144.033 326.625C144.033 333.831 149.874 339.672 157.08 339.672H182.564C184.46 339.672 185.995 338.138 185.995 336.242V315.513C185.995 313.618 184.46 312.083 182.564 312.083ZM135.917 296.698C131.434 296.698 127.801 293.065 127.801 288.582V259.027C127.801 254.545 131.434 250.912 135.917 250.912C140.4 250.912 144.033 254.545 144.033 259.027V288.582C144.033 293.065 140.4 296.698 135.917 296.698Z" fill="#272727"/>
  <path d="M378.319 224.342C376.722 224.342 375.364 225.505 375.121 227.08L365.603 295.579C365.342 297.103 363.156 297.103 362.894 295.579L353.376 227.08C353.13 225.505 351.772 224.342 350.178 224.342H322.864C320.858 224.342 319.335 226.149 319.673 228.125L335.525 320.574C335.79 322.127 337.141 323.264 338.717 323.264H389.781C391.36 323.264 392.707 322.127 392.972 320.574L408.824 228.125C409.163 226.149 407.639 224.342 405.633 224.342H378.319Z" fill="#272727"/>
</svg>
