<svg
    xmlns="http://www.w3.org/2000/svg"
    width="24"
    height="24"
    fill="currentColor"
    class="bi bi-receipt-cutoff"
>
    <g
        fill="#fff"
        fill-opacity="1"
    >
        <path
            d="M4.54 6.362a.73.73 0 0 1 .729-.729h8.752a.73.73 0 1 1 0 1.459H5.269a.73.73 0 0 1-.73-.73m0 2.918a.73.73 0 0 1 .73-.73h8.752a.73.73 0 1 1 0 1.459H5.269a.73.73 0 0 1-.73-.73m0 2.918a.73.73 0 0 1 .73-.73h8.752a.73.73 0 1 1 0 1.46H5.269a.73.73 0 0 1-.73-.73m0 2.917a.73.73 0 0 1 .73-.73h8.752a.73.73 0 0 1 0 1.46H5.269a.73.73 0 0 1-.73-.73m0 2.918a.73.73 0 0 1 .73-.73h8.752a.73.73 0 0 1 0 1.459H5.269a.73.73 0 0 1-.73-.73m12.4-12.398a.73.73 0 0 0 0 1.459h1.458a.73.73 0 0 0 0-1.459zm0 2.917a.73.73 0 0 0 0 1.459h1.458a.73.73 0 0 0 0-1.459zm0 2.918a.73.73 0 0 0 0 1.458h1.458a.73.73 0 0 0 0-1.458zm0 2.917a.73.73 0 0 0 0 1.459h1.458a.73.73 0 0 0 0-1.46zm0 2.917a.73.73 0 0 0 0 1.459h1.458a.73.73 0 0 0 0-1.459z"
            fill="#fff"
            fill-opacity="1"
            stroke-width="1.45865"
            transform="translate(.167 .168)"
        />
        <path
            d="M3.597.74A.73.73 0 0 0 2.43.93l-.73 1.459a.73.73 0 0 0-.077.327v18.962H.893a.73.73 0 0 0 0 1.459h21.88a.73.73 0 0 0 0-1.459h-.73V2.716a.73.73 0 0 0-.077-.327L21.236.93A.73.73 0 0 0 20.07.74l-.944.944-.942-.943a.73.73 0 0 0-1.033 0l-.942.943-.942-.943a.73.73 0 0 0-1.033 0l-.942.943-.943-.943a.73.73 0 0 0-1.032 0l-.943.943-.942-.943a.73.73 0 0 0-1.033 0l-.942.943-.942-.943a.73.73 0 0 0-1.033 0l-.942.943Zm-.316 1.748.744.744a.73.73 0 0 0 1.031 0l.942-.944.943.944a.73.73 0 0 0 1.032 0l.943-.944.942.944a.73.73 0 0 0 1.033 0l.942-.944.942.944a.73.73 0 0 0 1.033 0l.942-.944.943.944a.73.73 0 0 0 1.032 0l.943-.944.942.944a.73.73 0 0 0 1.033 0l.742-.744.2.4v18.79H3.08V2.888Z"
            fill="#fff"
            fill-opacity="1"
            stroke-width="1.45865"
            transform="translate(.167 .168)"
        />
    </g>
</svg>